<svg id="VC_Strip" data-name="VC Strip" xmlns="http://www.w3.org/2000/svg" viewBox="0 0 1024 1024"><defs><style>.cls-1{fill:#bbb;}.cls-1,.cls-2{stroke:#1d1d1b;stroke-miterlimit:10;}.cls-2{fill:#fff;fill-rule:evenodd;}</style></defs><g id="_15_-_16x1" data-name="15 - 16x1"><rect class="cls-1" x="12" y="472.25" width="1000" height="79.5"/><polyline class="cls-2" points="701.51 485.87 701.51 538.13 322.5 538.13 322.5 485.87 701.51 485.87"/><path d="M335.14,528.83H341L352.44,497h-6.22l-8.12,22.6-8-22.6h-6.23l11.27,31.81Zm45.1-31a18.17,18.17,0,0,0-7.58-1.66,17.34,17.34,0,0,0-8.63,2.25,16,16,0,0,0-6.17,5.95,16.51,16.51,0,0,0-2.15,8.45,16.27,16.27,0,0,0,4.73,12,16.45,16.45,0,0,0,12.14,4.71,18.27,18.27,0,0,0,7.15-1.33,22.66,22.66,0,0,0,6.66-4.77l-4.1-4.29a17.11,17.11,0,0,1-4.8,3.59,11.65,11.65,0,0,1-4.81,1,11.33,11.33,0,0,1-5.62-1.41,9.77,9.77,0,0,1-3.91-3.87,11.37,11.37,0,0,1-1.38-5.65,10.66,10.66,0,0,1,10.8-10.8q5.4,0,9.72,4.57l4.23-4a18.19,18.19,0,0,0-6.28-4.73Zm11.75,22h11v-5.49H392v5.49Zm30.45-22.53a9.87,9.87,0,0,0-4.53-1.1,8.75,8.75,0,0,0-6.23,2.37,7.52,7.52,0,0,0-2.52,5.67,8.34,8.34,0,0,0,1.52,4.6c1,1.53,3.25,3.72,6.71,6.54a22.65,22.65,0,0,1,3.53,3.31,3.58,3.58,0,0,1,.8,2.16,2.71,2.71,0,0,1-1.06,2.1,3.9,3.9,0,0,1-2.62.91q-3,0-5.28-4.22l-5.09,3.07A13.16,13.16,0,0,0,412,528a10.49,10.49,0,0,0,5.92,1.67,9.85,9.85,0,0,0,7-2.55,8.49,8.49,0,0,0,2.71-6.47,8.93,8.93,0,0,0-.77-3.71,12.57,12.57,0,0,0-2.61-3.55q-.74-.76-4.2-3.66a41.61,41.61,0,0,1-4.44-4.08,2.48,2.48,0,0,1-.54-1.52,1.86,1.86,0,0,1,.76-1.44,2.92,2.92,0,0,1,1.94-.63q2.46,0,4.81,3.28l4.49-3.95a16.62,16.62,0,0,0-4.67-4Zm11.07,8h-3v5.08h3v18.45h5.9V510.38h3.5V505.3h-3.5v-8.67h-5.9v8.67Zm11.18,23.53h5.86v-9.52l0-1.14c0-3.29.32-5.49.94-6.62a2.73,2.73,0,0,1,2.31-1.69,4.22,4.22,0,0,1,1.71.52l1.83-5.08a5.52,5.52,0,0,0-2.4-.6,5.23,5.23,0,0,0-3,.91,6.23,6.23,0,0,0-2.18,2.65v-3h-5.06v23.53Zm15.19-32.11a3.63,3.63,0,0,0-1.1,2.66,3.81,3.81,0,0,0,1.11,2.76,3.65,3.65,0,0,0,2.69,1.13,3.57,3.57,0,0,0,2.63-1.11,3.88,3.88,0,0,0,0-5.42,3.74,3.74,0,0,0-5.32,0Zm-.3,32.11h5.91V505.3h-5.91v23.53Zm11.27-23.53v32.13h5.86V526.34a11.34,11.34,0,0,0,3.48,2.37,9.86,9.86,0,0,0,3.78.72,10.52,10.52,0,0,0,7.9-3.53,12.34,12.34,0,0,0,3.33-8.79,12.63,12.63,0,0,0-3.23-8.93,10.25,10.25,0,0,0-7.82-3.48,9.83,9.83,0,0,0-4,.8,11,11,0,0,0-3.46,2.4v-2.6Zm16.65,6.78a7.73,7.73,0,0,1,0,10,6,6,0,0,1-4.56,2,6.09,6.09,0,0,1-4.62-1.94,7,7,0,0,1-1.84-5.07,6.85,6.85,0,0,1,1.84-5,6.13,6.13,0,0,1,4.62-1.9,6,6,0,0,1,4.59,1.93Zm25.77-9.37h6.55v26.12h6V497h-9.06l-3.5,5.69Zm24.56,12,4.93,1.1a7,7,0,0,1,1.9-1.49,4.22,4.22,0,0,1,2-.5,4.14,4.14,0,0,1,3.17,1.42,5.63,5.63,0,0,1-.1,7.34,4.58,4.58,0,0,1-3.41,1.45,4.83,4.83,0,0,1-2.65-.77,5.49,5.49,0,0,1-1.94-2.26h-6.35a10.65,10.65,0,0,0,10.81,8.65,10.51,10.51,0,0,0,7.71-3.19A10.7,10.7,0,0,0,557,518.6a10.41,10.41,0,0,0-2.86-7.56,9.64,9.64,0,0,0-7.19-3,7.07,7.07,0,0,0-1,.08,8.71,8.71,0,0,0-1.06.22l1.3-5.77h10.38V497h-14.9l-3.85,17.67Zm37.45,5.16h11v-5.49h-11v5.49Zm31-17.14h6.55v26.12h6V497h-9.06l-3.5,5.69Zm25.68,9.51a29.72,29.72,0,0,0-2,4.59,10.16,10.16,0,0,0-.44,3,9.62,9.62,0,0,0,2.86,6.86,9.94,9.94,0,0,0,17.09-6.93,9.88,9.88,0,0,0-2.83-7.2,9.25,9.25,0,0,0-6.87-2.89l5.56-10.81-5.15-2.58-8.18,16Zm10.37,4.34a4.2,4.2,0,0,1,1.18,3.06,4.24,4.24,0,0,1-1.21,3.11,3.92,3.92,0,0,1-2.9,1.23,3.77,3.77,0,0,1-2.8-1.25,4.31,4.31,0,0,1-1.2-3.09,4.26,4.26,0,0,1,1.15-3.06,3.69,3.69,0,0,1,2.83-1.22,3.92,3.92,0,0,1,2.95,1.22Zm18.71-.11-8.93,12.38h6.74l5.57-7.72,5.6,7.72h6.85l-9-12.46,8-11.07h-6.74l-4.63,6.41-4.65-6.41h-6.85L661,516.45Zm19.64-13.74h6.55v26.12h6V497h-9.06l-3.5,5.69Z"/></g></svg>