<svg id="VC_Strip" data-name="VC Strip" xmlns="http://www.w3.org/2000/svg" viewBox="0 0 1024 1024"><defs><style>.cls-1{fill:#bbb;}.cls-1,.cls-2{stroke:#1d1d1b;stroke-miterlimit:10;}.cls-2{fill:#fff;fill-rule:evenodd;}</style></defs><g id="_25_-_8x1" data-name="25 - 8x1"><rect class="cls-1" x="3.8" y="460.92" width="1016.44" height="102.16"/><polyline class="cls-2" points="728.22 480.11 728.22 543.89 295.82 543.89 295.82 480.11 728.22 480.11"/><path d="M311.25,532.54h7.13l14-38.83h-7.59l-9.91,27.59-9.77-27.59h-7.6l13.75,38.83Zm55.06-37.77a21.92,21.92,0,0,0-9.25-2,21.23,21.23,0,0,0-10.55,2.74,19.54,19.54,0,0,0-7.52,7.26,20.15,20.15,0,0,0-2.62,10.32q0,9,5.76,14.72T357,533.52a22,22,0,0,0,8.74-1.63,27.47,27.47,0,0,0,8.13-5.82l-5-5.23a21.27,21.27,0,0,1-5.85,4.38,14.19,14.19,0,0,1-5.89,1.2,13.77,13.77,0,0,1-6.85-1.72,12.08,12.08,0,0,1-4.78-4.73,13.92,13.92,0,0,1-1.68-6.89,13,13,0,0,1,13.18-13.19q6.6,0,11.87,5.58l5.17-4.93a22,22,0,0,0-7.67-5.77Zm14.35,26.82h13.41v-6.71H380.66v6.71Zm37.17-27.51a12.1,12.1,0,0,0-5.54-1.34,10.69,10.69,0,0,0-7.6,2.89,9.18,9.18,0,0,0-3.08,6.93,10.14,10.14,0,0,0,1.86,5.61q1.84,2.81,8.19,8a28,28,0,0,1,4.31,4,4.44,4.44,0,0,1,1,2.64,3.28,3.28,0,0,1-1.3,2.56,4.73,4.73,0,0,1-3.19,1.11q-3.66,0-6.45-5.15l-6.22,3.75a16.14,16.14,0,0,0,5.28,6.39,12.84,12.84,0,0,0,7.22,2,12.06,12.06,0,0,0,8.62-3.12,10.36,10.36,0,0,0,3.3-7.89,10.84,10.84,0,0,0-.94-4.53,15.64,15.64,0,0,0-3.19-4.34q-.9-.92-5.13-4.46a49.85,49.85,0,0,1-5.42-5,3,3,0,0,1-.66-1.84,2.27,2.27,0,0,1,.93-1.76,3.57,3.57,0,0,1,2.38-.78q3,0,5.87,4l5.47-4.83a20.28,20.28,0,0,0-5.69-4.91Zm13.51,9.74h-3.7V510h3.7v22.51h7.2V510h4.28v-6.21h-4.28V493.24h-7.2v10.58ZM445,532.54h7.15V520.93l0-1.4c0-4,.38-6.71,1.15-8.08s1.7-2.06,2.81-2.06a4.85,4.85,0,0,1,2.08.64l2.25-6.21a6.79,6.79,0,0,0-2.93-.74,6.45,6.45,0,0,0-3.65,1.11,7.77,7.77,0,0,0-2.66,3.25v-3.62H445v28.72Zm18.55-39.19a4.42,4.42,0,0,0-1.34,3.24,4.63,4.63,0,0,0,1.36,3.37,4.41,4.41,0,0,0,3.27,1.38A4.32,4.32,0,0,0,470,500a4.48,4.48,0,0,0,1.35-3.28,4.6,4.6,0,0,0-1.36-3.33,4.55,4.55,0,0,0-6.49,0Zm-.36,39.19h7.2V503.82h-7.2v28.72Zm13.75-28.72v39.23h7.15V529.51a14.32,14.32,0,0,0,4.25,2.89,12,12,0,0,0,4.62.88,12.84,12.84,0,0,0,9.64-4.31,15.06,15.06,0,0,0,4.06-10.73,15.45,15.45,0,0,0-3.93-10.91,12.55,12.55,0,0,0-9.56-4.25,12.15,12.15,0,0,0-4.85,1,13.61,13.61,0,0,0-4.23,2.93v-3.17Zm20.32,8.28a9.4,9.4,0,0,1,0,12.18,7.31,7.31,0,0,1-5.55,2.4,7.49,7.49,0,0,1-5.65-2.36,8.59,8.59,0,0,1-2.24-6.19,8.35,8.35,0,0,1,2.24-6.07,7.53,7.53,0,0,1,5.65-2.32,7.31,7.31,0,0,1,5.59,2.36Zm38-10.68a5.11,5.11,0,0,1,4-1.77,5.22,5.22,0,0,1,3.84,1.47,5,5,0,0,1,1.49,3.71,10.43,10.43,0,0,1-1.44,4.84,35.1,35.1,0,0,1-5.79,7.09l-12,12.24v3.54h26.9v-6.83H538.31l4.36-4.6a40.48,40.48,0,0,0,7.19-9.42,17,17,0,0,0,2-7.44,11.87,11.87,0,0,0-6-10,14,14,0,0,0-15.63,2.11q-3.66,3.6-3.94,9.89h7.2a7.32,7.32,0,0,1,1.69-4.81Zm23.49,13.86,6,1.35A8.91,8.91,0,0,1,567,514.8a5.19,5.19,0,0,1,2.39-.6,5.07,5.07,0,0,1,3.87,1.73,6.91,6.91,0,0,1-.12,9,5.61,5.61,0,0,1-4.17,1.77,6,6,0,0,1-3.24-.94,6.79,6.79,0,0,1-2.36-2.76h-7.76a13,13,0,0,0,13.2,10.56,12.79,12.79,0,0,0,9.41-3.89,13.05,13.05,0,0,0,3.86-9.57,12.7,12.7,0,0,0-3.49-9.23,11.73,11.73,0,0,0-8.78-3.6,8.53,8.53,0,0,0-1.21.09,10.43,10.43,0,0,0-1.3.28l1.59-7.05h12.67v-6.84H563.39l-4.7,21.57Zm45.72,6.31h13.41v-6.71H604.41v6.71Zm59.11-14.1a9.48,9.48,0,0,0,.78-3.86,10.9,10.9,0,0,0-1.49-5.53,10.35,10.35,0,0,0-4.08-4,12.33,12.33,0,0,0-6-1.4,13,13,0,0,0-6.1,1.38,10.1,10.1,0,0,0-4.1,3.88,10.66,10.66,0,0,0-1.47,5.52,10.26,10.26,0,0,0,.89,4.21,12.56,12.56,0,0,0,2.62,3.76,13.51,13.51,0,0,0-4,4.5,11.8,11.8,0,0,0-1.33,5.59,12.21,12.21,0,0,0,1.66,6.35,10.55,10.55,0,0,0,4.44,4.2,16.72,16.72,0,0,0,7.47,1.39,15.8,15.8,0,0,0,7.2-1.44,10.8,10.8,0,0,0,4.5-4.29,12,12,0,0,0,1.68-6.21,11.8,11.8,0,0,0-5.52-10.09,15,15,0,0,0,2.84-4ZM655.69,501a4,4,0,0,1,1.22,3,4.43,4.43,0,0,1-1.2,3.21,4.41,4.41,0,0,1-6.14,0,4.28,4.28,0,0,1-1.24-3.13,4.21,4.21,0,0,1,1.17-3.07,4,4,0,0,1,3-1.2,4.41,4.41,0,0,1,3.19,1.18Zm1.46,16a5.29,5.29,0,0,1,1.74,4,5.05,5.05,0,0,1-1.68,3.92,6.46,6.46,0,0,1-4.5,1.51,6.3,6.3,0,0,1-4.51-1.62,5.24,5.24,0,0,1-1.72-4,5,5,0,0,1,1.82-3.87,6.52,6.52,0,0,1,4.49-1.62,6.18,6.18,0,0,1,4.36,1.62Zm21.64.37-10.9,15.11h8.23l6.79-9.42,6.83,9.42h8.37l-11-15.2,9.75-13.52h-8.23L683,511.65l-5.67-7.83h-8.37l9.87,13.61Z"/><polygon points="702.76 500.66 710.75 500.66 710.75 532.54 718.09 532.54 718.09 493.71 707.03 493.71 702.76 500.66 702.76 500.66"/></g></svg>