<svg id="VDO_Fatron" data-name="VDO Fatron" xmlns="http://www.w3.org/2000/svg" viewBox="0 0 1024 1024"><defs><style>.cls-1{fill:#bbb;}.cls-1,.cls-2,.cls-3,.cls-4{stroke:#1d1d1b;}.cls-1,.cls-3,.cls-4{stroke-miterlimit:10;}.cls-2{fill:none;stroke-linecap:round;stroke-linejoin:round;stroke-width:0.05px;}.cls-3{fill:#fff;fill-rule:evenodd;}</style></defs><g id="_1000mm-No_Diff" data-name="1000mm-No Diff"><rect class="cls-1" x="12.09" y="487" width="1000" height="50"/><rect class="cls-2" x="12.09" y="487" width="1000" height="50"/><polyline class="cls-3" points="770.55 492.7 770.55 531.3 253.63 531.3 253.63 492.7 770.55 492.7"/><path class="cls-4" d="M263.18,523.18l-9.39-24.26h3.48l6.31,17.62c.51,1.42.93,2.74,1.27,4,.38-1.33.81-2.65,1.31-4l6.54-17.62H276l-9.47,24.26Zm15.66,0V498.92h8.35a20.4,20.4,0,0,1,4.31.34,8.2,8.2,0,0,1,3.56,1.74,9.88,9.88,0,0,1,2.87,4.15,16.33,16.33,0,0,1,.95,5.76,16.91,16.91,0,0,1-.65,4.9,11.94,11.94,0,0,1-1.65,3.53,8.74,8.74,0,0,1-2.21,2.21,9,9,0,0,1-2.89,1.21,16.27,16.27,0,0,1-3.89.42Zm3.2-2.86h5.18a12.45,12.45,0,0,0,3.76-.45,5.39,5.39,0,0,0,2.17-1.26,7.46,7.46,0,0,0,1.78-3.07,14.86,14.86,0,0,0,.64-4.68,11.31,11.31,0,0,0-1.25-5.85,6.27,6.27,0,0,0-3-2.74,12.57,12.57,0,0,0-4.15-.5H282v18.55Zm20.26-9q0-6,3.24-9.45a11,11,0,0,1,8.37-3.42,11.57,11.57,0,0,1,6,1.61,10.45,10.45,0,0,1,4.11,4.47,15.47,15.47,0,0,1-.07,13.1,10.17,10.17,0,0,1-4.22,4.41,12.13,12.13,0,0,1-5.89,1.49,11.44,11.44,0,0,1-6.11-1.65,10.68,10.68,0,0,1-4.09-4.51,13.79,13.79,0,0,1-1.39-6Zm3.31,0a9.71,9.71,0,0,0,2.36,6.9,8.22,8.22,0,0,0,11.87,0q2.34-2.53,2.34-7.22a12.55,12.55,0,0,0-1-5.17,7.74,7.74,0,0,0-2.93-3.42,7.94,7.94,0,0,0-4.32-1.22,8.19,8.19,0,0,0-5.86,2.34q-2.46,2.34-2.46,7.82Z"/><path class="cls-4" d="M338,515.37l3-.26a6.86,6.86,0,0,0,1,3,5.5,5.5,0,0,0,2.44,1.89,9.83,9.83,0,0,0,7,.18,4.56,4.56,0,0,0,2.09-1.5,3.48,3.48,0,0,0,.69-2.08,3.11,3.11,0,0,0-.67-2,5,5,0,0,0-2.18-1.43c-.65-.25-2.09-.64-4.32-1.18a21.93,21.93,0,0,1-4.68-1.51,6.53,6.53,0,0,1-2.59-2.27,5.51,5.51,0,0,1-.85-3,6.14,6.14,0,0,1,1-3.44,6.41,6.41,0,0,1,3-2.43,11.6,11.6,0,0,1,4.45-.83,12.09,12.09,0,0,1,4.75.87,6.82,6.82,0,0,1,3.17,2.56,7.27,7.27,0,0,1,1.19,3.82l-3.07.24a4.89,4.89,0,0,0-1.68-3.46,6.53,6.53,0,0,0-4.22-1.17,6.82,6.82,0,0,0-4.25,1.07A3.2,3.2,0,0,0,342,505a2.76,2.76,0,0,0,1,2.15c.61.56,2.23,1.14,4.83,1.73a32.77,32.77,0,0,1,5.38,1.54,7.3,7.3,0,0,1,3.12,2.47,6,6,0,0,1,1,3.44,6.63,6.63,0,0,1-1.1,3.64,7.29,7.29,0,0,1-3.18,2.66,11,11,0,0,1-4.67,1,14,14,0,0,1-5.52-1,7.72,7.72,0,0,1-3.48-2.88,8.11,8.11,0,0,1-1.33-4.36Zm40.93-.72,3.2.81a10.85,10.85,0,0,1-3.62,6,10,10,0,0,1-6.4,2.07,11.54,11.54,0,0,1-6.37-1.59,10,10,0,0,1-3.73-4.63,16.39,16.39,0,0,1-1.28-6.5,14.37,14.37,0,0,1,1.44-6.61,9.83,9.83,0,0,1,4.11-4.28,12,12,0,0,1,5.87-1.47,9.89,9.89,0,0,1,6.11,1.86,9.6,9.6,0,0,1,3.45,5.21l-3.15.74a7.56,7.56,0,0,0-2.44-3.85,6.54,6.54,0,0,0-4-1.21,7.83,7.83,0,0,0-4.66,1.34,7.16,7.16,0,0,0-2.64,3.6,15.64,15.64,0,0,0,.14,10.05,6.74,6.74,0,0,0,2.8,3.45,7.87,7.87,0,0,0,4.12,1.14,6.89,6.89,0,0,0,4.55-1.55,8,8,0,0,0,2.53-4.62Zm7.21,8.53V498.92h17.54v2.85H389.31v7.44h13.44v2.85H389.31v8.26h14.9v2.86Zm22.52,0V498.92h9.14a21.34,21.34,0,0,1,3.68.23,7.34,7.34,0,0,1,3,1.13,6,6,0,0,1,1.94,2.34,7.94,7.94,0,0,1-1.23,8.55c-1.32,1.42-3.68,2.14-7.11,2.14h-6.22v9.87Zm3.2-12.73h6.27c2.07,0,3.54-.38,4.41-1.16a4.13,4.13,0,0,0,1.31-3.26,4.4,4.4,0,0,0-.77-2.61,3.62,3.62,0,0,0-2-1.43,13.83,13.83,0,0,0-3-.22h-6.2v8.68Zm25.54,12.73V501.77h-8v-2.85h19.18v2.85h-8v21.41Zm14.56,0V498.92h10.74a14.14,14.14,0,0,1,4.92.65,5.36,5.36,0,0,1,2.7,2.31,6.9,6.9,0,0,1,1,3.66,6.11,6.11,0,0,1-1.67,4.35,8.46,8.46,0,0,1-5.16,2.25,8.51,8.51,0,0,1,1.94,1.21,16.65,16.65,0,0,1,2.65,3.23l4.2,6.6h-4l-3.21-5c-.94-1.45-1.71-2.57-2.31-3.34a7.41,7.41,0,0,0-1.63-1.62,5.08,5.08,0,0,0-1.46-.65,10.55,10.55,0,0,0-1.79-.11h-3.72v10.77Zm3.2-13.55H462a10.11,10.11,0,0,0,3.44-.46,3.64,3.64,0,0,0,1.89-1.46,3.91,3.91,0,0,0,.64-2.18,3.62,3.62,0,0,0-1.25-2.83,5.81,5.81,0,0,0-3.94-1.11h-7.67v8Zm20.2,1.73q0-6,3.24-9.45a11,11,0,0,1,8.37-3.42A11.63,11.63,0,0,1,493,500.1a10.58,10.58,0,0,1,4.11,4.47,14.54,14.54,0,0,1,1.41,6.5,14.32,14.32,0,0,1-1.49,6.6,10.21,10.21,0,0,1-4.21,4.41,12.13,12.13,0,0,1-5.89,1.49,11.5,11.5,0,0,1-6.12-1.65,10.72,10.72,0,0,1-4.08-4.51,13.79,13.79,0,0,1-1.39-6Zm3.31,0a9.7,9.7,0,0,0,2.35,6.9,8.22,8.22,0,0,0,11.87,0q2.34-2.53,2.34-7.22a12.39,12.39,0,0,0-1-5.17,7.68,7.68,0,0,0-2.93-3.42,7.91,7.91,0,0,0-4.32-1.22,8.2,8.2,0,0,0-5.86,2.34q-2.44,2.34-2.45,7.82Zm24,11.78V498.92h3.28l12.72,19v-19h3.07v24.26h-3.28l-12.72-19v19Zm43.86,0h-3v-19a15.62,15.62,0,0,1-2.82,2.05,20.34,20.34,0,0,1-3.14,1.54v-2.88a17.8,17.8,0,0,0,4.37-2.84,11.35,11.35,0,0,0,2.65-3.24h1.93v24.34Zm7.59-12a22.19,22.19,0,0,1,.89-6.92,8.5,8.5,0,0,1,2.63-4,6.76,6.76,0,0,1,4.39-1.41,7.23,7.23,0,0,1,3.43.78,6.52,6.52,0,0,1,2.44,2.26,12.61,12.61,0,0,1,1.5,3.61,24.08,24.08,0,0,1,.54,5.72,22.4,22.4,0,0,1-.87,6.89,8.58,8.58,0,0,1-2.63,4,7.42,7.42,0,0,1-9.92-1.08q-2.4-3-2.4-9.86Zm3.07,0c0,4,.47,6.63,1.4,7.95a4,4,0,0,0,6.89,0c.93-1.32,1.39-4,1.39-7.94s-.46-6.63-1.39-7.94a4.14,4.14,0,0,0-3.48-2,3.84,3.84,0,0,0-3.28,1.73c-1,1.48-1.53,4.2-1.53,8.18Z"/><polygon class="cls-4" points="582.17 515.9 582.17 512.91 591.35 512.91 591.35 515.9 582.17 515.9 582.17 515.9"/><path class="cls-4" d="M604.37,523.18V498.92h3.28l12.73,19v-19h3.06v24.26h-3.28l-12.72-19v19Zm23-8.8q0-4.89,2.71-7.24a8.13,8.13,0,0,1,5.51-1.95,7.86,7.86,0,0,1,5.91,2.37,9.08,9.08,0,0,1,2.3,6.57,11.61,11.61,0,0,1-1,5.34,7.24,7.24,0,0,1-3,3,8.7,8.7,0,0,1-4.24,1.07,7.86,7.86,0,0,1-6-2.37q-2.26-2.37-2.27-6.82Zm3.07,0a7.56,7.56,0,0,0,1.46,5.06,4.7,4.7,0,0,0,3.69,1.68,4.64,4.64,0,0,0,3.67-1.69,7.67,7.67,0,0,0,1.47-5.15,7.31,7.31,0,0,0-1.47-4.94,4.88,4.88,0,0,0-7.36,0,7.52,7.52,0,0,0-1.46,5.05Z"/><path class="cls-4" d="M657,523.18V498.92h8.3a20.3,20.3,0,0,1,4.3.34,8.09,8.09,0,0,1,3.53,1.74,9.86,9.86,0,0,1,2.86,4.15,16.34,16.34,0,0,1,.94,5.76,16.92,16.92,0,0,1-.64,4.9,11.94,11.94,0,0,1-1.65,3.53,8.68,8.68,0,0,1-2.19,2.21,8.81,8.81,0,0,1-2.88,1.21,16,16,0,0,1-3.87.42Zm3.19-2.86h5.14a12.42,12.42,0,0,0,3.75-.45,5.42,5.42,0,0,0,2.16-1.26,7.68,7.68,0,0,0,1.77-3.07,15.18,15.18,0,0,0,.63-4.68,11.31,11.31,0,0,0-1.24-5.85,6.29,6.29,0,0,0-3-2.74,12.43,12.43,0,0,0-4.13-.5h-5.06v18.55Zm20.76-18v-3.38h3v3.38Zm0,20.88v-17.6h3v17.6Zm8.15,0V507.91h-2.6v-2.33h2.6v-1.86a8.1,8.1,0,0,1,.32-2.62,3.73,3.73,0,0,1,1.5-1.86,5.42,5.42,0,0,1,3-.72,14.33,14.33,0,0,1,2.77.3l-.44,2.59a10,10,0,0,0-1.75-.17,2.61,2.61,0,0,0-1.91.58,3.12,3.12,0,0,0-.56,2.15v1.61h3.4v2.33h-3.37v15.27Zm9.36,0V507.91h-2.61v-2.33h2.61v-1.86a8.15,8.15,0,0,1,.31-2.62,3.75,3.75,0,0,1,1.51-1.86,5.39,5.39,0,0,1,3-.72,14.31,14.31,0,0,1,2.76.3l-.44,2.59a10,10,0,0,0-1.75-.17,2.63,2.63,0,0,0-1.91.58,3.12,3.12,0,0,0-.56,2.15v1.61h3.4v2.33h-3.37v15.27Zm20.08,0v-2.59a6.37,6.37,0,0,1-5.54,3,7.1,7.1,0,0,1-2.88-.59,4.8,4.8,0,0,1-2-1.5,5.6,5.6,0,0,1-.91-2.21,15.45,15.45,0,0,1-.18-2.79v-10.9h3v9.76a17.6,17.6,0,0,0,.18,3.15,3.16,3.16,0,0,0,1.18,1.85,3.69,3.69,0,0,0,2.23.67,4.83,4.83,0,0,0,2.5-.69,3.81,3.81,0,0,0,1.64-1.87,9.32,9.32,0,0,0,.49-3.44v-9.43h3v17.6Zm6.09-5.24,2.92-.48a4.07,4.07,0,0,0,1.38,2.71,4.76,4.76,0,0,0,3.15.94,4.68,4.68,0,0,0,3-.83,2.5,2.5,0,0,0,1-2,1.82,1.82,0,0,0-.87-1.59,12.57,12.57,0,0,0-3-1,27.58,27.58,0,0,1-4.52-1.44,4.33,4.33,0,0,1-2.56-4,4.62,4.62,0,0,1,.53-2.18,4.89,4.89,0,0,1,1.46-1.67,6.18,6.18,0,0,1,1.89-.87,8.8,8.8,0,0,1,2.56-.35,10,10,0,0,1,3.61.59,4.9,4.9,0,0,1,2.3,1.61,6.15,6.15,0,0,1,1,2.72l-2.89.39a3.23,3.23,0,0,0-1.15-2.1,4.21,4.21,0,0,0-2.68-.75,4.83,4.83,0,0,0-2.91.67,2,2,0,0,0-.87,1.59,1.64,1.64,0,0,0,.36,1,2.59,2.59,0,0,0,1.14.79c.29.11,1.16.37,2.61.76a37,37,0,0,1,4.39,1.39A4.19,4.19,0,0,1,739.2,518a5,5,0,0,1-.86,2.81,5.6,5.6,0,0,1-2.5,2,9.07,9.07,0,0,1-3.69.72,8.18,8.18,0,0,1-5.2-1.42,6.62,6.62,0,0,1-2.28-4.21Zm30-.43,3.07.4a7.54,7.54,0,0,1-2.69,4.18A9.07,9.07,0,0,1,744,521.2a9.33,9.33,0,0,1-2.25-6.67,9.77,9.77,0,0,1,2.27-6.89,7.66,7.66,0,0,1,5.9-2.45,7.44,7.44,0,0,1,5.72,2.4,9.57,9.57,0,0,1,2.23,6.75c0,.18,0,.44,0,.79h-13a6.76,6.76,0,0,0,1.63,4.44,4.8,4.8,0,0,0,3.65,1.54,4.47,4.47,0,0,0,2.78-.86,5.65,5.65,0,0,0,1.83-2.74Zm-9.74-4.84h9.77a5.89,5.89,0,0,0-1.12-3.31,4.54,4.54,0,0,0-3.67-1.71,4.73,4.73,0,0,0-3.44,1.36,5.45,5.45,0,0,0-1.54,3.66Zm16.46,10.51v-17.6h2.69v2.66a7.28,7.28,0,0,1,1.88-2.46,3.24,3.24,0,0,1,1.9-.59,5.83,5.83,0,0,1,3,.95l-1,2.77a4.16,4.16,0,0,0-2.17-.65,2.78,2.78,0,0,0-1.74.58,3.2,3.2,0,0,0-1.1,1.64,11.66,11.66,0,0,0-.49,3.48v9.22Z"/></g></svg>