<svg id="VC_Grid_-_Without_Labels" data-name="VC Grid - Without Labels" xmlns="http://www.w3.org/2000/svg" viewBox="0 0 1024 1024"><defs><style>.cls-1{fill:#bbb;stroke:#1d1d1b;stroke-miterlimit:10;fill-rule:evenodd;}</style></defs><g id="_30_-_8x8" data-name="30 - 8x8"><path class="cls-1" d="M1014.05,1014.05V10H10v1004.1h1004.1M740.21,877.13h91.28v91.28H740.21V877.13m-273.85,0h91.28v91.28H466.36V877.13m-273.85,0H283.8v91.28H192.51V877.13M877.13,740.2h91.28v91.29H877.13V740.2m-273.85,0h91.28v91.29H603.28V740.2m-273.84,0h91.28v91.29H329.44V740.2m-273.85,0h91.28v91.29H55.59V740.2M740.21,603.28h91.28v91.28H740.21V603.28m-547.7,0H283.8v91.28H192.51V603.28M877.13,466.36h91.28v91.28H877.13V466.36m-821.54,0h91.28v91.28H55.59V466.36M740.21,329.44h91.28v91.28H740.21V329.44m-547.7,0H283.8v91.28H192.51V329.44M877.13,192.51h91.28V283.8H877.13V192.51m-273.85,0h91.28V283.8H603.28V192.51m-273.84,0h91.28V283.8H329.44V192.51m-273.85,0h91.28V283.8H55.59V192.51M740.21,55.59h91.28v91.28H740.21V55.59m-273.85,0h91.28v91.28H466.36V55.59m-273.85,0H283.8v91.28H192.51V55.59m-136.92,0h91.28v91.28H55.59V55.59m273.85,0h91.28v91.28H329.44V55.59m273.84,0h91.28v91.28H603.28V55.59m273.85,0h91.28v91.28H877.13V55.59M192.51,192.51H283.8V283.8H192.51V192.51m273.85,0h91.28V283.8H466.36V192.51m273.85,0h91.28V283.8H740.21V192.51M55.59,329.44h91.28v91.28H55.59V329.44m821.54,0h91.28v91.28H877.13V329.44M192.51,466.36H283.8v91.28H192.51V466.36m547.7,0h91.28v91.28H740.21V466.36M55.59,603.28h91.28v91.28H55.59V603.28m821.54,0h91.28v91.28H877.13V603.28M192.51,740.2H283.8v91.29H192.51V740.2m273.85,0h91.28v91.29H466.36V740.2m273.85,0h91.28v91.29H740.21V740.2M55.59,877.13h91.28v91.28H55.59V877.13m273.85,0h91.28v91.28H329.44V877.13m273.84,0h91.28v91.28H603.28V877.13m273.85,0h91.28v91.28H877.13V877.13"/></g></svg>