<svg id="VC_Strip" data-name="VC Strip" xmlns="http://www.w3.org/2000/svg" viewBox="0 0 1024 1024"><defs><style>.cls-1{fill:#bbb;}.cls-1,.cls-2{stroke:#1d1d1b;stroke-miterlimit:10;}.cls-2{fill:#fff;fill-rule:evenodd;}</style></defs><g id="_15_-_32x1" data-name="15 - 32x1"><rect class="cls-1" x="2.38" y="491.79" width="1019.25" height="40.43"/><polyline class="cls-2" points="608.37 498.71 608.37 525.29 415.63 525.29 415.63 498.71 608.37 498.71"/><path d="M422.06,520.56h3l5.83-16.18h-3.16l-4.13,11.49-4.07-11.49h-3.16l5.73,16.18ZM445,504.82a9.21,9.21,0,0,0-3.85-.84,8.85,8.85,0,0,0-4.39,1.14,8.15,8.15,0,0,0-3.14,3,8.41,8.41,0,0,0-1.09,4.3,8.26,8.26,0,0,0,2.4,6.13,8.35,8.35,0,0,0,6.17,2.39,9.23,9.23,0,0,0,3.64-.67,11.26,11.26,0,0,0,3.39-2.43L446,515.68a8.87,8.87,0,0,1-2.44,1.83,5.93,5.93,0,0,1-2.45.5,5.75,5.75,0,0,1-2.85-.72,5,5,0,0,1-2-2,5.76,5.76,0,0,1-.7-2.87,5.4,5.4,0,0,1,5.49-5.49,6.64,6.64,0,0,1,4.94,2.32l2.16-2a9.21,9.21,0,0,0-3.2-2.41ZM451,516h5.59V513.2H451V516Zm15.48-11.45a4.89,4.89,0,0,0-2.3-.56,4.47,4.47,0,0,0-3.17,1.2,3.83,3.83,0,0,0-1.28,2.89,4.25,4.25,0,0,0,.77,2.33,18.25,18.25,0,0,0,3.42,3.33,11.41,11.41,0,0,1,1.79,1.68,1.86,1.86,0,0,1,.41,1.1,1.39,1.39,0,0,1-.54,1.07,2,2,0,0,1-1.33.46c-1,0-1.91-.72-2.69-2.14l-2.59,1.56a6.69,6.69,0,0,0,2.2,2.66,5.36,5.36,0,0,0,3,.84,5.05,5.05,0,0,0,3.59-1.29,4.35,4.35,0,0,0,1.37-3.29,4.57,4.57,0,0,0-.39-1.89,6.54,6.54,0,0,0-1.33-1.81c-.25-.25-1-.87-2.13-1.85a21.61,21.61,0,0,1-2.26-2.08,1.28,1.28,0,0,1-.28-.77.93.93,0,0,1,.39-.73,1.48,1.48,0,0,1,1-.33,3.25,3.25,0,0,1,2.45,1.67l2.28-2a8.3,8.3,0,0,0-2.38-2Zm5.63,4h-1.54v2.59h1.54v9.38h3v-9.38h1.78v-2.59h-1.78v-4.41h-3v4.41Zm5.69,12h3v-5.42a7.89,7.89,0,0,1,.47-3.37,1.38,1.38,0,0,1,1.17-.86,2,2,0,0,1,.87.27l.94-2.59a2.88,2.88,0,0,0-1.22-.3,2.66,2.66,0,0,0-1.52.46,3.27,3.27,0,0,0-1.11,1.35v-1.51h-2.57v12Zm7.73-16.33a1.8,1.8,0,0,0-.56,1.35,1.9,1.9,0,0,0,.56,1.4,1.83,1.83,0,0,0,1.37.58,1.8,1.8,0,0,0,1.33-.57,1.83,1.83,0,0,0,.56-1.37,1.91,1.91,0,0,0-.56-1.38,1.85,1.85,0,0,0-1.36-.57,1.8,1.8,0,0,0-1.34.56Zm-.16,16.33h3v-12h-3v12Zm5.73-12v16.34h3v-5.64a6,6,0,0,0,1.77,1.21,5.14,5.14,0,0,0,1.93.37,5.34,5.34,0,0,0,4-1.8,6.27,6.27,0,0,0,1.69-4.47,6.38,6.38,0,0,0-1.64-4.54,5.21,5.21,0,0,0-4-1.77,5.09,5.09,0,0,0-2,.4,5.64,5.64,0,0,0-1.76,1.22v-1.32Zm8.47,3.45a3.93,3.93,0,0,1,0,5.08,3.06,3.06,0,0,1-2.31,1,3.12,3.12,0,0,1-2.36-1,3.58,3.58,0,0,1-.93-2.58,3.51,3.51,0,0,1,.93-2.53,3.17,3.17,0,0,1,2.36-1,3.08,3.08,0,0,1,2.33,1Zm13.11-4.77H516v13.29h3V504.38h-4.6l-1.78,2.89Zm12.49,6.1,2.5.56a3.63,3.63,0,0,1,1-.76,2.08,2.08,0,0,1,1-.25,2.11,2.11,0,0,1,1.61.72,2.85,2.85,0,0,1-.05,3.73,2.31,2.31,0,0,1-1.73.74,2.45,2.45,0,0,1-1.35-.39,2.81,2.81,0,0,1-1-1.15h-3.23a5.41,5.41,0,0,0,5.5,4.39,5.31,5.31,0,0,0,3.92-1.62,5.45,5.45,0,0,0,1.61-4,5.27,5.27,0,0,0-1.46-3.85,4.88,4.88,0,0,0-3.65-1.5,4.75,4.75,0,0,0-.51,0l-.54.12.66-2.94h5.28v-2.85h-7.58l-2,9Zm19,2.62h5.59V513.2h-5.59V516ZM563,507.33a2,2,0,0,1,1.2-.4,1.7,1.7,0,0,1,1.21.44,1.46,1.46,0,0,1,.46,1.09,1.7,1.7,0,0,1-.3,1,2.12,2.12,0,0,1-.85.71,4.8,4.8,0,0,1-1.66.34v2.64a4.49,4.49,0,0,1,2.76.78,2.3,2.3,0,0,1,1,1.86,2.27,2.27,0,0,1-.71,1.7,2.67,2.67,0,0,1-3.49.08,3,3,0,0,1-.88-1.87h-3a5.57,5.57,0,0,0,1.62,3.88,5.31,5.31,0,0,0,3.84,1.42,5.71,5.71,0,0,0,4.09-1.51,4.89,4.89,0,0,0,1.61-3.69,4.17,4.17,0,0,0-.83-2.58,4.44,4.44,0,0,0-2.31-1.53,4.23,4.23,0,0,0,1.71-1.44,3.51,3.51,0,0,0,.59-2,4,4,0,0,0-1.35-3,4.68,4.68,0,0,0-3.33-1.26,4.81,4.81,0,0,0-5,4.39h3a2,2,0,0,1,.74-1Zm12.23.26a2.12,2.12,0,0,1,1.65-.73,2.19,2.19,0,0,1,1.6.61,2.07,2.07,0,0,1,.62,1.54,4.34,4.34,0,0,1-.6,2,14.69,14.69,0,0,1-2.42,3l-5,5.1v1.48h11.21v-2.85h-5.77l1.82-1.91a16.66,16.66,0,0,0,3-3.93,7,7,0,0,0,.82-3.1,4.7,4.7,0,0,0-.67-2.38,4.58,4.58,0,0,0-1.81-1.79,5.21,5.21,0,0,0-2.6-.62,5.35,5.35,0,0,0-3.91,1.5,5.93,5.93,0,0,0-1.64,4.11h3a3.06,3.06,0,0,1,.71-2Zm12.53,6.67-4.54,6.3h3.43l2.83-3.93,2.85,3.93h3.48l-4.59-6.34,4.06-5.63h-3.43l-2.35,3.26-2.36-3.26h-3.49l4.11,5.67Zm10-7h3.33v13.29h3.06V504.38h-4.61l-1.78,2.89Z"/></g></svg>