<svg id="VDO_Fatron" data-name="VDO Fatron" xmlns="http://www.w3.org/2000/svg" viewBox="0 0 1024 1024"><defs><style>.cls-1{fill:#bbb;}.cls-1,.cls-2,.cls-3,.cls-4{stroke:#000;}.cls-1,.cls-3,.cls-4{stroke-miterlimit:10;}.cls-2{fill:none;stroke-linecap:round;stroke-linejoin:round;stroke-width:0.05px;}.cls-3{fill:#fff;}</style></defs><rect class="cls-1" x="12" y="472.1" width="1000" height="79.81"/><rect class="cls-2" x="12" y="472.1" width="1000" height="79.81"/><rect class="cls-3" x="212" y="487.76" width="600" height="48.47"/><rect class="cls-2" x="212" y="487.76" width="600" height="48.47"/><path class="cls-4" d="M308.26,523.18l-9.39-24.26h3.48l6.31,17.62c.51,1.42.93,2.74,1.27,4,.38-1.33.81-2.65,1.31-4l6.54-17.62h3.28l-9.47,24.26Zm15.66,0V498.92h8.35a20.4,20.4,0,0,1,4.31.34,8.2,8.2,0,0,1,3.56,1.74,9.88,9.88,0,0,1,2.87,4.15,16.33,16.33,0,0,1,.95,5.76,16.91,16.91,0,0,1-.65,4.9,11.94,11.94,0,0,1-1.65,3.53,8.74,8.74,0,0,1-2.21,2.21,9,9,0,0,1-2.89,1.21,16.27,16.27,0,0,1-3.89.42Zm3.2-2.86h5.18a12.45,12.45,0,0,0,3.76-.45,5.39,5.39,0,0,0,2.17-1.26,7.57,7.57,0,0,0,1.78-3.07,14.86,14.86,0,0,0,.64-4.68A11.31,11.31,0,0,0,339.4,505a6.27,6.27,0,0,0-3-2.74,12.57,12.57,0,0,0-4.15-.5h-5.1v18.55Zm20.26-9q0-6,3.24-9.45a11,11,0,0,1,8.37-3.42A11.57,11.57,0,0,1,365,500.1a10.45,10.45,0,0,1,4.11,4.47,14.54,14.54,0,0,1,1.42,6.5,14.32,14.32,0,0,1-1.49,6.6,10.17,10.17,0,0,1-4.22,4.41,12.13,12.13,0,0,1-5.89,1.49,11.44,11.44,0,0,1-6.11-1.65,10.68,10.68,0,0,1-4.09-4.51,13.79,13.79,0,0,1-1.39-6Zm3.31,0a9.71,9.71,0,0,0,2.36,6.9,8.22,8.22,0,0,0,11.87,0q2.34-2.53,2.34-7.22a12.55,12.55,0,0,0-1-5.17,7.74,7.74,0,0,0-2.93-3.42,7.94,7.94,0,0,0-4.32-1.22,8.23,8.23,0,0,0-5.87,2.34q-2.44,2.34-2.45,7.82Z"/><path class="cls-4" d="M384.29,523.18V498.92h16.35v2.85H387.49v7.52h11.38v2.85H387.49v11Zm31.65-2.2a11.18,11.18,0,0,1-3.2,2,9.24,9.24,0,0,1-3.3.58,6.44,6.44,0,0,1-4.47-1.41,4.65,4.65,0,0,1-1.57-3.62,4.83,4.83,0,0,1,.59-2.36,5,5,0,0,1,1.55-1.72,7.37,7.37,0,0,1,2.15-1,20,20,0,0,1,2.66-.45,27.39,27.39,0,0,0,5.34-1c0-.41,0-.67,0-.78a3.31,3.31,0,0,0-.85-2.57,5,5,0,0,0-3.42-1,5.35,5.35,0,0,0-3.13.73,4.49,4.49,0,0,0-1.49,2.6l-2.91-.4a7.07,7.07,0,0,1,1.31-3,5.86,5.86,0,0,1,2.64-1.77,12,12,0,0,1,4-.61,10.74,10.74,0,0,1,3.67.52,5,5,0,0,1,2.08,1.33,4.78,4.78,0,0,1,.93,2,16.75,16.75,0,0,1,.15,2.75v4a44.84,44.84,0,0,0,.18,5.27,6.86,6.86,0,0,0,.72,2.11h-3.12A6.77,6.77,0,0,1,416,521Zm-.23-6.64a22.33,22.33,0,0,1-4.91,1.13,11.23,11.23,0,0,0-2.62.59,2.66,2.66,0,0,0-1.18,1,2.49,2.49,0,0,0-.42,1.42,2.53,2.53,0,0,0,.91,2,3.9,3.9,0,0,0,2.65.79,6.26,6.26,0,0,0,3.09-.75,4.7,4.7,0,0,0,2-2.07,7.22,7.22,0,0,0,.48-3l0-1.09Zm14,6.18.4,2.63a10.8,10.8,0,0,1-2.25.26,5.09,5.09,0,0,1-2.51-.51,2.92,2.92,0,0,1-1.26-1.35,10.81,10.81,0,0,1-.36-3.52V507.91h-2.19v-2.33h2.19v-4.35l3-1.78v6.13h3v2.33h-3V518.2a5,5,0,0,0,.16,1.64,1.19,1.19,0,0,0,.51.58,2,2,0,0,0,1,.22,9.27,9.27,0,0,0,1.31-.12Zm2.86,2.66v-17.6h2.7v2.66a7.27,7.27,0,0,1,1.89-2.46,3.29,3.29,0,0,1,1.91-.59,5.84,5.84,0,0,1,3.05.95l-1,2.77a4.16,4.16,0,0,0-2.18-.65,2.83,2.83,0,0,0-1.75.58,3.26,3.26,0,0,0-1.1,1.64,11.66,11.66,0,0,0-.5,3.48v9.22Zm10.21-8.8q0-4.89,2.7-7.24a8.17,8.17,0,0,1,5.52-1.95,7.86,7.86,0,0,1,5.91,2.37,9.08,9.08,0,0,1,2.29,6.57,11.62,11.62,0,0,1-1,5.34,7.21,7.21,0,0,1-3,3,8.63,8.63,0,0,1-4.23,1.07,7.85,7.85,0,0,1-5.95-2.37c-1.52-1.58-2.27-3.85-2.27-6.82Zm3.06,0a7.51,7.51,0,0,0,1.47,5.06,4.7,4.7,0,0,0,3.69,1.68,4.65,4.65,0,0,0,3.67-1.69,7.67,7.67,0,0,0,1.47-5.15,7.31,7.31,0,0,0-1.48-4.94,4.87,4.87,0,0,0-7.35,0,7.46,7.46,0,0,0-1.47,5.05Zm16.83,8.81v-17.6h2.7v2.5a6.31,6.31,0,0,1,5.59-2.89,7.35,7.35,0,0,1,2.92.57,4.6,4.6,0,0,1,2,1.5,5.6,5.6,0,0,1,.92,2.2,17,17,0,0,1,.17,2.9v10.82h-3v-10.7a7.8,7.8,0,0,0-.35-2.72,2.78,2.78,0,0,0-1.23-1.44,3.89,3.89,0,0,0-2.07-.54,4.79,4.79,0,0,0-3.28,1.21c-.92.8-1.38,2.33-1.38,4.58v9.61Zm43-2.86v2.86h-16a5.18,5.18,0,0,1,.34-2.07,10.93,10.93,0,0,1,2-3.23,31.47,31.47,0,0,1,3.9-3.66,33.69,33.69,0,0,0,5.33-5.14,6.13,6.13,0,0,0,1.39-3.59,4,4,0,0,0-1.26-3,4.58,4.58,0,0,0-3.3-1.21,4.64,4.64,0,0,0-3.44,1.29,4.88,4.88,0,0,0-1.31,3.57l-3.07-.31a7.52,7.52,0,0,1,2.37-5.22,8.07,8.07,0,0,1,5.51-1.79,7.68,7.68,0,0,1,5.53,1.93,6.35,6.35,0,0,1,2,4.8,7.23,7.23,0,0,1-.6,2.86,10.9,10.9,0,0,1-2,3,48.72,48.72,0,0,1-4.58,4.26q-2.68,2.25-3.44,3.06a9.43,9.43,0,0,0-1.26,1.61Zm3.18-9.11a22.23,22.23,0,0,1,.88-6.92,8.57,8.57,0,0,1,2.63-4,6.79,6.79,0,0,1,4.4-1.41,7.26,7.26,0,0,1,3.43.78,6.49,6.49,0,0,1,2.43,2.26,12.07,12.07,0,0,1,1.5,3.61,23.49,23.49,0,0,1,.55,5.72,22.07,22.07,0,0,1-.88,6.89,8.56,8.56,0,0,1-2.62,4,6.77,6.77,0,0,1-4.41,1.42,6.66,6.66,0,0,1-5.51-2.5q-2.4-3-2.4-9.86Zm3.07,0c0,4,.46,6.63,1.39,7.95a4,4,0,0,0,6.89,0c.93-1.32,1.4-4,1.4-7.94s-.47-6.63-1.39-7.94a4.14,4.14,0,0,0-3.49-2A3.82,3.82,0,0,0,513.5,503c-1,1.48-1.53,4.2-1.53,8.18Zm24.79,4.7v-3h9.16v3Z"/><path class="cls-4" d="M559.17,523.18V498.92h3.29l12.73,19v-19h3.07v24.26H575l-12.74-19v19Zm23-8.8c0-3.26.91-5.67,2.71-7.24a8.17,8.17,0,0,1,5.52-1.95,7.87,7.87,0,0,1,5.92,2.37,9.08,9.08,0,0,1,2.3,6.57,11.61,11.61,0,0,1-1,5.34,7.21,7.21,0,0,1-3,3,8.67,8.67,0,0,1-4.24,1.07,7.9,7.9,0,0,1-6-2.37q-2.27-2.37-2.27-6.82Zm3.07,0a7.51,7.51,0,0,0,1.47,5.06,4.87,4.87,0,0,0,7.37,0,7.67,7.67,0,0,0,1.47-5.15,7.31,7.31,0,0,0-1.48-4.94,4.88,4.88,0,0,0-7.36,0,7.46,7.46,0,0,0-1.47,5.05Z"/><path class="cls-4" d="M611.83,523.18V498.92h8.31a20.26,20.26,0,0,1,4.29.34A8.09,8.09,0,0,1,628,501a9.86,9.86,0,0,1,2.86,4.15,16.34,16.34,0,0,1,.94,5.76,16.92,16.92,0,0,1-.64,4.9,12.19,12.19,0,0,1-1.64,3.53,8.71,8.71,0,0,1-2.2,2.21,8.81,8.81,0,0,1-2.88,1.21,16,16,0,0,1-3.87.42Zm3.19-2.86h5.14a12.42,12.42,0,0,0,3.75-.45,5.42,5.42,0,0,0,2.16-1.26,7.56,7.56,0,0,0,1.77-3.07,15.18,15.18,0,0,0,.63-4.68,11.31,11.31,0,0,0-1.24-5.85,6.29,6.29,0,0,0-3-2.74,12.39,12.39,0,0,0-4.13-.5H615v18.55Zm20.76-18v-3.38h3v3.38Zm0,20.88v-17.6h3v17.6Zm8.15,0V507.91h-2.6v-2.33h2.6v-1.86a8.1,8.1,0,0,1,.32-2.62,3.73,3.73,0,0,1,1.5-1.86,5.43,5.43,0,0,1,3-.72,14.31,14.31,0,0,1,2.76.3l-.44,2.59a10,10,0,0,0-1.75-.17,2.63,2.63,0,0,0-1.91.58,3.12,3.12,0,0,0-.56,2.15v1.61h3.4v2.33h-3.37v15.27Zm9.36,0V507.91h-2.61v-2.33h2.61v-1.86a8.15,8.15,0,0,1,.31-2.62,3.75,3.75,0,0,1,1.51-1.86,5.39,5.39,0,0,1,3-.72,14.31,14.31,0,0,1,2.76.3l-.44,2.59a10,10,0,0,0-1.75-.17,2.63,2.63,0,0,0-1.91.58,3.12,3.12,0,0,0-.55,2.15v1.61h3.39v2.33h-3.37v15.27Zm20.08,0v-2.59a6.35,6.35,0,0,1-5.54,3A7.1,7.1,0,0,1,665,523a4.8,4.8,0,0,1-2-1.5,5.6,5.6,0,0,1-.91-2.21,15.45,15.45,0,0,1-.18-2.79v-10.9h3v9.76a17.6,17.6,0,0,0,.18,3.15,3.16,3.16,0,0,0,1.18,1.85,3.71,3.71,0,0,0,2.23.67,4.83,4.83,0,0,0,2.5-.69,3.81,3.81,0,0,0,1.64-1.87,9.32,9.32,0,0,0,.49-3.44v-9.43h3v17.6Zm6.09-5.24,2.92-.48a4.11,4.11,0,0,0,1.38,2.71,4.76,4.76,0,0,0,3.15.94,4.68,4.68,0,0,0,3-.83,2.5,2.5,0,0,0,1-2,1.82,1.82,0,0,0-.87-1.59,12.57,12.57,0,0,0-3-1,27.58,27.58,0,0,1-4.52-1.44,4.35,4.35,0,0,1-1.91-1.67,4.48,4.48,0,0,1-.65-2.36,4.62,4.62,0,0,1,.53-2.18,4.89,4.89,0,0,1,1.46-1.67,6.18,6.18,0,0,1,1.89-.87,8.8,8.8,0,0,1,2.56-.35,10,10,0,0,1,3.61.59,4.9,4.9,0,0,1,2.3,1.61,6.15,6.15,0,0,1,1,2.72l-2.89.39a3.23,3.23,0,0,0-1.15-2.1,4.2,4.2,0,0,0-2.67-.75,4.85,4.85,0,0,0-2.92.67,2,2,0,0,0-.87,1.59,1.64,1.64,0,0,0,.36,1,2.59,2.59,0,0,0,1.14.79c.29.11,1.17.37,2.61.76a37,37,0,0,1,4.39,1.39,4.46,4.46,0,0,1,1.95,1.56A4.35,4.35,0,0,1,694,518a5,5,0,0,1-.86,2.81,5.6,5.6,0,0,1-2.5,2,9.07,9.07,0,0,1-3.69.72,8.18,8.18,0,0,1-5.2-1.42,6.62,6.62,0,0,1-2.28-4.21Zm30-.43,3.07.4a7.54,7.54,0,0,1-2.69,4.18,9.07,9.07,0,0,1-11.08-.89,9.33,9.33,0,0,1-2.25-6.67,9.77,9.77,0,0,1,2.27-6.89,7.66,7.66,0,0,1,5.9-2.45,7.44,7.44,0,0,1,5.72,2.4,9.53,9.53,0,0,1,2.23,6.75c0,.18,0,.44,0,.79h-13a6.76,6.76,0,0,0,1.63,4.44,4.8,4.8,0,0,0,3.65,1.54,4.47,4.47,0,0,0,2.78-.86,5.65,5.65,0,0,0,1.83-2.74Zm-9.74-4.84h9.77a5.89,5.89,0,0,0-1.12-3.31,4.54,4.54,0,0,0-3.67-1.71,4.73,4.73,0,0,0-3.44,1.36,5.49,5.49,0,0,0-1.54,3.66Zm16.46,10.51v-17.6h2.69v2.66a7.28,7.28,0,0,1,1.88-2.46,3.24,3.24,0,0,1,1.9-.59,5.83,5.83,0,0,1,3,.95l-1,2.77a4.16,4.16,0,0,0-2.17-.65,2.78,2.78,0,0,0-1.74.58,3.2,3.2,0,0,0-1.1,1.64,11.66,11.66,0,0,0-.49,3.48v9.22Z"/></svg>