<svg id="VDO_Fatron" data-name="VDO Fatron" xmlns="http://www.w3.org/2000/svg" viewBox="0 0 1024 1024"><defs><style>.cls-1{fill:#bbb;}.cls-1,.cls-2,.cls-3,.cls-4{stroke:#000;}.cls-1,.cls-3,.cls-4{stroke-miterlimit:10;}.cls-2{fill:none;stroke-linecap:round;stroke-linejoin:round;stroke-width:0.16px;}.cls-3{fill:#fff;}</style></defs><g id="_320mm" data-name="320mm"><rect class="cls-1" x="4.93" y="385.54" width="1014.14" height="252.92"/><rect class="cls-2" x="4.93" y="385.54" width="1014.14" height="252.92"/><rect class="cls-3" x="68.32" y="435.19" width="887.37" height="153.62"/><rect class="cls-2" x="68.32" y="435.19" width="887.37" height="153.62"/><path class="cls-4" d="M108.42,534.14,89.81,486.08h6.9L109.2,521q1.51,4.2,2.53,7.87c.74-2.62,1.6-5.25,2.58-7.87l13-34.92h6.5L115,534.14Zm31,0V486.08H156a40,40,0,0,1,8.55.69,16.2,16.2,0,0,1,7,3.44,19.52,19.52,0,0,1,5.68,8.21,32.16,32.16,0,0,1,1.88,11.43,33.64,33.64,0,0,1-1.27,9.7,23.6,23.6,0,0,1-3.28,7,17.53,17.53,0,0,1-4.37,4.36,17.83,17.83,0,0,1-5.73,2.41,33,33,0,0,1-7.71.82Zm6.35-5.66H156a24.8,24.8,0,0,0,7.45-.89,10.69,10.69,0,0,0,4.31-2.49,15.14,15.14,0,0,0,3.52-6.09,29.73,29.73,0,0,0,1.26-9.26q0-7.54-2.47-11.6a12.46,12.46,0,0,0-6-5.43,25,25,0,0,0-8.22-1H145.79v36.74Zm40.14-17.76q0-12,6.42-18.71t16.57-6.77a23,23,0,0,1,12,3.18,20.71,20.71,0,0,1,8.14,8.86,28.73,28.73,0,0,1,2.8,12.89,28.34,28.34,0,0,1-2.94,13.06,20.17,20.17,0,0,1-8.36,8.73,23.92,23.92,0,0,1-11.66,3,22.74,22.74,0,0,1-12.12-3.27,21,21,0,0,1-8.09-8.94,27,27,0,0,1-2.76-12Zm6.55.08q0,8.69,4.66,13.68a16.3,16.3,0,0,0,23.52-.05q4.64-5,4.64-14.32a24.6,24.6,0,0,0-2-10.23,15.2,15.2,0,0,0-5.8-6.78,15.7,15.7,0,0,0-8.57-2.41,16.24,16.24,0,0,0-11.61,4.64q-4.86,4.64-4.86,15.47Z"/><path class="cls-4" d="M259,534.14V486.08h32.39v5.66h-26v14.88h22.53v5.66H265.35v21.86Zm62.71-4.35a22.4,22.4,0,0,1-6.36,4,18.06,18.06,0,0,1-6.53,1.16q-5.77,0-8.86-2.8a9.25,9.25,0,0,1-3.09-7.17,9.63,9.63,0,0,1,4.23-8.07,14.28,14.28,0,0,1,4.26-1.94,43,43,0,0,1,5.27-.88,54.07,54.07,0,0,0,10.57-2c0-.81,0-1.33,0-1.54,0-2.42-.56-4.11-1.68-5.1q-2.28-2-6.77-2c-2.8,0-4.86.49-6.2,1.46s-2.31,2.68-2.95,5.15l-5.77-.79a14.4,14.4,0,0,1,2.6-6,11.37,11.37,0,0,1,5.24-3.49,23.38,23.38,0,0,1,7.93-1.23,21,21,0,0,1,7.27,1.05,9.5,9.5,0,0,1,4.12,2.63,9.2,9.2,0,0,1,1.84,4,32.78,32.78,0,0,1,.3,5.45v7.89a87.89,87.89,0,0,0,.36,10.44,13.47,13.47,0,0,0,1.42,4.17h-6.18a13.62,13.62,0,0,1-1.05-4.34Zm-.47-13.16a44,44,0,0,1-9.72,2.24,22.4,22.4,0,0,0-5.19,1.18A5.22,5.22,0,0,0,304,522a5.08,5.08,0,0,0-.82,2.82,5,5,0,0,0,1.8,3.94,7.74,7.74,0,0,0,5.26,1.58,12.23,12.23,0,0,0,6.1-1.5,9.28,9.28,0,0,0,3.93-4.09,14.41,14.41,0,0,0,.95-5.92l0-2.17ZM349,528.88l.79,5.2a21.83,21.83,0,0,1-4.45.53,10.05,10.05,0,0,1-5-1,5.74,5.74,0,0,1-2.48-2.67q-.72-1.67-.72-7V503.9h-4.35v-4.61h4.35v-8.62l5.92-3.53v12.15H349v4.61h-5.92v20.38a10.23,10.23,0,0,0,.31,3.25,2.45,2.45,0,0,0,1,1.15,4,4,0,0,0,2,.43,19.65,19.65,0,0,0,2.59-.23Zm5.67,5.26V499.29H360v5.26a14.37,14.37,0,0,1,3.74-4.87,6.53,6.53,0,0,1,3.78-1.18,11.45,11.45,0,0,1,6.05,1.9l-2.05,5.47a8.36,8.36,0,0,0-4.31-1.29,5.59,5.59,0,0,0-3.47,1.17,6.36,6.36,0,0,0-2.19,3.23,23.24,23.24,0,0,0-1,6.9v18.26Zm20.21-17.43q0-9.68,5.36-14.34a16.15,16.15,0,0,1,10.93-3.87,15.56,15.56,0,0,1,11.71,4.71q4.55,4.71,4.54,13,0,6.72-2,10.58a14.22,14.22,0,0,1-5.86,6,17,17,0,0,1-8.38,2.13,15.55,15.55,0,0,1-11.79-4.69q-4.5-4.69-4.5-13.52Zm6.08,0q0,6.69,2.9,10a9.63,9.63,0,0,0,14.58,0q2.91-3.35,2.9-10.2,0-6.46-2.92-9.79a9.62,9.62,0,0,0-14.56,0Q381,510,381,516.7Zm33.33,17.44V499.29h5.35v4.94a12.49,12.49,0,0,1,11.06-5.73,14.54,14.54,0,0,1,5.78,1.13,9.15,9.15,0,0,1,3.95,3,11.49,11.49,0,0,1,1.83,4.37,33.6,33.6,0,0,1,.33,5.74v21.43h-5.92V513a15.86,15.86,0,0,0-.69-5.39,5.65,5.65,0,0,0-2.44-2.86,7.71,7.71,0,0,0-4.1-1.07A9.5,9.5,0,0,0,423,506c-1.83,1.6-2.74,4.62-2.74,9.08v19Zm85.22-5.66v5.66H467.77a10.21,10.21,0,0,1,.69-4.1,21.69,21.69,0,0,1,3.89-6.39,61.54,61.54,0,0,1,7.72-7.25q7.8-6.43,10.57-10.19a12.17,12.17,0,0,0,2.75-7.1,7.89,7.89,0,0,0-2.5-5.91,9.08,9.08,0,0,0-6.54-2.4,9.24,9.24,0,0,0-6.82,2.55,9.71,9.71,0,0,0-2.58,7.09l-6.08-.63q.61-6.78,4.69-10.33t10.92-3.56q6.91,0,11,3.84a12.59,12.59,0,0,1,4,9.49,14.34,14.34,0,0,1-1.18,5.67,21.9,21.9,0,0,1-3.93,5.86,95.36,95.36,0,0,1-9.08,8.46q-5.31,4.46-6.82,6a20,20,0,0,0-2.49,3.2Zm6.3-18a44,44,0,0,1,1.75-13.71,16.93,16.93,0,0,1,5.21-8,13.38,13.38,0,0,1,8.7-2.81,14.25,14.25,0,0,1,6.8,1.56A12.84,12.84,0,0,1,533.1,492a24.35,24.35,0,0,1,3,7.14,47.28,47.28,0,0,1,1.09,11.34,44.08,44.08,0,0,1-1.74,13.65,17,17,0,0,1-5.2,8,13.41,13.41,0,0,1-8.73,2.81A13.22,13.22,0,0,1,510.57,530q-4.76-6-4.75-19.53Zm6.08,0q0,11.83,2.76,15.73c1.85,2.6,4.12,3.9,6.83,3.9s5-1.3,6.82-3.91,2.77-7.85,2.77-15.72-.92-13.13-2.76-15.73a8.22,8.22,0,0,0-6.9-3.89,7.56,7.56,0,0,0-6.49,3.43q-3,4.39-3,16.19Z"/><polygon class="cls-4" points="561.39 519.73 561.39 513.8 579.56 513.8 579.56 519.73 561.39 519.73 561.39 519.73"/><path class="cls-4" d="M605.38,534.14V486.08h6.5l25.2,37.73V486.08h6.08v48.06h-6.5l-25.2-37.73v37.73Zm45.51-17.43q0-9.68,5.37-14.34a16.1,16.1,0,0,1,10.92-3.87,15.56,15.56,0,0,1,11.71,4.71q4.54,4.71,4.54,13,0,6.72-2,10.58a14.25,14.25,0,0,1-5.85,6,17,17,0,0,1-8.39,2.13,15.58,15.58,0,0,1-11.79-4.69q-4.5-4.69-4.5-13.52Zm6.08,0q0,6.69,2.9,10a9.63,9.63,0,0,0,14.58,0q2.91-3.35,2.91-10.2,0-6.46-2.92-9.79a9.63,9.63,0,0,0-14.57,0Q657,510,657,516.7Z"/><path class="cls-4" d="M709.69,534.14V486.08h16.45a39.6,39.6,0,0,1,8.5.69,16.11,16.11,0,0,1,7,3.44,19.56,19.56,0,0,1,5.65,8.21,32.39,32.39,0,0,1,1.87,11.43,33.64,33.64,0,0,1-1.27,9.7,23.59,23.59,0,0,1-3.26,7,17.44,17.44,0,0,1-4.34,4.36,17.85,17.85,0,0,1-5.7,2.41,32.67,32.67,0,0,1-7.67.82Zm6.31-5.66h10.2a24.65,24.65,0,0,0,7.41-.89,10.56,10.56,0,0,0,4.28-2.49,15.23,15.23,0,0,0,3.5-6.09,29.76,29.76,0,0,0,1.25-9.26q0-7.54-2.46-11.6a12.39,12.39,0,0,0-6-5.43,24.77,24.77,0,0,0-8.18-1H716v36.74Zm41.11-35.69v-6.71H763v6.71Zm0,41.35V499.29H763v34.85Zm16.15,0V503.9H768.1v-4.61h5.16V495.6a16.21,16.21,0,0,1,.62-5.18,7.51,7.51,0,0,1,3-3.71,10.79,10.79,0,0,1,6-1.41,28.82,28.82,0,0,1,5.48.58l-.88,5.14a19.5,19.5,0,0,0-3.46-.33,5.15,5.15,0,0,0-3.78,1.14c-.74.76-1.11,2.18-1.11,4.27v3.19h6.73v4.61h-6.67v30.24Zm18.52,0V503.9h-5.16v-4.61h5.16V495.6a16.21,16.21,0,0,1,.62-5.18,7.51,7.51,0,0,1,3-3.71,10.79,10.79,0,0,1,6-1.41,28.82,28.82,0,0,1,5.48.58L806,491a19.5,19.5,0,0,0-3.46-.33,5.15,5.15,0,0,0-3.78,1.14c-.74.76-1.11,2.18-1.11,4.27v3.19h6.73v4.61h-6.67v30.24Zm39.78,0V529a12.62,12.62,0,0,1-11,5.9,13.83,13.83,0,0,1-5.71-1.18,9.47,9.47,0,0,1-3.94-3,11.3,11.3,0,0,1-1.81-4.38,31.25,31.25,0,0,1-.35-5.51V499.29h5.89v19.33a35.8,35.8,0,0,0,.35,6.23,6.21,6.21,0,0,0,2.34,3.66,7.18,7.18,0,0,0,4.42,1.33,9.59,9.59,0,0,0,4.93-1.36,7.58,7.58,0,0,0,3.27-3.71,18.72,18.72,0,0,0,1-6.81V499.29h5.89v34.85Zm12.05-10.38,5.79-.94a8.1,8.1,0,0,0,2.72,5.36,9.46,9.46,0,0,0,6.25,1.87c2.7,0,4.71-.55,6-1.65a5,5,0,0,0,2-3.88,3.57,3.57,0,0,0-1.72-3.14,24.7,24.7,0,0,0-6-2,55,55,0,0,1-9-2.84,8.64,8.64,0,0,1-3.79-3.32,8.8,8.8,0,0,1-1.29-4.67,9,9,0,0,1,1.06-4.32,9.65,9.65,0,0,1,2.89-3.3,11.92,11.92,0,0,1,3.73-1.72,17.7,17.7,0,0,1,5.07-.71,19.86,19.86,0,0,1,7.16,1.18,9.69,9.69,0,0,1,4.55,3.19,12.44,12.44,0,0,1,2,5.38l-5.73.79a6.27,6.27,0,0,0-2.27-4.17,8.28,8.28,0,0,0-5.3-1.5c-2.69,0-4.62.45-5.77,1.35a3.91,3.91,0,0,0-1.73,3.14,3.25,3.25,0,0,0,.72,2.06,5.18,5.18,0,0,0,2.25,1.57c.59.22,2.31.72,5.18,1.51a70.45,70.45,0,0,1,8.69,2.74,8.85,8.85,0,0,1,3.87,3.1,8.73,8.73,0,0,1,1.4,5,9.93,9.93,0,0,1-1.72,5.57,11,11,0,0,1-4.94,4,17.76,17.76,0,0,1-7.31,1.43q-6.75,0-10.29-2.81a13.1,13.1,0,0,1-4.52-8.35Zm59.39-.84,6.07.79a14.78,14.78,0,0,1-5.31,8.27,16,16,0,0,1-9.91,2.94q-7.59,0-12-4.71c-3-3.13-4.45-7.54-4.45-13.2q0-8.79,4.5-13.65a15.18,15.18,0,0,1,11.67-4.86,14.76,14.76,0,0,1,11.34,4.76q4.39,4.74,4.4,13.37c0,.35,0,.88,0,1.58H883.41q.33,5.73,3.23,8.79a9.57,9.57,0,0,0,7.23,3,9,9,0,0,0,5.51-1.7,11.31,11.31,0,0,0,3.62-5.43Zm-19.28-9.59h19.34a11.74,11.74,0,0,0-2.22-6.56,9,9,0,0,0-7.27-3.4,9.35,9.35,0,0,0-6.8,2.71,10.72,10.72,0,0,0-3,7.25Zm32.59,20.81V499.29h5.32v5.26a14.25,14.25,0,0,1,3.72-4.87,6.47,6.47,0,0,1,3.76-1.18,11.33,11.33,0,0,1,6,1.9l-2,5.47a8.26,8.26,0,0,0-4.29-1.29,5.53,5.53,0,0,0-3.45,1.17,6.33,6.33,0,0,0-2.17,3.23,23.24,23.24,0,0,0-1,6.9v18.26Z"/></g></svg>