<svg id="VC_Grid_-_With_Labels" data-name="VC Grid - With Labels" xmlns="http://www.w3.org/2000/svg" viewBox="0 0 1024 1024"><defs><style>.cls-1{fill:#bbb;fill-rule:evenodd;}.cls-1,.cls-2{stroke:#1d1d1b;stroke-miterlimit:10;}.cls-2{fill:#fff;}</style></defs><g id="_25_-_8x8" data-name="25 - 8x8"><path class="cls-1" d="M14.4,10.73h997.14v2.4h1.73v997.15h-1.73v3H14.4v-3H10.73V13.13H14.4v-2.4m942.13,945.8V878.16H878.16v78.37h78.37m-135.12,0V878.16H743.05v78.37h78.36m-135.11,0V878.16H607.93v78.37H686.3m-135.12,0V878.16H472.82v78.37h78.36m-135.11,0V878.16H337.7v78.37h78.37m-135.11,0V878.16H202.59v78.37H281m-135.12,0V878.16H67.47v78.37h78.37M956.53,821.41V743.05H878.16v78.36h78.37m-135.12,0V743.05H743.05v78.36h78.36m-135.11,0V743.05H607.93v78.36H686.3m-135.12,0V743.05H472.82v78.36h78.36m-135.11,0V743.05H337.7v78.36h78.37m-135.11,0V743.05H202.59v78.36H281m-135.12,0V743.05H67.47v78.36h78.37M956.53,686.3V607.93H878.16V686.3h78.37m-135.12,0V607.93H743.05V686.3h78.36m-135.11,0V607.93H607.93V686.3H686.3m-135.12,0V607.93H472.82V686.3h78.36m-135.11,0V607.93H337.7V686.3h78.37M281,686.3V607.93H202.59V686.3H281m-135.12,0V607.93H67.47V686.3h78.37M956.53,551.18V472.82H878.16v78.36h78.37m-135.12,0V472.82H743.05v78.36h78.36m-135.11,0V472.82H607.93v78.36H686.3m-135.12,0V472.82H472.82v78.36h78.36m-135.11,0V472.82H337.7v78.36h78.37m-135.11,0V472.82H202.59v78.36H281m-135.12,0V472.82H67.47v78.36h78.37M956.53,416.07V337.7H878.16v78.37h78.37m-135.12,0V337.7H743.05v78.37h78.36m-135.11,0V337.7H607.93v78.37H686.3m-135.12,0V337.7H472.82v78.37h78.36m-135.11,0V337.7H337.7v78.37h78.37m-135.11,0V337.7H202.59v78.37H281m-135.12,0V337.7H67.47v78.37h78.37M956.53,281V202.59H878.16V281h78.37m-135.12,0V202.59H743.05V281h78.36M686.3,281V202.59H607.93V281H686.3m-135.12,0V202.59H472.82V281h78.36m-135.11,0V202.59H337.7V281h78.37M281,281V202.59H202.59V281H281m-135.12,0V202.59H67.47V281h78.37m0-135.12V67.47H67.47v78.37h78.37m135.12,0V67.47H202.59v78.37H281m135.11,0V67.47H337.7v78.37h78.37m135.11,0V67.47H472.82v78.37h78.36m135.12,0V67.47H607.93v78.37H686.3m135.11,0V67.47H743.05v78.37h78.36m135.12,0V67.47H878.16v78.37h78.37"/><rect class="cls-2" x="106.66" y="280.96" width="810.68" height="462.09"/><path d="M159.7,483.17h18.1l35.53-98.6H194.05l-25.17,70.05-24.8-70.05h-19.3l34.92,98.6Zm139.83-95.92a56,56,0,0,0-23.5-5.16,54,54,0,0,0-26.78,7,49.65,49.65,0,0,0-19.1,18.44,51.08,51.08,0,0,0-6.67,26.2q0,22.8,14.65,37.37t37.63,14.58A56.36,56.36,0,0,0,298,481.53q9.72-4.12,20.64-14.79l-12.72-13.28q-8.1,8.06-14.87,11.11a35.94,35.94,0,0,1-14.93,3.05,35.13,35.13,0,0,1-17.41-4.36,30.73,30.73,0,0,1-12.13-12,35.29,35.29,0,0,1-4.28-17.51,33,33,0,0,1,33.48-33.48q16.75,0,30.14,14.15L319,401.9a56.32,56.32,0,0,0-19.47-14.65ZM336,455.36H370v-17H336v17Zm129.63-68.51a60.88,60.88,0,0,0-24.06-4.76q-24.6,0-39.95,17.23a49.42,49.42,0,0,0-12.94,34.05,53,53,0,0,0,7,26.61,48.69,48.69,0,0,0,19,19,55.48,55.48,0,0,0,27.38,6.67q14.35,0,25-6.1a46.8,46.8,0,0,0,17.37-17.69,48.36,48.36,0,0,0,6.7-24.54l-.14-4.15h-49.6V450.8H470q-4.09,8.71-10.77,12.8t-16.41,4.09q-15,0-25.16-9.92a32.47,32.47,0,0,1-10.2-24.2,31.64,31.64,0,0,1,9.83-23.46q9.83-9.64,24.38-9.65,16.71,0,29.25,13.27l13.22-13.07q-9-9.78-18.5-13.81Zm44,96.32H528.4V441.41h1.71l22.18,41.76H572.8l-23.35-43.83q9.38-3.36,14-9.89t4.66-16.26a29.72,29.72,0,0,0-4.22-16,23.87,23.87,0,0,0-11.15-9.68q-6.93-2.92-23.27-2.92H509.63v98.6Zm18.77-80.3h5.14q7.49,0,10.29,1a9.3,9.3,0,0,1,4.48,3.43A9.61,9.61,0,0,1,550,413q0,5.44-3.37,7.8t-12.33,2.35H528.4V402.87Zm58.25,80.3h18.63v-98.6H586.65v98.6Zm39.81,0H649q19.15,0,26.92-2.41a36.88,36.88,0,0,0,14.43-8.71,43.35,43.35,0,0,0,10.45-15.86,56.4,56.4,0,0,0,3.79-20.94q0-16-6.77-28T680.64,389.9q-10.44-5.32-31.94-5.33H626.46v98.6Zm25-80.5q17.5,0,25.41,7.78,8.77,8.66,8.78,24.36,0,10.2-3.69,17.18a22.42,22.42,0,0,1-9.48,9.93q-5.81,3-18.67,2.95h-8.72v-62.2Zm126.42,1.47a12.94,12.94,0,0,1,10-4.49,13.35,13.35,0,0,1,9.76,3.72,12.66,12.66,0,0,1,3.78,9.42q0,5.5-3.65,12.3t-14.71,18l-30.5,31.1v9h68.3V465.81H785.77l11.07-11.66q13.27-13.81,18.27-23.93t5-18.9A28.75,28.75,0,0,0,816,396.81a28.38,28.38,0,0,0-11-10.93,32.34,32.34,0,0,0-15.85-3.79q-14.55,0-23.83,9.15t-10,25.1h18.3q.27-7.69,4.29-12.2Zm59.66,35.2,15.28,3.41a22.23,22.23,0,0,1,5.86-4.62,13.06,13.06,0,0,1,6.07-1.54,12.87,12.87,0,0,1,9.82,4.39,17.48,17.48,0,0,1-.3,22.75,14.2,14.2,0,0,1-10.59,4.5,15,15,0,0,1-8.21-2.38,17,17,0,0,1-6-7H829.76q2.82,12.46,11.86,19.64a33.82,33.82,0,0,0,21.66,7.17,32.41,32.41,0,0,0,23.89-9.88,33.15,33.15,0,0,0,9.82-24.3q0-14.28-8.88-23.43t-22.29-9.15a20.87,20.87,0,0,0-3.08.24,25.83,25.83,0,0,0-3.29.7l4-17.9h32.17V384.57H849.47l-11.93,54.77Z"/><path d="M462.54,581.55a24.16,24.16,0,0,0,2-9.81,27.53,27.53,0,0,0-3.78-14,26.08,26.08,0,0,0-10.36-10.08,31.48,31.48,0,0,0-15.22-3.55,32.78,32.78,0,0,0-15.48,3.52,25.56,25.56,0,0,0-10.42,9.84,27.19,27.19,0,0,0-3.72,14,26,26,0,0,0,2.24,10.68,32.39,32.39,0,0,0,6.67,9.55,34.23,34.23,0,0,0-10.15,11.43,29.89,29.89,0,0,0-3.39,14.19,31.14,31.14,0,0,0,4.22,16.13,27,27,0,0,0,11.27,10.67q7,3.51,19,3.52,11.13,0,18.3-3.66a27.61,27.61,0,0,0,11.43-10.9,30.53,30.53,0,0,0,4.26-15.76,30.22,30.22,0,0,0-3.65-14.59,29.89,29.89,0,0,0-10.36-11,38.25,38.25,0,0,0,7.2-10.15Zm-19.87-16.4a10.23,10.23,0,0,1,3.08,7.72A11.17,11.17,0,0,1,442.7,581a11.14,11.14,0,0,1-15.58-.07,10.87,10.87,0,0,1-3.15-8,10.63,10.63,0,0,1,3-7.78,10.2,10.2,0,0,1,7.61-3,11.21,11.21,0,0,1,8.11,3Zm3.69,40.7a13.38,13.38,0,0,1,4.42,10.22,12.81,12.81,0,0,1-4.26,9.95q-4.25,3.86-11.42,3.86t-11.47-4.13a13.34,13.34,0,0,1-4.35-10.08,12.72,12.72,0,0,1,4.62-9.82,16.52,16.52,0,0,1,11.4-4.13,15.6,15.6,0,0,1,11.06,4.13Zm55,.94-27.68,38.37h20.89l17.26-23.92,17.35,23.92h21.25l-28-38.61,24.76-34.32H526.26l-14.34,19.88L497.5,572.23H476.25l25.07,34.56Zm115-25.24a24.16,24.16,0,0,0,2-9.81,27.54,27.54,0,0,0-3.79-14,26,26,0,0,0-10.36-10.08,31.46,31.46,0,0,0-15.21-3.55,32.79,32.79,0,0,0-15.49,3.52A25.62,25.62,0,0,0,563,557.44a27.19,27.19,0,0,0-3.72,14,26,26,0,0,0,2.25,10.68,32.2,32.2,0,0,0,6.67,9.55,34.27,34.27,0,0,0-10.16,11.43,29.88,29.88,0,0,0-3.38,14.19,31,31,0,0,0,4.22,16.13,26.93,26.93,0,0,0,11.26,10.67q7,3.51,19,3.52,11.13,0,18.3-3.66a27.61,27.61,0,0,0,11.43-10.9,30.62,30.62,0,0,0,4.25-15.76,30,30,0,0,0-14-25.62,38.32,38.32,0,0,0,7.21-10.15Zm-19.87-16.4a10.27,10.27,0,0,1,3.08,7.72,11.21,11.21,0,0,1-3,8.15,11.14,11.14,0,0,1-15.58-.07,10.84,10.84,0,0,1-3.16-8,10.63,10.63,0,0,1,3-7.78,10.19,10.19,0,0,1,7.61-3,11.21,11.21,0,0,1,8.11,3Zm3.68,40.7a13.39,13.39,0,0,1,4.43,10.22,12.81,12.81,0,0,1-4.26,9.95q-4.26,3.86-11.43,3.86t-11.46-4.13A13.32,13.32,0,0,1,573,615.67a12.7,12.7,0,0,1,4.63-9.82,16.49,16.49,0,0,1,11.39-4.13,15.59,15.59,0,0,1,11.06,4.13Z"/></g></svg>