<svg id="VC_Strip" data-name="VC Strip" xmlns="http://www.w3.org/2000/svg" viewBox="0 0 1024 1024"><defs><style>.cls-1{fill:#bbb;}.cls-1,.cls-2{stroke:#1d1d1b;stroke-miterlimit:10;}.cls-2{fill:#fff;fill-rule:evenodd;}</style></defs><g id="_25_-_16x1" data-name="25 - 16x1"><rect class="cls-1" x="4.27" y="486.55" width="1015.47" height="50.9"/><polyline class="cls-2" points="627.27 496.11 627.27 527.89 396.73 527.89 396.73 496.11 627.27 496.11"/><path d="M404.42,522.24H408l7-19.35h-3.78l-4.94,13.74-4.86-13.74h-3.79l6.85,19.35Zm27.44-18.83a11.08,11.08,0,0,0-4.61-1,10.61,10.61,0,0,0-5.26,1.37,9.82,9.82,0,0,0-3.75,3.62,10,10,0,0,0-1.3,5.14,9.89,9.89,0,0,0,2.87,7.33,10,10,0,0,0,7.38,2.86,11.08,11.08,0,0,0,4.36-.81,13.64,13.64,0,0,0,4.05-2.9l-2.5-2.6a10.52,10.52,0,0,1-2.92,2.18,7.17,7.17,0,0,1-2.93.59,6.88,6.88,0,0,1-3.41-.85,6,6,0,0,1-2.38-2.36,6.89,6.89,0,0,1-.84-3.43,6.47,6.47,0,0,1,6.57-6.57,8,8,0,0,1,5.91,2.77l2.58-2.45a11.22,11.22,0,0,0-3.82-2.88ZM439,516.78h6.69v-3.34H439v3.34Zm18.52-13.71a6,6,0,0,0-2.75-.67,5.33,5.33,0,0,0-3.79,1.44,4.57,4.57,0,0,0-1.53,3.45,5,5,0,0,0,.92,2.8,21.54,21.54,0,0,0,4.08,4,13.5,13.5,0,0,1,2.15,2,2.19,2.19,0,0,1,.49,1.32,1.64,1.64,0,0,1-.65,1.27,2.35,2.35,0,0,1-1.59.55c-1.21,0-2.28-.85-3.22-2.56l-3.09,1.87a8,8,0,0,0,2.63,3.18,6.41,6.41,0,0,0,3.6,1,6,6,0,0,0,4.29-1.55,5.16,5.16,0,0,0,1.64-3.93,5.44,5.44,0,0,0-.46-2.26,7.72,7.72,0,0,0-1.59-2.16c-.3-.31-1.15-1.05-2.56-2.22a25.67,25.67,0,0,1-2.7-2.49,1.51,1.51,0,0,1-.33-.92,1.14,1.14,0,0,1,.46-.87,1.79,1.79,0,0,1,1.19-.39c1,0,2,.66,2.93,2l2.72-2.41a10.12,10.12,0,0,0-2.84-2.45Zm6.74,4.86h-1.85V511h1.85v11.22h3.59V511H470v-3.09h-2.13v-5.28h-3.59v5.28Zm6.79,14.31h3.57v-6.49a9.38,9.38,0,0,1,.57-4,1.64,1.64,0,0,1,1.4-1,2.5,2.5,0,0,1,1,.32l1.12-3.09a3.32,3.32,0,0,0-1.46-.37,3.19,3.19,0,0,0-1.82.55,3.94,3.94,0,0,0-1.33,1.62v-1.8h-3.08v14.31Zm9.25-19.54a2.2,2.2,0,0,0-.67,1.62,2.28,2.28,0,0,0,.68,1.68,2.25,2.25,0,0,0,3.23,0,2.34,2.34,0,0,0,0-3.29,2.26,2.26,0,0,0-3.23,0Zm-.18,19.54h3.59V507.93h-3.59v14.31ZM487,507.93v19.54h3.56v-6.75a6.88,6.88,0,0,0,2.12,1.44,5.85,5.85,0,0,0,2.3.44,6.35,6.35,0,0,0,4.8-2.15,7.48,7.48,0,0,0,2-5.34,7.7,7.7,0,0,0-2-5.43,6.24,6.24,0,0,0-4.76-2.12,6.11,6.11,0,0,0-2.42.48,7,7,0,0,0-2.11,1.46v-1.57Zm10.13,4.12a4.7,4.7,0,0,1,0,6.07,3.66,3.66,0,0,1-2.77,1.2,3.76,3.76,0,0,1-2.82-1.18,4.33,4.33,0,0,1-1.12-3.09,4.19,4.19,0,0,1,1.12-3,3.78,3.78,0,0,1,2.82-1.16,3.66,3.66,0,0,1,2.79,1.18ZM516,506.73a2.51,2.51,0,0,1,2-.88,2.59,2.59,0,0,1,1.91.73,2.46,2.46,0,0,1,.75,1.85,5.2,5.2,0,0,1-.72,2.41,17.35,17.35,0,0,1-2.89,3.53l-6,6.1v1.77h13.4v-3.41h-6.89l2.17-2.29a20.42,20.42,0,0,0,3.58-4.69,8.36,8.36,0,0,0,1-3.71,5.61,5.61,0,0,0-.81-2.85,5.46,5.46,0,0,0-2.15-2.14,6.31,6.31,0,0,0-3.11-.75,6.38,6.38,0,0,0-4.68,1.8,7.06,7.06,0,0,0-2,4.92h3.59a3.6,3.6,0,0,1,.84-2.39Zm11.7,6.9,3,.67a4.36,4.36,0,0,1,1.15-.9,2.61,2.61,0,0,1,1.19-.31A2.51,2.51,0,0,1,535,514a3.41,3.41,0,0,1-.06,4.46,2.77,2.77,0,0,1-2.08.88,2.93,2.93,0,0,1-1.61-.46,3.36,3.36,0,0,1-1.18-1.38h-3.86a6.49,6.49,0,0,0,6.57,5.26,6.33,6.33,0,0,0,4.69-1.94,6.48,6.48,0,0,0,1.93-4.77,6.32,6.32,0,0,0-1.74-4.59,5.85,5.85,0,0,0-4.38-1.8,4.28,4.28,0,0,0-.6.05,5.42,5.42,0,0,0-.65.14l.79-3.51h6.32v-3.41h-9.07l-2.34,10.74Zm22.78,3.15h6.68v-3.34h-6.68v3.34Zm18.84-10.43h4v15.89H577V502.89h-5.51l-2.13,3.46ZM585,512.13a18.55,18.55,0,0,0-1.24,2.79,6.34,6.34,0,0,0-.27,1.8,5.88,5.88,0,0,0,1.74,4.18,6.05,6.05,0,0,0,10.4-4.21,6,6,0,0,0-1.73-4.38,5.62,5.62,0,0,0-4.18-1.77l3.39-6.57-3.14-1.57-5,9.73Zm6.31,2.64a2.81,2.81,0,0,1,0,3.76,2.39,2.39,0,0,1-1.77.75,2.29,2.29,0,0,1-1.7-.77,2.8,2.8,0,0,1,0-3.74,2.28,2.28,0,0,1,1.72-.74,2.42,2.42,0,0,1,1.8.74Zm11.38-.06-5.43,7.53h4.1l3.38-4.7,3.41,4.7h4.17l-5.5-7.58,4.86-6.73h-4.1l-2.81,3.9-2.83-3.9h-4.17l4.92,6.78Zm11.94-8.36h4v15.89h3.65V502.89h-5.51l-2.13,3.46Z"/></g></svg>