<svg id="VDO_Dotron" data-name="VDO Dotron" xmlns="http://www.w3.org/2000/svg" viewBox="0 0 1024 1024"><defs><style>.cls-1{fill:#bbb;fill-rule:evenodd;}.cls-2{fill:none;stroke:#000;stroke-linecap:round;stroke-linejoin:round;stroke-width:0.72px;}</style></defs><g id="BASE"><path class="cls-1" d="M1018.71,512C1018.71,234,790,5.28,512,5.28S5.29,234,5.29,512,234,1018.72,512,1018.72,1018.71,790,1018.71,512"/><path class="cls-2" d="M1018.71,512C1018.71,234,790,5.28,512,5.28S5.29,234,5.29,512,234,1018.72,512,1018.72,1018.71,790,1018.71,512"/><path class="cls-1" d="M960.48,512C960.48,266,758,63.52,512,63.52S63.52,266,63.52,512,266,960.48,512,960.48,960.48,758,960.48,512"/><path class="cls-2" d="M960.48,512C960.48,266,758,63.52,512,63.52S63.52,266,63.52,512,266,960.48,512,960.48,960.48,758,960.48,512"/></g></svg>