<svg id="VC_Grid_-_Without_Labels" data-name="VC Grid - Without Labels" xmlns="http://www.w3.org/2000/svg" viewBox="0 0 1024 1024"><defs><style>.cls-1{fill:#bbb;stroke:#1d1d1b;stroke-miterlimit:10;fill-rule:evenodd;}</style></defs><g id="_25_-_8x8" data-name="25 - 8x8"><path class="cls-1" d="M1010.87,1007.88V15.53h-1.72v-2.4H16.79v2.4H13.13v992.35h3.66v3h992.36v-3h1.72M954.39,147.6h-78v-78h78v78m0,806.79h-78v-78h78v78m-134.46,0h-78v-78h78v78m-134.47,0h-78v-78h78v78m-134.46,0H473v-78h78v78m-134.47,0h-78v-78h78v78m-134.47,0h-78v-78h78v78m-134.46,0h-78v-78h78v78M954.39,819.93h-78v-78h78v78m-134.46,0h-78v-78h78v78m-134.47,0h-78v-78h78v78m-134.46,0H473v-78h78v78m-134.47,0h-78v-78h78v78m-134.47,0h-78v-78h78v78m-134.46,0h-78v-78h78v78M954.39,685.46h-78v-78h78v78m-134.46,0h-78v-78h78v78m-537.87,0h-78v-78h78v78m-134.46,0h-78v-78h78v78M954.39,551h-78V473h78v78m-134.46,0h-78V473h78v78m-537.87,0h-78V473h78v78M147.6,551h-78V473h78v78M954.39,416.53h-78v-78h78v78m-134.46,0h-78v-78h78v78m-537.87,0h-78v-78h78v78m-134.46,0h-78v-78h78v78M954.39,282.06h-78v-78h78v78m-134.46,0h-78v-78h78v78m-134.47,0h-78v-78h78v78m-134.46,0H473v-78h78v78m-134.47,0h-78v-78h78v78m-134.47,0h-78v-78h78v78m-134.46,0h-78v-78h78v78m0-134.46h-78v-78h78v78m134.46,0h-78v-78h78v78m134.47,0h-78v-78h78v78m134.47,0H473v-78h78v78m134.46,0h-78v-78h78v78m134.47,0h-78v-78h78v78"/></g></svg>