<?xml version="1.0" encoding="utf-8"?>
<!-- Generator: Adobe Illustrator 25.0.1, SVG Export Plug-In . SVG Version: 6.00 Build 0)  -->
<svg version="1.1" id="VDO_Sceptron" xmlns="http://www.w3.org/2000/svg" xmlns:xlink="http://www.w3.org/1999/xlink" x="0px"
	 y="0px" viewBox="0 0 1024 1024" style="enable-background:new 0 0 1024 1024;" xml:space="preserve">
<style type="text/css">
	.st0{fill-rule:evenodd;clip-rule:evenodd;fill:#BBBBBB;stroke:#000000;stroke-miterlimit:10;}
	.st1{fill:none;stroke:#000000;stroke-linecap:round;stroke-linejoin:round;stroke-miterlimit:10;}
	.st2{fill-rule:evenodd;clip-rule:evenodd;fill:#FFFFFF;stroke:#000000;stroke-miterlimit:10;}
	.st3{stroke:#000000;stroke-miterlimit:10;}
</style>
<g id="_1000mm-No_Diff">
	<rect x="10.2" y="485.2" class="st0" width="1000" height="50"/>
	<rect x="10.2" y="485.2" class="st1" width="1000" height="50"/>
	<polyline class="st2" points="769,490.8 769,529.7 251.5,529.7 251.5,490.8 769,490.8 	"/>
	<path class="st3" d="M264.3,521.2l9.5-24.2h-3.3l-6.5,17.6c-0.5,1.3-0.9,2.6-1.3,4c-0.3-1.2-0.8-2.6-1.3-4l-6.3-17.6h-3.5l9.4,24.2
		H264.3L264.3,521.2z M285.4,521.2c1.5,0,2.8-0.1,3.9-0.4c1.1-0.3,2.1-0.7,2.9-1.2c0.8-0.5,1.5-1.3,2.2-2.2c0.7-0.9,1.2-2.1,1.7-3.5
		c0.4-1.4,0.6-3.1,0.6-4.9c0-2.2-0.3-4.1-1-5.8c-0.6-1.7-1.6-3.1-2.9-4.1c-1-0.8-2.2-1.4-3.6-1.7c-1-0.2-2.4-0.3-4.3-0.3h-8.4v24.2
		H285.4L285.4,521.2z M279.9,499.9h5.1c1.9,0,3.3,0.2,4.2,0.5c1.2,0.5,2.2,1.4,3,2.7c0.8,1.4,1.2,3.3,1.2,5.8c0,1.8-0.2,3.4-0.6,4.7
		c-0.4,1.3-1,2.3-1.8,3.1c-0.5,0.5-1.3,1-2.2,1.3c-0.9,0.3-2.2,0.4-3.8,0.4h-5.2V499.9L279.9,499.9z M301.6,515.5
		c0.9,1.9,2.3,3.4,4.1,4.5c1.8,1.1,3.8,1.7,6.1,1.7c2.1,0,4.1-0.5,5.9-1.5c1.8-1,3.2-2.5,4.2-4.4c1-1.9,1.5-4.1,1.5-6.6
		c0-2.4-0.5-4.6-1.4-6.5c-0.9-1.9-2.3-3.4-4.1-4.5c-1.8-1.1-3.8-1.6-6.1-1.6c-3.4,0-6.2,1.1-8.4,3.4c-2.2,2.3-3.2,5.4-3.2,9.5
		C300.2,511.6,300.6,513.6,301.6,515.5L301.6,515.5z M305.9,501.7c1.6-1.6,3.6-2.3,5.9-2.3c1.6,0,3,0.4,4.3,1.2
		c1.3,0.8,2.3,2,2.9,3.4c0.7,1.5,1,3.2,1,5.2c0,3.1-0.8,5.5-2.3,7.2c-1.6,1.7-3.5,2.5-6,2.5c-2.4,0-4.3-0.8-5.9-2.5
		c-1.6-1.7-2.4-4-2.4-6.9C303.5,505.8,304.3,503.2,305.9,501.7L305.9,501.7z M337.1,517.8c0.8,1.3,2,2.2,3.5,2.9
		c1.5,0.6,3.3,1,5.5,1c1.7,0,3.3-0.3,4.7-1c1.4-0.6,2.4-1.5,3.2-2.7c0.7-1.1,1.1-2.4,1.1-3.6c0-1.3-0.3-2.5-1-3.4
		c-0.7-1-1.7-1.8-3.1-2.5c-1-0.4-2.8-1-5.4-1.5c-2.6-0.6-4.2-1.2-4.8-1.7c-0.6-0.6-0.9-1.3-0.9-2.1c0-1,0.4-1.9,1.3-2.6
		c0.9-0.7,2.3-1.1,4.2-1.1c1.9,0,3.3,0.4,4.2,1.2c1,0.8,1.5,1.9,1.7,3.5l3.1-0.2c-0.1-1.4-0.5-2.7-1.2-3.8c-0.7-1.1-1.8-2-3.2-2.6
		c-1.4-0.6-3-0.9-4.8-0.9c-1.6,0-3.1,0.3-4.4,0.8c-1.3,0.6-2.3,1.4-3,2.4c-0.7,1.1-1,2.2-1,3.4c0,1.1,0.3,2.1,0.9,3
		c0.6,0.9,1.4,1.7,2.6,2.3c0.9,0.5,2.5,1,4.7,1.5c2.2,0.5,3.7,0.9,4.3,1.2c1,0.4,1.7,0.9,2.2,1.4c0.4,0.6,0.7,1.2,0.7,2
		c0,0.7-0.2,1.4-0.7,2.1c-0.5,0.6-1.2,1.1-2.1,1.5c-0.9,0.4-2,0.5-3.2,0.5c-1.4,0-2.6-0.2-3.7-0.7c-1.1-0.5-1.9-1.1-2.4-1.9
		c-0.5-0.8-0.9-1.8-1-3l-3,0.3C335.9,515.1,336.3,516.5,337.1,517.8L337.1,517.8z M374.3,517.4c-1.2,1-2.8,1.6-4.6,1.6
		c-1.5,0-2.8-0.4-4.1-1.1c-1.3-0.8-2.2-1.9-2.8-3.4c-0.6-1.5-0.9-3.3-0.9-5.4c0-1.6,0.3-3.2,0.8-4.7c0.5-1.5,1.4-2.7,2.6-3.6
		c1.3-0.9,2.8-1.3,4.7-1.3c1.6,0,3,0.4,4,1.2c1.1,0.8,1.9,2.1,2.4,3.9l3.2-0.7c-0.7-2.2-1.8-4-3.5-5.2c-1.7-1.2-3.7-1.9-6.1-1.9
		c-2.1,0-4.1,0.5-5.9,1.5c-1.8,1-3.2,2.4-4.1,4.3c-1,1.9-1.4,4.1-1.4,6.6c0,2.3,0.4,4.5,1.3,6.5c0.9,2,2.1,3.6,3.7,4.6
		c1.6,1.1,3.8,1.6,6.4,1.6c2.5,0,4.7-0.7,6.4-2.1c1.7-1.4,3-3.4,3.6-6l-3.2-0.8C376.4,514.8,375.5,516.3,374.3,517.4L374.3,517.4z
		 M402.1,521.2v-2.9h-14.9v-8.3h13.4v-2.8h-13.4v-7.4h14.3V497H384v24.2H402.1L402.1,521.2z M409.7,521.2v-9.9h6.2
		c3.4,0,5.8-0.7,7.1-2.1c1.3-1.4,2-3.2,2-5.2c0-1.2-0.2-2.3-0.7-3.3c-0.5-1-1.1-1.8-1.9-2.3c-0.8-0.6-1.8-0.9-3-1.1
		c-0.8-0.2-2.1-0.2-3.7-0.2h-9.1v24.2H409.7L409.7,521.2z M409.7,499.9h6.2c1.5,0,2.5,0.1,3,0.2c0.8,0.2,1.5,0.7,2,1.4
		c0.5,0.7,0.8,1.6,0.8,2.6c0,1.4-0.4,2.5-1.3,3.3c-0.9,0.8-2.3,1.2-4.4,1.2h-6.3V499.9L409.7,499.9z M438.5,521.2v-21.4h8V497h-19.2
		v2.9h8v21.4H438.5L438.5,521.2z M453.1,521.2v-10.8h3.7c0.8,0,1.4,0,1.8,0.1c0.5,0.1,1,0.3,1.5,0.6c0.5,0.3,1,0.8,1.6,1.6
		c0.6,0.8,1.4,1.9,2.3,3.3l3.2,5h4l-4.2-6.6c-0.8-1.3-1.7-2.4-2.7-3.2c-0.4-0.4-1.1-0.8-1.9-1.2c2.3-0.3,4-1.1,5.2-2.2
		c1.1-1.2,1.7-2.6,1.7-4.3c0-1.3-0.3-2.6-1-3.7c-0.7-1.1-1.6-1.9-2.7-2.3c-1.1-0.4-2.8-0.7-4.9-0.7h-10.7v24.2H453.1L453.1,521.2z
		 M453.1,499.7h7.7c1.8,0,3.1,0.4,3.9,1.1c0.8,0.7,1.2,1.7,1.2,2.8c0,0.8-0.2,1.5-0.6,2.2c-0.4,0.7-1.1,1.2-1.9,1.5
		c-0.8,0.3-2,0.5-3.4,0.5h-6.9V499.7L453.1,499.7z M474.7,515.5c0.9,1.9,2.3,3.4,4.1,4.5c1.8,1.1,3.8,1.7,6.1,1.7
		c2.1,0,4.1-0.5,5.9-1.5c1.8-1,3.2-2.5,4.2-4.4c1-1.9,1.5-4.1,1.5-6.6c0-2.4-0.5-4.6-1.4-6.5c-0.9-1.9-2.3-3.4-4.1-4.5
		c-1.8-1.1-3.8-1.6-6.1-1.6c-3.4,0-6.2,1.1-8.4,3.4c-2.2,2.3-3.2,5.4-3.2,9.5C473.3,511.6,473.8,513.6,474.7,515.5L474.7,515.5z
		 M479.1,501.7c1.6-1.6,3.6-2.3,5.9-2.3c1.6,0,3,0.4,4.3,1.2c1.3,0.8,2.3,2,2.9,3.4c0.7,1.5,1,3.2,1,5.2c0,3.1-0.8,5.5-2.3,7.2
		c-1.6,1.7-3.5,2.5-6,2.5c-2.4,0-4.3-0.8-5.9-2.5c-1.6-1.7-2.4-4-2.4-6.9C476.6,505.8,477.4,503.2,479.1,501.7L479.1,501.7z
		 M503.7,521.2v-19.1l12.7,19.1h3.3V497h-3.1v19l-12.7-19h-3.3v24.2H503.7L503.7,521.2z M545.8,521.2v-5.8h3.3v-2.7h-3.3V497h-2.4
		l-11.1,15.7v2.7h10.5v5.8H545.8L545.8,521.2z M535.2,512.7l7.6-10.9v10.9H535.2L535.2,512.7z M554.5,519.1c1.3,1.7,3.2,2.5,5.5,2.5
		c1.8,0,3.2-0.5,4.4-1.4c1.2-1,2-2.3,2.6-4.1c0.6-1.7,0.9-4,0.9-6.9c0-2.4-0.2-4.3-0.5-5.7c-0.4-1.4-0.9-2.6-1.5-3.6
		c-0.6-1-1.4-1.7-2.4-2.3c-1-0.5-2.1-0.8-3.4-0.8c-1.8,0-3.2,0.5-4.4,1.4c-1.2,0.9-2,2.3-2.6,4c-0.6,1.7-0.9,4.1-0.9,6.9
		C552.1,513.8,552.9,517.1,554.5,519.1L554.5,519.1L554.5,519.1z M556.7,501.1c0.8-1.2,1.9-1.7,3.3-1.7c1.4,0,2.5,0.7,3.5,2
		c0.9,1.3,1.4,4,1.4,8c0,4-0.5,6.6-1.4,7.9c-0.9,1.3-2.1,2-3.4,2c-1.4,0-2.5-0.7-3.4-2c-0.9-1.3-1.4-4-1.4-7.9
		C555.2,505.3,555.7,502.6,556.7,501.1L556.7,501.1L556.7,501.1z M589.2,514v-3H580v3H589.2L589.2,514z M605.3,521.2v-19.1
		l12.7,19.1h3.3V497h-3.1v19l-12.7-19h-3.3v24.2H605.3L605.3,521.2z M627.5,519.3c1.5,1.6,3.5,2.4,6,2.4c1.5,0,2.9-0.4,4.2-1.1
		c1.3-0.7,2.3-1.7,3-3c0.7-1.3,1-3.1,1-5.3c0-2.8-0.8-5-2.3-6.6c-1.5-1.6-3.5-2.4-5.9-2.4c-2.2,0-4,0.7-5.5,2
		c-1.8,1.6-2.7,4-2.7,7.2C625.2,515.4,626,517.7,627.5,519.3L627.5,519.3z M629.8,507.4c1-1.1,2.2-1.7,3.7-1.7
		c1.5,0,2.7,0.6,3.7,1.7c1,1.1,1.5,2.8,1.5,4.9c0,2.3-0.5,4-1.5,5.1c-1,1.1-2.2,1.7-3.7,1.7c-1.5,0-2.7-0.6-3.7-1.7
		c-1-1.1-1.5-2.8-1.5-5.1C628.3,510.2,628.8,508.5,629.8,507.4L629.8,507.4z M663.7,521.2c1.5,0,2.8-0.1,3.9-0.4
		c1.1-0.3,2.1-0.7,2.9-1.2c0.8-0.5,1.5-1.3,2.2-2.2c0.7-0.9,1.2-2.1,1.7-3.5c0.4-1.4,0.6-3.1,0.6-4.9c0-2.2-0.3-4.1-1-5.8
		c-0.6-1.7-1.6-3.1-2.9-4.1c-1-0.8-2.2-1.4-3.6-1.7c-1-0.2-2.4-0.3-4.3-0.3H655v24.2H663.7L663.7,521.2z M658.2,499.9h5.1
		c1.9,0,3.3,0.2,4.2,0.5c1.2,0.5,2.2,1.4,3,2.7c0.8,1.4,1.2,3.3,1.2,5.8c0,1.8-0.2,3.4-0.6,4.7c-0.4,1.3-1,2.3-1.8,3.1
		c-0.5,0.5-1.3,1-2.2,1.3c-0.9,0.3-2.2,0.4-3.8,0.4h-5.2V499.9L658.2,499.9z M682,500.4V497h-3v3.4H682L682,500.4z M682,521.2v-17.6
		h-3v17.6H682L682,521.2z M690.2,521.2V506h3.4v-2.3h-3.4v-1.6c0-1.1,0.2-1.8,0.6-2.2c0.4-0.4,1-0.6,1.9-0.6c0.6,0,1.1,0.1,1.8,0.2
		l0.4-2.6c-1-0.2-1.9-0.3-2.8-0.3c-1.3,0-2.3,0.2-3,0.7c-0.7,0.5-1.2,1.1-1.5,1.9c-0.2,0.6-0.3,1.4-0.3,2.6v1.9h-2.6v2.3h2.6v15.2
		H690.2L690.2,521.2z M699.6,521.2V506h3.4v-2.3h-3.4v-1.6c0-1.1,0.2-1.8,0.6-2.2c0.4-0.4,1-0.6,1.9-0.6c0.6,0,1.1,0.1,1.8,0.2
		l0.4-2.6c-1-0.2-1.9-0.3-2.8-0.3c-1.3,0-2.3,0.2-3,0.7c-0.7,0.5-1.2,1.1-1.5,1.9c-0.2,0.6-0.3,1.4-0.3,2.6v1.9H694v2.3h2.6v15.2
		H699.6L699.6,521.2z M719.5,521.2v-17.6h-3v9.4c0,1.5-0.2,2.6-0.5,3.4c-0.3,0.8-0.9,1.4-1.7,1.9c-0.8,0.5-1.6,0.7-2.5,0.7
		s-1.6-0.2-2.2-0.7c-0.6-0.4-1-1.1-1.2-1.8c-0.1-0.5-0.2-1.6-0.2-3.1v-9.7h-3v10.9c0,1.3,0.1,2.2,0.2,2.8c0.2,0.9,0.5,1.6,0.9,2.2
		c0.4,0.6,1.1,1.1,2,1.5c0.9,0.4,1.9,0.6,2.9,0.6c2.3,0,4.2-1,5.6-3v2.6H719.5L719.5,521.2z M725.3,520.2c1.2,0.9,2.9,1.4,5.2,1.4
		c1.4,0,2.6-0.2,3.7-0.7c1.1-0.5,1.9-1.2,2.5-2c0.6-0.9,0.9-1.8,0.9-2.8c0-1-0.2-1.9-0.7-2.5c-0.5-0.7-1.1-1.2-2-1.6
		c-0.8-0.4-2.3-0.8-4.4-1.4c-1.5-0.4-2.3-0.7-2.6-0.8c-0.5-0.2-0.9-0.5-1.1-0.8c-0.2-0.3-0.4-0.7-0.4-1c0-0.6,0.3-1.1,0.9-1.6
		c0.6-0.5,1.6-0.7,2.9-0.7c1.2,0,2.1,0.3,2.7,0.8c0.6,0.5,1,1.2,1.1,2.1l2.9-0.4c-0.2-1.1-0.5-2-1-2.7c-0.5-0.7-1.3-1.2-2.3-1.6
		s-2.3-0.6-3.6-0.6c-0.9,0-1.8,0.1-2.6,0.4c-0.8,0.2-1.4,0.5-1.9,0.9c-0.6,0.4-1.1,1-1.5,1.7c-0.4,0.7-0.5,1.4-0.5,2.2
		c0,0.9,0.2,1.6,0.7,2.4c0.4,0.7,1.1,1.3,1.9,1.7c0.8,0.4,2.4,0.9,4.5,1.4c1.6,0.4,2.6,0.7,3,1c0.6,0.4,0.9,0.9,0.9,1.6
		c0,0.7-0.3,1.4-1,2c-0.7,0.6-1.7,0.8-3,0.8c-1.4,0-2.4-0.3-3.2-0.9c-0.8-0.6-1.2-1.5-1.4-2.7L723,516
		C723.3,517.9,724.1,519.3,725.3,520.2L725.3,520.2z M751.3,518.3c-0.8,0.6-1.7,0.9-2.8,0.9c-1.5,0-2.7-0.5-3.7-1.5
		c-1-1-1.5-2.5-1.6-4.4h13.1c0-0.4,0-0.6,0-0.8c0-2.9-0.7-5.1-2.2-6.7c-1.5-1.6-3.4-2.4-5.8-2.4c-2.4,0-4.4,0.8-5.9,2.4
		c-1.5,1.6-2.3,3.9-2.3,6.9c0,2.9,0.8,5.1,2.3,6.7c1.5,1.6,3.5,2.4,6.1,2.4c2,0,3.7-0.5,5-1.5c1.3-1,2.2-2.4,2.7-4.2l-3.1-0.4
		C752.7,516.8,752.1,517.8,751.3,518.3L751.3,518.3z M744.9,507.1c0.9-0.9,2.1-1.4,3.4-1.4c1.5,0,2.7,0.6,3.7,1.7
		c0.6,0.7,1,1.8,1.1,3.3h-9.8C743.5,509.2,744,508,744.9,507.1L744.9,507.1z M762.9,521.2V512c0-1.3,0.2-2.4,0.5-3.5
		c0.2-0.7,0.6-1.2,1.1-1.6c0.5-0.4,1.1-0.6,1.8-0.6c0.7,0,1.5,0.2,2.2,0.6l1-2.8c-1-0.6-2.1-1-3.1-1c-0.7,0-1.3,0.2-1.9,0.6
		c-0.6,0.4-1.2,1.2-1.9,2.5v-2.7h-2.7v17.6H762.9L762.9,521.2z"/>
</g>
</svg>
