<svg id="VC_Grid_-_With_Labels" data-name="VC Grid - With Labels" xmlns="http://www.w3.org/2000/svg" viewBox="0 0 1024 1024"><defs><style>.cls-1{fill:#bbb;fill-rule:evenodd;}.cls-1,.cls-2{stroke:#1d1d1b;stroke-miterlimit:10;}.cls-2{fill:#fff;}</style></defs><g id="_30_-_8x8" data-name="30 - 8x8"><path class="cls-1" d="M10,10v1004.1h1004.1V10H10M831.49,968.41H740.21V877.13h91.28v91.28m136.92,0H877.13V877.13h91.28v91.28m-273.85,0H603.28V877.13h91.28v91.28m-273.84,0H329.44V877.13h91.28v91.28m-273.85,0H55.59V877.13h91.28v91.28M831.49,831.49H740.21V740.21h91.28v91.28m-273.85,0H466.36V740.21h91.28v91.28m-273.84,0H192.51V740.21H283.8v91.28M968.41,694.56H877.13V603.28h91.28v91.28m-273.85,0H603.28V603.28h91.28v91.28m-273.84,0H329.44V603.28h91.28v91.28m-273.85,0H55.59V603.28h91.28v91.28M831.49,557.64H740.21V466.36h91.28v91.28m-273.85,0H466.36V466.36h91.28v91.28m-273.84,0H192.51V466.36H283.8v91.28M968.41,420.72H877.13V329.44h91.28v91.28m-273.85,0H603.28V329.44h91.28v91.28m-273.84,0H329.44V329.44h91.28v91.28m-273.85,0H55.59V329.44h91.28v91.28M831.49,283.8H740.21V192.51h91.28V283.8m-273.85,0H466.36V192.51h91.28V283.8m-273.84,0H192.51V192.51H283.8V283.8M968.41,146.87H877.13V55.59h91.28v91.28m-273.85,0H603.28V55.59h91.28v91.28m-273.84,0H329.44V55.59h91.28v91.28m-273.85,0H55.59V55.59h91.28v91.28m136.93,0H192.51V55.59H283.8v91.28m273.84,0H466.36V55.59h91.28v91.28m273.85,0H740.21V55.59h91.28v91.28M146.87,283.8H55.59V192.51h91.28V283.8m273.85,0H329.44V192.51h91.28V283.8m273.84,0H603.28V192.51h91.28V283.8m273.85,0H877.13V192.51h91.28V283.8M283.8,420.72H192.51V329.44H283.8v91.28m273.84,0H466.36V329.44h91.28v91.28m273.85,0H740.21V329.44h91.28v91.28M146.87,557.64H55.59V466.36h91.28v91.28m273.85,0H329.44V466.36h91.28v91.28m273.84,0H603.28V466.36h91.28v91.28m273.85,0H877.13V466.36h91.28v91.28M283.8,694.56H192.51V603.28H283.8v91.28m273.84,0H466.36V603.28h91.28v91.28m273.85,0H740.21V603.28h91.28v91.28M146.87,831.49H55.59V740.21h91.28v91.28m273.85,0H329.44V740.21h91.28v91.28m273.84,0H603.28V740.21h91.28v91.28m273.85,0H877.13V740.21h91.28v91.28M283.8,968.41H192.51V877.13H283.8v91.28m273.84,0H466.36V877.13h91.28v91.28"/><rect class="cls-2" x="92.1" y="283.8" width="839.79" height="456.41"/><path d="M230.75,483l32.49-83H252l-22.41,60.29q-2.55,6.8-4.48,13.59-1.75-6.35-4.35-13.59L199.22,400H187.33l32.15,83Zm92.89-13.3A23.67,23.67,0,0,1,308,475a26.86,26.86,0,0,1-14.09-3.91,22.94,22.94,0,0,1-9.59-11.8,50.6,50.6,0,0,1-3.09-18.48,49.76,49.76,0,0,1,2.6-15.94,24.27,24.27,0,0,1,9-12.31q6.44-4.59,16-4.58,8.33,0,13.82,4.13t8.37,13.19l10.81-2.55Q338.53,411.3,330,405t-20.94-6.34a41.16,41.16,0,0,0-20.12,5,33.93,33.93,0,0,0-14.1,14.66q-5,9.65-4.95,22.61a56.37,56.37,0,0,0,4.39,22.25A34,34,0,0,0,287.1,479q8.4,5.46,21.82,5.46,13,0,21.93-7.1t12.43-20.63l-11-2.78q-2.26,10.49-8.66,15.8Zm59.21-11.61V447.87H351.54v10.24Zm75.79-7.64v15.45a35.79,35.79,0,0,1-10.3,5.86,36.87,36.87,0,0,1-13.93,2.75,34.51,34.51,0,0,1-15.51-3.62,24.54,24.54,0,0,1-11.12-11.1Q404,452.34,404,441.24a43.44,43.44,0,0,1,3.17-16.69,28.64,28.64,0,0,1,5.24-8.21,24.21,24.21,0,0,1,8.86-6,33.62,33.62,0,0,1,13-2.29,29,29,0,0,1,11.44,2.18,19,19,0,0,1,7.92,5.8,30.63,30.63,0,0,1,4.65,10l9.9-2.72a36,36,0,0,0-6.28-13.58,27.11,27.11,0,0,0-11.41-8.13,43.45,43.45,0,0,0-16.27-2.91,45.75,45.75,0,0,0-21.91,5.09,33.67,33.67,0,0,0-14.57,15.6,51.33,51.33,0,0,0-5.07,22.61,47.8,47.8,0,0,0,5.09,22.14,34.66,34.66,0,0,0,15.09,15.14A47.14,47.14,0,0,0,435,484.43a49.56,49.56,0,0,0,17.66-3.25,62.29,62.29,0,0,0,16.7-9.71V440.68l-35.16.05v9.74ZM496.74,483V446.17h12.73a33.63,33.63,0,0,1,6.12.39,16.74,16.74,0,0,1,5,2.21,25,25,0,0,1,5.57,5.55q3.12,4,7.93,11.43l11,17.27h13.81l-14.43-22.59a57.44,57.44,0,0,0-9.12-11,29,29,0,0,0-6.62-4.13q11.94-1.63,17.66-7.7a20.86,20.86,0,0,0,5.72-14.88,23.47,23.47,0,0,0-3.46-12.51,18.39,18.39,0,0,0-9.22-7.9Q533.65,400,522.55,400H485.76v83Zm0-73.81H523q9.22,0,13.5,3.79a12.36,12.36,0,0,1,4.28,9.68,13.47,13.47,0,0,1-2.21,7.44,12.54,12.54,0,0,1-6.45,5q-4.25,1.56-11.78,1.56h-23.6V409.21ZM582.16,483V400h-11v83Zm49.3,0a56.18,56.18,0,0,0,13.33-1.42,30.77,30.77,0,0,0,9.91-4.16,30.1,30.1,0,0,0,7.55-7.53,40.49,40.49,0,0,0,5.66-12.08,58,58,0,0,0,2.21-16.76,55.85,55.85,0,0,0-3.25-19.72A33.83,33.83,0,0,0,657,407.17a28.08,28.08,0,0,0-12.17-5.95A69.42,69.42,0,0,0,630.1,400H601.51v83Zm-19-73.19h17.43q9.8,0,14.21,1.7,6.11,2.37,10.39,9.36t4.27,20a51.47,51.47,0,0,1-2.18,16,26.16,26.16,0,0,1-6.09,10.5,18.48,18.48,0,0,1-7.44,4.3q-4.67,1.53-12.88,1.53H612.5v-63.4ZM721.6,478q7.21,6.51,18.14,6.51,12.12,0,20-7.56a24.46,24.46,0,0,0,7.93-18.42q0-8-4.08-13.39a19.31,19.31,0,0,0-11.43-7.05,19.69,19.69,0,0,0,8.55-7,17.52,17.52,0,0,0,2.88-9.79,20.44,20.44,0,0,0-3-10.7,21.11,21.11,0,0,0-8.74-7.95,27.17,27.17,0,0,0-12.51-2.91q-9.86,0-16.47,5.63t-8.49,15.88L724.57,423q1.14-7.47,5.1-11.21a13.88,13.88,0,0,1,9.91-3.74,13.5,13.5,0,0,1,9.79,3.68,12.4,12.4,0,0,1,3.79,9.29q0,7.06-5.21,10.47a21,21,0,0,1-11.71,3.39,14.38,14.38,0,0,1-1.65-.11l-1.13,8.94a29.52,29.52,0,0,1,7.19-1.13,15.84,15.84,0,0,1,11.66,4.56,15.63,15.63,0,0,1,4.59,11.57,16.77,16.77,0,0,1-5,12.34,16.43,16.43,0,0,1-12.14,5,14.77,14.77,0,0,1-10.27-3.82q-4.21-3.83-6-12.49l-10.19,1.36A25.17,25.17,0,0,0,721.6,478ZM786,475.83q6.85,8.61,18.85,8.6,9.12,0,15.09-4.89t9-13.87q3-9,3-23.58,0-12.33-1.87-19.61a41.45,41.45,0,0,0-5.15-12.34,22.45,22.45,0,0,0-8.32-7.76,24.57,24.57,0,0,0-11.72-2.68q-9.06,0-15,4.86t-9,13.84q-3,9-3,23.69,0,23.39,8.21,33.74Zm7.53-61.76a13.06,13.06,0,0,1,11.21-5.94q7.13,0,11.91,6.74t4.79,27.22q0,20.39-4.79,27.17t-11.8,6.8q-7,0-11.8-6.77t-4.78-27.2q0-20.43,5.26-28Z"/><path d="M427.48,578.78q-4.11,5.46-4.1,13.56a24.2,24.2,0,0,0,7.53,18.14q7.51,7.28,19.81,7.27t19.81-7.24a23.85,23.85,0,0,0,7.53-17.89,22.1,22.1,0,0,0-4-13.25,22.35,22.35,0,0,0-11.64-8,19,19,0,0,0,9.2-6.59,16.93,16.93,0,0,0,3-10A20.46,20.46,0,0,0,468,539.32q-6.63-6.3-17.49-6.31t-17.32,6.17a20.16,20.16,0,0,0-6.51,15.23,17.37,17.37,0,0,0,3,10.3,19.12,19.12,0,0,0,9.4,6.62,20.62,20.62,0,0,0-11.69,7.45ZM441,545.13a13.35,13.35,0,0,1,9.68-3.74,13.18,13.18,0,0,1,9.65,3.82,12.7,12.7,0,0,1,3.88,9.43,12.26,12.26,0,0,1-3.77,9.08,13.17,13.17,0,0,1-9.65,3.71,13.46,13.46,0,0,1-9.85-3.74,13,13,0,0,1-3.79-9.62,12,12,0,0,1,3.85-8.94Zm-2.4,35.37a16.09,16.09,0,0,1,11.91-4.75,16.78,16.78,0,0,1,12.26,4.81,16.37,16.37,0,0,1,4.89,12.17,16.1,16.1,0,0,1-4.75,11.95,16.45,16.45,0,0,1-12.06,4.69,17.93,17.93,0,0,1-8.77-2.23,14.63,14.63,0,0,1-6.15-6.31,18.54,18.54,0,0,1-2.06-8.44,16.16,16.16,0,0,1,4.73-11.89Zm57.76,35.84,15.79-23.72,3.29,5,12.34,18.68h12.51l-22.36-31.82,20.77-28.3H526.51l-10.13,14.21q-2.1,2.88-4.59,6.62c-1.05-1.81-2.45-4-4.18-6.73l-9.23-14.1H485.64L506,585.09l-22,31.25Zm53.58-37.56a21.9,21.9,0,0,0-4.11,13.56,24.2,24.2,0,0,0,7.53,18.14q7.53,7.28,19.81,7.27T593,610.51a23.85,23.85,0,0,0,7.53-17.89,22,22,0,0,0-4-13.25,22.33,22.33,0,0,0-11.63-8,19.07,19.07,0,0,0,9.2-6.59,16.93,16.93,0,0,0,3-10,20.46,20.46,0,0,0-6.62-15.37Q583.85,533,573,533t-17.33,6.17a20.16,20.16,0,0,0-6.51,15.23,17.31,17.31,0,0,0,3.06,10.3,19.12,19.12,0,0,0,9.4,6.62,20.59,20.59,0,0,0-11.69,7.45Zm13.5-33.65a13.33,13.33,0,0,1,9.68-3.74,13.19,13.19,0,0,1,9.65,3.82,12.74,12.74,0,0,1,3.88,9.43,12.26,12.26,0,0,1-3.77,9.08,13.17,13.17,0,0,1-9.65,3.71,13.44,13.44,0,0,1-9.85-3.74,12.91,12.91,0,0,1-3.79-9.62,12,12,0,0,1,3.85-8.94ZM561,580.5a16.11,16.11,0,0,1,11.92-4.75,16.76,16.76,0,0,1,12.25,4.81,16.34,16.34,0,0,1,4.9,12.17,16.14,16.14,0,0,1-4.75,11.95,16.45,16.45,0,0,1-12.06,4.69,18,18,0,0,1-8.78-2.23,14.66,14.66,0,0,1-6.14-6.31,18.41,18.41,0,0,1-2.06-8.44A16.19,16.19,0,0,1,561,580.5Z"/></g></svg>