<?xml version="1.0" encoding="utf-8"?>
<!-- Generator: Adobe Illustrator 25.0.1, SVG Export Plug-In . SVG Version: 6.00 Build 0)  -->
<svg version="1.1" id="VDO_Sceptron_Range" xmlns="http://www.w3.org/2000/svg" xmlns:xlink="http://www.w3.org/1999/xlink" x="0px"
	 y="0px" viewBox="0 0 1024 1024" style="enable-background:new 0 0 1024 1024;" xml:space="preserve">
<style type="text/css">
	.st0{fill-rule:evenodd;clip-rule:evenodd;fill:#BBBBBB;stroke:#000000;stroke-miterlimit:10;}
	.st1{fill:none;stroke:#000000;stroke-linecap:round;stroke-linejoin:round;stroke-miterlimit:10;}
	.st2{fill-rule:evenodd;clip-rule:evenodd;fill:#FFFFFF;stroke:#000000;stroke-miterlimit:10;}
	.st3{stroke:#000000;stroke-miterlimit:10;}
</style>
<g id="_x33_20mm-No_Diff_1_">
	<rect x="56.7" y="439.4" class="st0" width="907.1" height="141.7"/>
	<rect x="56.7" y="439.4" class="st1" width="907.1" height="141.7"/>
	<polyline class="st2" points="877,482.6 877,537.8 143.5,537.8 143.5,482.6 877,482.6 	"/>
	<path class="st3" d="M161.7,525.8l13.5-34.4h-4.6l-9.3,25c-0.7,1.9-1.3,3.8-1.9,5.6c-0.5-1.7-1.1-3.6-1.8-5.6l-8.9-25h-4.9
		l13.3,34.4H161.7L161.7,525.8z M191.6,525.8c2.1,0,3.9-0.2,5.5-0.6c1.6-0.4,3-1,4.1-1.7c1.1-0.8,2.2-1.8,3.1-3.1c1-1.3,1.7-3,2.3-5
		s0.9-4.3,0.9-6.9c0-3.1-0.4-5.8-1.3-8.2c-0.9-2.4-2.3-4.3-4.1-5.9c-1.4-1.2-3.1-2-5-2.5c-1.4-0.3-3.4-0.5-6.1-0.5h-11.8v34.4H191.6
		L191.6,525.8z M183.8,495.5h7.2c2.7,0,4.7,0.2,5.9,0.7c1.7,0.7,3.1,1.9,4.3,3.9c1.2,1.9,1.8,4.7,1.8,8.3c0,2.6-0.3,4.8-0.9,6.6
		c-0.6,1.8-1.4,3.3-2.5,4.3c-0.8,0.8-1.8,1.4-3.1,1.8s-3.1,0.6-5.3,0.6h-7.3V495.5L183.8,495.5z M214.5,517.7
		c1.3,2.7,3.2,4.8,5.8,6.4c2.5,1.6,5.4,2.3,8.7,2.3c3,0,5.8-0.7,8.3-2.1c2.6-1.4,4.6-3.5,6-6.2c1.4-2.7,2.1-5.9,2.1-9.4
		c0-3.4-0.7-6.5-2-9.2c-1.3-2.7-3.3-4.8-5.8-6.3c-2.5-1.5-5.4-2.3-8.6-2.3c-4.8,0-8.8,1.6-11.9,4.8c-3.1,3.2-4.6,7.7-4.6,13.4
		C212.5,512.1,213.2,515,214.5,517.7L214.5,517.7z M220.7,498.1c2.3-2.2,5.1-3.3,8.3-3.3c2.3,0,4.3,0.6,6.1,1.7
		c1.8,1.1,3.2,2.8,4.1,4.9c0.9,2.1,1.4,4.5,1.4,7.3c0,4.4-1.1,7.8-3.3,10.2c-2.2,2.4-5,3.6-8.4,3.6c-3.4,0-6.2-1.2-8.4-3.6
		c-2.2-2.4-3.3-5.6-3.3-9.8C217.2,504,218.4,500.3,220.7,498.1L220.7,498.1z M264.9,521c1.2,1.8,2.8,3.2,4.9,4.1
		c2.1,0.9,4.7,1.4,7.8,1.4c2.5,0,4.7-0.4,6.6-1.3c2-0.9,3.5-2.2,4.5-3.8c1-1.6,1.6-3.3,1.6-5.2c0-1.8-0.5-3.5-1.4-4.9
		c-1-1.4-2.4-2.6-4.4-3.5c-1.4-0.6-3.9-1.4-7.6-2.2c-3.7-0.8-6-1.7-6.9-2.4c-0.9-0.8-1.3-1.8-1.3-3c0-1.4,0.6-2.6,1.9-3.6
		c1.3-1,3.3-1.5,6-1.5c2.6,0,4.6,0.6,6,1.7c1.4,1.1,2.1,2.8,2.4,4.9l4.4-0.3c-0.1-2-0.6-3.8-1.7-5.4c-1-1.6-2.5-2.8-4.5-3.6
		s-4.2-1.2-6.7-1.2c-2.3,0-4.4,0.4-6.3,1.2c-1.9,0.8-3.3,1.9-4.3,3.4c-1,1.5-1.5,3.1-1.5,4.9c0,1.6,0.4,3,1.2,4.3
		c0.8,1.3,2,2.3,3.7,3.2c1.3,0.7,3.5,1.4,6.6,2.1c3.2,0.8,5.2,1.3,6.1,1.7c1.4,0.5,2.5,1.2,3.1,2c0.6,0.8,0.9,1.7,0.9,2.8
		c0,1.1-0.3,2-1,2.9c-0.6,0.9-1.6,1.6-3,2.1c-1.3,0.5-2.9,0.8-4.6,0.8c-2,0-3.7-0.3-5.3-1c-1.6-0.7-2.7-1.6-3.5-2.7
		c-0.7-1.1-1.2-2.5-1.4-4.2l-4.3,0.4C263.1,517.1,263.7,519.2,264.9,521L264.9,521z M317.5,520.3c-1.8,1.5-3.9,2.2-6.5,2.2
		c-2.1,0-4-0.5-5.8-1.6c-1.8-1.1-3.1-2.7-4-4.9c-0.9-2.2-1.3-4.7-1.3-7.7c0-2.3,0.4-4.5,1.1-6.6c0.7-2.1,2-3.8,3.7-5.1
		c1.8-1.3,4-1.9,6.6-1.9c2.3,0,4.2,0.6,5.7,1.7c1.5,1.1,2.7,3,3.5,5.5l4.5-1.1c-0.9-3.2-2.6-5.6-4.9-7.4c-2.3-1.7-5.2-2.6-8.7-2.6
		c-3,0-5.8,0.7-8.3,2.1c-2.5,1.4-4.5,3.4-5.8,6.1c-1.4,2.7-2.1,5.8-2.1,9.4c0,3.3,0.6,6.4,1.8,9.2c1.2,2.9,3,5,5.3,6.6
		c2.3,1.5,5.3,2.3,9,2.3c3.6,0,6.6-1,9.1-2.9c2.5-2,4.2-4.8,5.1-8.5l-4.5-1.1C320.5,516.7,319.3,518.9,317.5,520.3L317.5,520.3z
		 M357,525.8v-4.1h-21.1v-11.7h19v-4h-19v-10.5h20.3v-4.1h-24.8v34.4H357L357,525.8z M367.8,525.8v-14h8.8c4.9,0,8.2-1,10.1-3
		c1.9-2,2.8-4.5,2.8-7.4c0-1.7-0.3-3.3-1-4.7c-0.7-1.4-1.6-2.5-2.8-3.3c-1.1-0.8-2.6-1.3-4.2-1.6c-1.2-0.2-2.9-0.3-5.2-0.3h-13v34.4
		H367.8L367.8,525.8z M367.8,495.5h8.8c2.1,0,3.5,0.1,4.2,0.3c1.2,0.3,2.1,1,2.9,2c0.7,1,1.1,2.3,1.1,3.7c0,2-0.6,3.5-1.9,4.6
		c-1.2,1.1-3.3,1.6-6.3,1.6h-8.9V495.5L367.8,495.5z M408.6,525.8v-30.3h11.4v-4.1h-27.2v4.1H404v30.3H408.6L408.6,525.8z
		 M429.2,525.8v-15.3h5.3c1.2,0,2,0.1,2.5,0.2c0.7,0.2,1.4,0.5,2.1,0.9c0.7,0.4,1.4,1.2,2.3,2.3c0.9,1.1,2,2.7,3.3,4.7l4.5,7.1h5.7
		l-6-9.4c-1.2-1.8-2.4-3.4-3.8-4.6c-0.6-0.6-1.5-1.1-2.7-1.7c3.3-0.5,5.7-1.5,7.3-3.2c1.6-1.7,2.4-3.7,2.4-6.2
		c0-1.9-0.5-3.6-1.4-5.2c-1-1.6-2.2-2.7-3.8-3.3c-1.6-0.6-3.9-0.9-7-0.9h-15.2v34.4H429.2L429.2,525.8z M429.2,495.3h10.9
		c2.5,0,4.4,0.5,5.6,1.6c1.2,1,1.8,2.4,1.8,4c0,1.1-0.3,2.1-0.9,3.1c-0.6,0.9-1.5,1.6-2.7,2.1c-1.2,0.4-2.8,0.6-4.9,0.6h-9.8V495.3
		L429.2,495.3z M459.9,517.7c1.3,2.7,3.2,4.8,5.8,6.4c2.5,1.6,5.4,2.3,8.7,2.3c3,0,5.8-0.7,8.3-2.1c2.6-1.4,4.6-3.5,6-6.2
		c1.4-2.7,2.1-5.9,2.1-9.4c0-3.4-0.7-6.5-2-9.2c-1.3-2.7-3.3-4.8-5.8-6.3c-2.5-1.5-5.4-2.3-8.6-2.3c-4.8,0-8.8,1.6-11.9,4.8
		c-3.1,3.2-4.6,7.7-4.6,13.4C457.9,512.1,458.5,515,459.9,517.7L459.9,517.7z M466.1,498.1c2.3-2.2,5.1-3.3,8.3-3.3
		c2.3,0,4.3,0.6,6.1,1.7c1.8,1.1,3.2,2.8,4.1,4.9c0.9,2.1,1.4,4.5,1.4,7.3c0,4.4-1.1,7.8-3.3,10.2c-2.2,2.4-5,3.6-8.4,3.6
		c-3.4,0-6.2-1.2-8.4-3.6c-2.2-2.4-3.3-5.6-3.3-9.8C462.6,504,463.7,500.3,466.1,498.1L466.1,498.1z M500.9,525.8v-27l18,27h4.7
		v-34.4h-4.4v27l-18-27h-4.7v34.4H500.9L500.9,525.8z M560.6,525.8v-8.2h4.6v-3.9h-4.6v-22.3h-3.4l-15.7,22.3v3.9h14.9v8.2H560.6
		L560.6,525.8z M545.7,513.7l10.8-15.5v15.5H545.7L545.7,513.7z M573,522.9c1.9,2.4,4.5,3.6,7.8,3.6c2.5,0,4.6-0.7,6.2-2
		c1.6-1.4,2.9-3.3,3.7-5.7c0.8-2.5,1.2-5.7,1.2-9.8c0-3.4-0.3-6.1-0.8-8.1c-0.5-2-1.2-3.7-2.1-5.1c-0.9-1.4-2.1-2.5-3.4-3.2
		c-1.4-0.7-3-1.1-4.9-1.1c-2.5,0-4.6,0.7-6.2,2c-1.6,1.3-2.9,3.3-3.7,5.7c-0.8,2.5-1.3,5.7-1.3,9.8C569.6,515.3,570.7,520,573,522.9
		L573,522.9L573,522.9z M576.1,497.3c1.2-1.6,2.7-2.5,4.6-2.5c2,0,3.6,0.9,4.9,2.8c1.3,1.9,2,5.6,2,11.3c0,5.6-0.7,9.4-2,11.2
		c-1.3,1.9-2.9,2.8-4.9,2.8c-1.9,0-3.6-0.9-4.9-2.8c-1.3-1.9-2-5.6-2-11.3C573.9,503.3,574.6,499.4,576.1,497.3L576.1,497.3
		L576.1,497.3z M622.1,515.5v-4.2h-13v4.2H622.1L622.1,515.5z M645,525.8v-27l18,27h4.7v-34.4h-4.4v27l-18-27h-4.7v34.4H645
		L645,525.8z M676.4,523c2.1,2.2,5,3.4,8.4,3.4c2.2,0,4.2-0.5,6-1.5c1.8-1,3.2-2.4,4.2-4.3c1-1.8,1.4-4.4,1.4-7.6
		c0-4-1.1-7.1-3.3-9.3c-2.2-2.2-5-3.4-8.4-3.4c-3.1,0-5.7,0.9-7.8,2.8c-2.6,2.2-3.8,5.6-3.8,10.2C673.2,517.6,674.3,520.8,676.4,523
		L676.4,523z M679.6,506.2c1.4-1.6,3.1-2.4,5.2-2.4c2.1,0,3.8,0.8,5.2,2.4c1.4,1.6,2.1,3.9,2.1,7c0,3.3-0.7,5.7-2.1,7.3
		c-1.4,1.6-3.1,2.4-5.2,2.4c-2.1,0-3.9-0.8-5.2-2.4c-1.4-1.6-2.1-4-2.1-7.2S678.2,507.8,679.6,506.2L679.6,506.2z M727.7,525.8
		c2.1,0,3.9-0.2,5.5-0.6c1.6-0.4,3-1,4.1-1.7c1.1-0.8,2.2-1.8,3.1-3.1c1-1.3,1.7-3,2.3-5s0.9-4.3,0.9-6.9c0-3.1-0.4-5.8-1.3-8.2
		c-0.9-2.4-2.3-4.3-4.1-5.9c-1.4-1.2-3.1-2-5-2.5c-1.4-0.3-3.4-0.5-6.1-0.5h-11.8v34.4H727.7L727.7,525.8z M719.9,495.5h7.2
		c2.7,0,4.7,0.2,5.9,0.7c1.7,0.7,3.1,1.9,4.3,3.9c1.2,1.9,1.8,4.7,1.8,8.3c0,2.6-0.3,4.8-0.9,6.6c-0.6,1.8-1.4,3.3-2.5,4.3
		c-0.8,0.8-1.8,1.4-3.1,1.8s-3.1,0.6-5.3,0.6h-7.3V495.5L719.9,495.5z M753.7,496.3v-4.9h-4.2v4.9H753.7L753.7,496.3z M753.7,525.8
		v-24.9h-4.2v24.9H753.7L753.7,525.8z M765.3,525.8v-21.6h4.9v-3.3h-4.9v-2.3c0-1.5,0.3-2.5,0.8-3.1c0.5-0.5,1.4-0.8,2.7-0.8
		c0.8,0,1.6,0.1,2.5,0.2l0.6-3.7c-1.4-0.3-2.8-0.4-3.9-0.4c-1.8,0-3.3,0.3-4.3,1c-1,0.7-1.7,1.6-2.1,2.7c-0.3,0.8-0.4,2.1-0.4,3.7
		v2.6h-3.7v3.3h3.7v21.6H765.3L765.3,525.8z M778.7,525.8v-21.6h4.9v-3.3h-4.9v-2.3c0-1.5,0.3-2.5,0.8-3.1c0.5-0.5,1.4-0.8,2.7-0.8
		c0.8,0,1.6,0.1,2.5,0.2l0.6-3.7c-1.4-0.3-2.8-0.4-3.9-0.4c-1.8,0-3.3,0.3-4.3,1c-1,0.7-1.7,1.6-2.1,2.7c-0.3,0.8-0.4,2.1-0.4,3.7
		v2.6h-3.7v3.3h3.7v21.6H778.7L778.7,525.8z M806.9,525.8v-24.9h-4.2v13.3c0,2.1-0.2,3.7-0.7,4.9c-0.5,1.1-1.2,2-2.4,2.6
		c-1.1,0.6-2.3,1-3.6,1s-2.3-0.3-3.2-0.9c-0.9-0.6-1.4-1.5-1.7-2.6c-0.2-0.8-0.3-2.2-0.3-4.5v-13.8h-4.2v15.4c0,1.8,0.1,3.1,0.3,3.9
		c0.2,1.2,0.7,2.3,1.3,3.1c0.6,0.9,1.6,1.6,2.8,2.1c1.3,0.6,2.6,0.8,4.1,0.8c3.3,0,6-1.4,7.9-4.2v3.7H806.9L806.9,525.8z
		 M815.1,524.4c1.7,1.3,4.2,2,7.4,2c2,0,3.7-0.3,5.2-1s2.7-1.6,3.6-2.9s1.2-2.6,1.2-4c0-1.4-0.3-2.6-1-3.6c-0.7-1-1.6-1.7-2.8-2.2
		c-1.2-0.5-3.3-1.2-6.2-2c-2.1-0.6-3.3-0.9-3.7-1.1c-0.7-0.3-1.3-0.7-1.6-1.1c-0.3-0.4-0.5-0.9-0.5-1.5c0-0.9,0.4-1.6,1.2-2.2
		c0.8-0.6,2.2-1,4.1-1c1.6,0,2.9,0.4,3.8,1.1c0.9,0.7,1.4,1.7,1.6,3l4.1-0.6c-0.3-1.6-0.8-2.9-1.5-3.9s-1.8-1.7-3.3-2.3
		s-3.2-0.8-5.1-0.8c-1.3,0-2.5,0.2-3.6,0.5c-1.1,0.3-2,0.7-2.7,1.2c-0.9,0.6-1.6,1.4-2.1,2.4c-0.5,0.9-0.8,2-0.8,3.1
		c0,1.2,0.3,2.3,0.9,3.3c0.6,1,1.5,1.8,2.7,2.4c1.2,0.6,3.3,1.2,6.4,2c2.3,0.6,3.7,1.1,4.3,1.4c0.8,0.5,1.2,1.3,1.2,2.2
		c0,1.1-0.5,2-1.4,2.8c-0.9,0.8-2.4,1.2-4.3,1.2c-1.9,0-3.4-0.4-4.5-1.3c-1.1-0.9-1.7-2.2-2-3.8l-4.2,0.7
		C812.3,521,813.4,523,815.1,524.4L815.1,524.4z M851.9,521.7c-1.1,0.8-2.4,1.2-4,1.2c-2.1,0-3.8-0.7-5.2-2.2
		c-1.4-1.5-2.2-3.5-2.3-6.3H859c0-0.5,0-0.9,0-1.1c0-4.1-1.1-7.3-3.2-9.6c-2.1-2.3-4.8-3.4-8.2-3.4c-3.4,0-6.2,1.2-8.4,3.5
		c-2.2,2.3-3.2,5.6-3.2,9.8c0,4,1.1,7.2,3.2,9.4c2.1,2.2,5,3.4,8.7,3.4c2.9,0,5.3-0.7,7.1-2.1c1.9-1.4,3.1-3.4,3.8-5.9l-4.4-0.5
		C853.9,519.6,853,520.9,851.9,521.7L851.9,521.7z M842.9,505.8c1.3-1.3,2.9-1.9,4.9-1.9c2.1,0,3.9,0.8,5.2,2.4
		c0.9,1,1.4,2.6,1.6,4.7h-13.9C840.8,508.8,841.6,507.1,842.9,505.8L842.9,505.8z M868.4,525.8v-13c0-1.8,0.2-3.4,0.7-4.9
		c0.3-1,0.8-1.8,1.6-2.3c0.7-0.6,1.6-0.8,2.5-0.8c1,0,2.1,0.3,3.1,0.9l1.5-3.9c-1.5-0.9-2.9-1.4-4.3-1.4c-1,0-1.9,0.3-2.7,0.8
		s-1.7,1.7-2.7,3.5v-3.8h-3.8v24.9H868.4L868.4,525.8z"/>
</g>
</svg>
