<svg id="ERA300" xmlns="http://www.w3.org/2000/svg" viewBox="0 0 1024 1024"><defs><style>.cls-1{fill:#ccc;}.cls-1,.cls-4{fill-rule:evenodd;}.cls-2{fill:none;stroke:#000;stroke-linecap:round;stroke-linejoin:round;stroke-width:2.83px;}.cls-3,.cls-4{fill:#fff;}</style></defs><path class="cls-1" d="M792.67,314.06h0a67,67,0,0,1,40,38.47l0-.56,44.23,26a53.52,53.52,0,0,1,7.85,5.43,52.42,52.42,0,0,1,6.73,6.76,51,51,0,0,1,5.41,7.88,52.76,52.76,0,0,1,3.88,8.72q7.4,20.81,12.93,42.22t9.16,43.2q3.6,21.8,5.29,43.84t1.4,44.14q.27,22.1-1.4,44.14t-5.29,43.84q-3.63,21.79-9.16,43.2t-12.93,42.23a53.13,53.13,0,0,1-3.88,8.72,50.39,50.39,0,0,1-5.41,7.87,52.5,52.5,0,0,1-6.73,6.77,53.52,53.52,0,0,1-7.85,5.43l-44.23,26,0-.61a67,67,0,0,1-15.83,23.6,67.05,67.05,0,0,1-11.3,8.77,67.91,67.91,0,0,1-12.91,6.15q-34.75,5.49-69.72,9.64t-70,7q-35.07,2.8-70.26,4.28t-70.36,1.57h-1.14q-35.2-.12-70.37-1.57t-70.25-4.28q-35.1-2.8-70-7t-69.72-9.64a67,67,0,0,1-40.05-38.52l0,.61-44.24-26a52.53,52.53,0,0,1-20-20.07,53.13,53.13,0,0,1-3.88-8.72q-7.38-20.82-12.93-42.23t-9.15-43.2q-3.61-21.79-5.29-43.84t-1.4-44.14q-.28-22.08,1.4-44.14t5.29-43.84q3.61-21.79,9.15-43.2t12.93-42.22a52.45,52.45,0,0,1,23.87-28.79l44.24-26,0,.56a66.9,66.9,0,0,1,40-38.47q34.77-5.51,69.74-9.66t70-7q35.08-2.82,70.27-4.29t70.37-1.57h1.1q35.19.1,70.37,1.57t70.27,4.29q35.08,2.81,70.05,7t69.73,9.66m-597,120.75-1.24-.05-1.24-.24-1.22-.25-1.16-.45-1.16-.44-1.07-.64-1.09-.63-1-.8H183l-3.28-.95-3.4.34-3.4.33-3,1.57-3,1.57-2.24,2.57-2.24,2.57-1.13,3.24q-4.81,16.76-8.49,33.82t-6.23,34.29q-2.57,17.26-4,34.65t-1.67,34.82q.26,17.43,1.67,34.83t4,34.63q2.55,17.26,6.23,34.31t8.49,33.82l1.13,3.22,2.24,2.59,2.24,2.57,3,1.57,3,1.56,3.4.34,3.4.33L183,729h3.51l1-.8,1.08-.64,1.07-.63,1.16-.45L192,726l1.21-.25,1.24-.25,1.24,0,16.15-3.53-6.33-141.8,6.31-141.8-16.14-3.52M827.75,725.46l1.25,0,1.22.25,1.22.25,1.16.44,1.17.45,1.08.63,1.07.64,1,.8h3.51l3.28.94,3.4-.33,3.4-.34,3-1.56,3-1.57,2.23-2.57,2.25-2.59,1.13-3.22q4.79-16.77,8.48-33.82t6.23-34.31q2.57-17.24,4-34.63t1.68-34.83q-.27-17.43-1.68-34.82t-4-34.65q-2.54-17.24-6.23-34.29t-8.48-33.82L861,439.31l-2.25-2.57-2.23-2.57-3-1.57-3-1.57-3.4-.33-3.4-.34-3.28.95H836.9l-1,.8-1.08.63-1.08.64-1.16.44-1.17.45-1.22.25-1.22.24-1.25.05-16.15,3.52,6.31,141.8-6.32,141.8,16.15,3.53"/><path class="cls-2" d="M792.67,314.06h0a67,67,0,0,1,40,38.47l0-.56,44.23,26a53.52,53.52,0,0,1,7.85,5.43,52.42,52.42,0,0,1,6.73,6.76,51,51,0,0,1,5.41,7.88,52.76,52.76,0,0,1,3.88,8.72q7.4,20.81,12.93,42.22t9.16,43.2q3.6,21.8,5.29,43.84t1.4,44.14q.27,22.1-1.4,44.14t-5.29,43.84q-3.63,21.79-9.16,43.2t-12.93,42.23a53.13,53.13,0,0,1-3.88,8.72,50.39,50.39,0,0,1-5.41,7.87,52.5,52.5,0,0,1-6.73,6.77,53.52,53.52,0,0,1-7.85,5.43l-44.23,26,0-.61a67,67,0,0,1-15.83,23.6,67.05,67.05,0,0,1-11.3,8.77,67.91,67.91,0,0,1-12.91,6.15q-34.75,5.49-69.72,9.64t-70,7q-35.07,2.8-70.26,4.28t-70.36,1.57h-1.14q-35.2-.12-70.37-1.57t-70.25-4.28q-35.1-2.8-70-7t-69.72-9.64a67,67,0,0,1-40.05-38.52l0,.61-44.24-26a52.53,52.53,0,0,1-20-20.07,53.13,53.13,0,0,1-3.88-8.72q-7.38-20.82-12.93-42.23t-9.15-43.2q-3.61-21.79-5.29-43.84t-1.4-44.14q-.28-22.08,1.4-44.14t5.29-43.84q3.61-21.79,9.15-43.2t12.93-42.22a52.45,52.45,0,0,1,23.87-28.79l44.24-26,0,.56a66.9,66.9,0,0,1,40-38.47q34.77-5.51,69.74-9.66t70-7q35.08-2.82,70.27-4.29t70.37-1.57h1.1q35.19.1,70.37,1.57t70.27,4.29q35.08,2.81,70.05,7t69.73,9.66m-597,120.75-1.24-.05-1.24-.24-1.22-.25-1.16-.45-1.16-.44-1.07-.64-1.09-.63-1-.8H183l-3.28-.95-3.4.34-3.4.33-3,1.57-3,1.57-2.24,2.57-2.24,2.57-1.13,3.24q-4.81,16.76-8.49,33.82t-6.23,34.29q-2.57,17.26-4,34.65t-1.67,34.82q.26,17.43,1.67,34.83t4,34.63q2.55,17.26,6.23,34.31t8.49,33.82l1.13,3.22,2.24,2.59,2.24,2.57,3,1.57,3,1.56,3.4.34,3.4.33L183,729h3.51l1-.8,1.08-.64,1.07-.63,1.16-.45L192,726l1.21-.25,1.24-.25,1.24,0,16.15-3.53-6.33-141.8,6.31-141.8-16.14-3.52M827.75,725.46l1.25,0,1.22.25,1.22.25,1.16.44,1.17.45,1.08.63,1.07.64,1,.8h3.51l3.28.94,3.4-.33,3.4-.34,3-1.56,3-1.57,2.23-2.57,2.25-2.59,1.13-3.22q4.79-16.77,8.48-33.82t6.23-34.31q2.57-17.24,4-34.63t1.68-34.83q-.27-17.43-1.68-34.82t-4-34.65q-2.54-17.24-6.23-34.29t-8.48-33.82L861,439.31l-2.25-2.57-2.23-2.57-3-1.57-3-1.57-3.4-.33-3.4-.34-3.28.95H836.9l-1,.8-1.08.63-1.08.64-1.16.44-1.17.45-1.22.25-1.22.24-1.25.05-16.15,3.52,6.31,141.8-6.32,141.8,16.15,3.53"/><path class="cls-1" d="M845.66,897.52l-141.1,110.23-189.56.7-189.54-.7L184.36,897.52l-7-18.95V378.71q16.34-31.69,30.6-64.4t26.42-66.23q12.14-33.53,22.12-67.78t17.74-69.07L315.62,74H714.38l41.42,37.21q7.77,34.81,17.74,69.07t22.14,67.78q12.14,33.54,26.41,66.23t30.59,64.4V878.57l-7,18.95"/><path class="cls-2" d="M845.66,897.52l-141.1,110.23-189.56.7-189.54-.7L184.36,897.52l-7-18.95V378.71q16.34-31.69,30.6-64.4t26.42-66.23q12.14-33.53,22.12-67.78t17.74-69.07L315.62,74H714.38l41.42,37.21q7.77,34.81,17.74,69.07t22.14,67.78q12.14,33.54,26.41,66.23t30.59,64.4V878.57l-7,18.95"/><polyline class="cls-1" points="340.89 72.94 344.4 16.77 685.61 16.77 689.11 72.94 340.89 72.94"/><polygon class="cls-2" points="340.89 72.94 344.4 16.77 685.61 16.77 689.11 72.94 340.89 72.94 340.89 72.94"/><path class="cls-1" d="M515,106.32h0q-26.4,1.84-52.57,6t-51.83,10.6q-25.68,6.44-50.7,15.12t-49.18,19.52q-8.39,26.58-18.14,52.72T271.76,262q-11.08,25.58-23.45,50.57t-26.05,49.29V882.14a105.9,105.9,0,0,0,70.91,62.43q26.83,8,54.24,13.84t55.17,9.45q27.76,3.63,55.76,5t56,.49"/><path class="cls-2" d="M515,106.32h0q-26.4,1.84-52.57,6t-51.83,10.6q-25.68,6.44-50.7,15.12t-49.18,19.52q-8.39,26.58-18.14,52.72T271.76,262q-11.08,25.58-23.45,50.57t-26.05,49.29V882.14a105.9,105.9,0,0,0,70.91,62.43q26.83,8,54.24,13.84t55.17,9.45q27.76,3.63,55.76,5t56,.49M310.72,157.57,274.2,111.23M222.26,361.86l-44.93,16.85m44.93,503.43-37.9,15.38"/><path class="cls-1" d="M515,106.32h0q26.41,1.84,52.57,6t51.83,10.6q25.68,6.44,50.71,15.12t49.17,19.52q8.38,26.58,18.14,52.72T758.24,262q11.09,25.58,23.47,50.57t26,49.29V882.14a105.75,105.75,0,0,1-48.17,53.48,106.38,106.38,0,0,1-22.74,9q-26.82,8-54.24,13.84t-55.17,9.45q-27.78,3.63-55.76,5t-56,.49"/><path class="cls-2" d="M515,106.32h0q26.41,1.84,52.57,6t51.83,10.6q25.68,6.44,50.71,15.12t49.17,19.52q8.38,26.58,18.14,52.72T758.24,262q11.09,25.58,23.47,50.57t26,49.29V882.14a105.75,105.75,0,0,1-48.17,53.48,106.38,106.38,0,0,1-22.74,9q-26.82,8-54.24,13.84t-55.17,9.45q-27.78,3.63-55.76,5t-56,.49M719.28,157.57l36.52-46.34m52,250.63,44.92,16.85M807.75,882.14l37.91,15.38"/><path class="cls-1" d="M45.45,424.62l107.41.7,7,151-7,150.94-107.41.7a333.84,333.84,0,0,1-15.1-36.15,332.72,332.72,0,0,1-18.6-115.49,333.43,333.43,0,0,1,7.86-77.83,332.36,332.36,0,0,1,25.84-73.82"/><path class="cls-2" d="M45.45,424.62l107.41.7,7,151-7,150.94-107.41.7a333.84,333.84,0,0,1-15.1-36.15,332.72,332.72,0,0,1-18.6-115.49,333.43,333.43,0,0,1,7.86-77.83,332.36,332.36,0,0,1,25.84-73.82"/><path class="cls-1" d="M45.45,424.62,47,425l1.35.71,1.36.72,1.13,1,1.14,1,.82,1.29.84,1.29.47,1.46q3.44,11.19,6,22.64T64.1,478.2q1.56,11.6,2.17,23.3t.24,23.4V627.63q.35,11.7-.25,23.4t-2.16,23.31q-1.57,11.6-4.07,23t-6,22.65l-.47,1.45-.83,1.29-.83,1.3-1.13,1-1.13,1-1.37.71-1.35.72-1.49.34"/><path class="cls-2" d="M45.45,424.62,47,425l1.35.71,1.36.72,1.13,1,1.14,1,.82,1.29.84,1.29.47,1.46q3.44,11.19,6,22.64T64.1,478.2q1.56,11.6,2.17,23.3t.24,23.4V627.63q.35,11.7-.25,23.4t-2.16,23.31q-1.57,11.6-4.07,23t-6,22.65l-.47,1.45-.83,1.29-.83,1.3-1.13,1-1.13,1-1.37.71-1.35.72-1.49.34"/><path class="cls-1" d="M44.66,428l1.05.24,1,.51.94.5.81.72.79.73.58.91.59.9.34,1q3.39,11.06,5.88,22.36t4,22.75q1.55,11.46,2.14,23T63,524.8V627.73q.35,11.55-.24,23.12t-2.14,23q-1.53,11.48-4,22.77T50.73,719l-.34,1-.59.9-.58.92-.79.72-.8.72-1,.5-1,.51-1,.24"/><path class="cls-2" d="M44.66,428l1.05.24,1,.51.94.5.81.72.79.73.58.91.59.9.34,1q3.39,11.06,5.88,22.36t4,22.75q1.55,11.46,2.14,23T63,524.8V627.73q.35,11.55-.24,23.12t-2.14,23q-1.53,11.48-4,22.77T50.73,719l-.34,1-.59.9-.58.92-.79.72-.8.72-1,.5-1,.51-1,.24"/><path class="cls-1" d="M978,424.62l-107.41.7-7,151,7,150.94,107.41.7a332.07,332.07,0,0,0,33.7-151.64,332,332,0,0,0-7.86-77.83,336,336,0,0,0-10.74-37.67A331.84,331.84,0,0,0,978,424.62"/><path class="cls-2" d="M978,424.62l-107.41.7-7,151,7,150.94,107.41.7a332.07,332.07,0,0,0,33.7-151.64,332,332,0,0,0-7.86-77.83,336,336,0,0,0-10.74-37.67A331.84,331.84,0,0,0,978,424.62"/><path class="cls-1" d="M978,424.62l-1.49.35-1.37.71-1.35.72-1.13,1-1.13,1-.83,1.29-.83,1.29-.49,1.46q-3.44,11.19-6,22.64t-4.07,23.05q-1.57,11.6-2.17,23.3t-.25,23.4V627.63q-.36,11.7.25,23.4t2.17,23.31q1.55,11.6,4.07,23t6,22.65l.48,1.45.83,1.29.83,1.3,1.14,1,1.13,1,1.35.71,1.36.72,1.5.34"/><path class="cls-2" d="M978,424.62l-1.49.35-1.37.71-1.35.72-1.13,1-1.13,1-.83,1.29-.83,1.29-.49,1.46q-3.44,11.19-6,22.64t-4.07,23.05q-1.57,11.6-2.17,23.3t-.25,23.4V627.63q-.36,11.7.25,23.4t2.17,23.31q1.55,11.6,4.07,23t6,22.65l.48,1.45.83,1.29.83,1.3,1.14,1,1.13,1,1.35.71,1.36.72,1.5.34"/><path class="cls-1" d="M978.74,428l-1,.24-1,.51-1,.5L975,430l-.8.73-.59.91-.58.9-.33,1q-3.41,11.06-5.88,22.36t-4,22.75q-1.56,11.46-2.15,23t-.24,23.12V627.73q-.36,11.55.24,23.12t2.15,23q1.53,11.48,4,22.77T972.67,719l.34,1,.58.9.59.92.79.72.8.72,1,.5,1,.51,1.05.24"/><path class="cls-2" d="M978.74,428l-1,.24-1,.51-1,.5L975,430l-.8.73-.59.91-.58.9-.33,1q-3.41,11.06-5.88,22.36t-4,22.75q-1.56,11.46-2.15,23t-.24,23.12V627.73q-.36,11.55.24,23.12t2.15,23q1.53,11.48,4,22.77T972.67,719l.34,1,.58.9.59.92.79.72.8.72,1,.5,1,.51,1.05.24"/><rect class="cls-3" x="234.91" y="455.27" width="557.1" height="195.1"/><rect class="cls-2" x="234.91" y="455.27" width="557.1" height="195.1"/><polyline class="cls-4" points="223.55 398.33 803.37 398.33 803.37 707.3 223.55 707.3 223.55 398.33"/><path d="M258.8,520.3V423.08h70.28v11.45H271.62v29.79h53.86v11.45H271.62v33.08h59.69V520.3Zm90.31,0V423.08h43q13,0,19.74,2.62a21.63,21.63,0,0,1,10.8,9.26,27.64,27.64,0,0,1,4,14.66A24.46,24.46,0,0,1,420,467.06q-6.69,7.11-20.67,9a33.06,33.06,0,0,1,7.75,4.83,66.07,66.07,0,0,1,10.64,12.93l16.81,26.44H418.51l-12.85-20.21q-5.64-8.74-9.28-13.39a28.87,28.87,0,0,0-6.52-6.49,19.38,19.38,0,0,0-5.86-2.59,38.59,38.59,0,0,0-7.15-.46H361.94V520.3H349.11ZM361.94,466h27.62q8.82,0,13.78-1.83a14.65,14.65,0,0,0,7.54-5.85,15.79,15.79,0,0,0,2.59-8.74,14.56,14.56,0,0,0-5-11.36q-5-4.46-15.79-4.45H362V466Zm74.13,54.28,37.13-97.22h14.1l39.63,97.22H512.29L501,490.82H460.21L449.64,520.3Zm27.9-40h33l-10.1-26.86q-4.67-12.24-7-20.32a137.57,137.57,0,0,1-5.28,18.75L464,480.33Z"/><path d="M562.56,494.53l12-1.59q2.06,10.14,7,14.61a17.26,17.26,0,0,0,12,4.48,19.24,19.24,0,0,0,14.23-5.82,19.64,19.64,0,0,0,5.77-14.41,18.27,18.27,0,0,0-5.36-13.52A18.57,18.57,0,0,0,594.54,473a34,34,0,0,0-8.41,1.33l1.32-10.5a17.83,17.83,0,0,0,1.92.13A24.46,24.46,0,0,0,603,460q6.06-4,6.07-12.22a14.48,14.48,0,0,0-4.43-10.83,15.77,15.77,0,0,0-11.44-4.29A16.2,16.2,0,0,0,581.65,437q-4.62,4.37-5.95,13.11l-12-2.12q2.17-12,9.94-18.62T593,422.76a31.88,31.88,0,0,1,14.65,3.41,24.64,24.64,0,0,1,10.24,9.3A23.91,23.91,0,0,1,621.39,448,20.51,20.51,0,0,1,618,459.44a23.11,23.11,0,0,1-10,8.2,22.59,22.59,0,0,1,13.39,8.24q4.77,6.25,4.77,15.64a28.6,28.6,0,0,1-9.28,21.53q-9.27,8.84-23.45,8.83-12.8,0-21.24-7.61a29.49,29.49,0,0,1-9.64-19.74Zm75.17-22.17q0-17.22,3.55-27.74t10.54-16.19q7-5.67,17.61-5.67a28.85,28.85,0,0,1,13.75,3.15,25.89,25.89,0,0,1,9.75,9.07,49,49,0,0,1,6,14.44q2.19,8.5,2.19,22.94,0,17.08-3.51,27.6T687.1,516.19q-7,5.7-17.67,5.7-14.05,0-22.08-10-9.61-12.17-9.62-39.51Zm12.3,0q0,23.94,5.6,31.82t13.8,7.88q8.22,0,13.81-7.92t5.59-31.78q0-24-5.58-31.83t-14-7.87a15.36,15.36,0,0,0-13.14,6.94Q650,448.44,650,472.33Zm63,0q0-17.22,3.55-27.74t10.54-16.19q7-5.67,17.6-5.67a28.92,28.92,0,0,1,13.76,3.15,26,26,0,0,1,9.75,9.07,49.22,49.22,0,0,1,6,14.44q2.17,8.5,2.18,22.94,0,17.08-3.51,27.6t-10.51,16.23q-7,5.7-17.67,5.7-14.07,0-22.09-10Q713,499.71,713,472.36Zm12.3,0q0,23.94,5.59,31.82T744.71,512q8.2,0,13.8-7.92t5.6-31.78q0-24-5.58-31.83t-14-7.87a15.33,15.33,0,0,0-13.13,6.94q-6.13,8.87-6.13,32.76Z"/><path d="M236,674.78V577.56h36.62a88.23,88.23,0,0,1,14.77.93,29.27,29.27,0,0,1,12,4.54,23.72,23.72,0,0,1,7.78,9.38,31.65,31.65,0,0,1-4.93,34.24q-7.89,8.6-28.48,8.59H248.83v39.54Zm12.83-51h25.1q12.45,0,17.69-4.65t5.23-13.07a17.63,17.63,0,0,0-3.08-10.45,14.39,14.39,0,0,0-8.11-5.74q-3.26-.87-12-.86H248.83v34.77Zm77.7,51V577.56h43q13,0,19.73,2.62a21.55,21.55,0,0,1,10.8,9.26,27.64,27.64,0,0,1,4,14.66,24.5,24.5,0,0,1-6.69,17.45q-6.69,7.1-20.66,9a33.28,33.28,0,0,1,7.75,4.83,66.42,66.42,0,0,1,10.64,12.93L412,674.77H395.92l-12.85-20.21q-5.62-8.74-9.27-13.39a29.08,29.08,0,0,0-6.53-6.49,19.27,19.27,0,0,0-5.86-2.59,38.52,38.52,0,0,0-7.15-.46h-14.9v43.15Zm12.83-54.28H367q8.81,0,13.77-1.83a14.68,14.68,0,0,0,7.55-5.85,15.86,15.86,0,0,0,2.58-8.74,14.56,14.56,0,0,0-5-11.36q-5-4.46-15.79-4.45H339.36V620.5Zm80.8,6.91q0-24.18,13-37.86t33.51-13.68a46.54,46.54,0,0,1,24.25,6.42,42,42,0,0,1,16.45,17.92A58.2,58.2,0,0,1,513,626.28a57.33,57.33,0,0,1-6,26.44,40.79,40.79,0,0,1-16.89,17.65,48.25,48.25,0,0,1-23.59,6,45.84,45.84,0,0,1-24.5-6.63,42.59,42.59,0,0,1-16.37-18.08,54.83,54.83,0,0,1-5.56-24.25Zm13.25.16q0,17.56,9.44,27.67a31,31,0,0,0,23.68,10.1q14.5,0,23.87-10.2t9.37-29a49.74,49.74,0,0,0-4-20.7A30.84,30.84,0,0,0,484,591.76a31.74,31.74,0,0,0-17.32-4.87,32.86,32.86,0,0,0-23.48,9.37q-9.83,9.38-9.83,31.31Zm96.67,47.21V577.56h65.51V589H542.91v30.11h45.58v11.45H542.91v44.21Zm84.21,0V577.56h12.83v97.22Zm35,0V577.56h12.83v85.77h47.81v11.45Zm76,0V577.56h70.29V589H738.09V618.8h53.85v11.45H738.09v33.08h59.68v11.45Z"/></svg>