<svg id="VC_Strip" data-name="VC Strip" xmlns="http://www.w3.org/2000/svg" viewBox="0 0 1024 1024"><defs><style>.cls-1{fill:#bbb;}.cls-1,.cls-2{stroke:#1d1d1b;stroke-miterlimit:10;}.cls-2{fill:#fff;fill-rule:evenodd;}</style></defs><g id="_30_-_8x1" data-name="30 - 8x1"><rect class="cls-1" x="3.24" y="471.55" width="1017.53" height="80.89"/><polyline class="cls-2" points="692.21 485.42 692.21 538.58 331.79 538.58 331.79 485.42 692.21 485.42"/><path d="M344.65,529.12h5.94l11.67-32.36h-6.33l-8.26,23-8.14-23h-6.34l11.46,32.36Zm45.9-31.48a18.34,18.34,0,0,0-7.71-1.7,17.74,17.74,0,0,0-8.79,2.29,16.3,16.3,0,0,0-6.27,6,16.81,16.81,0,0,0-2.19,8.61,16.55,16.55,0,0,0,4.81,12.26,16.75,16.75,0,0,0,12.35,4.79,18.53,18.53,0,0,0,7.28-1.36,22.89,22.89,0,0,0,6.78-4.85l-4.18-4.36a17.63,17.63,0,0,1-4.88,3.65,11.89,11.89,0,0,1-4.9,1,11.62,11.62,0,0,1-5.72-1.43,10.06,10.06,0,0,1-4-4,11.52,11.52,0,0,1-1.41-5.74,10.84,10.84,0,0,1,11-11q5.49,0,9.89,4.64l4.31-4.1a18.35,18.35,0,0,0-6.39-4.81Zm12,22.35h11.17V514.4H402.51V520Zm31-22.92a10,10,0,0,0-4.62-1.13,8.92,8.92,0,0,0-6.33,2.41,7.66,7.66,0,0,0-2.57,5.78,8.44,8.44,0,0,0,1.55,4.67c1,1.57,3.3,3.78,6.83,6.66a23,23,0,0,1,3.59,3.37,3.63,3.63,0,0,1,.82,2.2,2.76,2.76,0,0,1-1.08,2.13,3.94,3.94,0,0,1-2.67.92q-3,0-5.37-4.29l-5.18,3.13a13.38,13.38,0,0,0,4.39,5.32,10.68,10.68,0,0,0,6,1.7,10,10,0,0,0,7.18-2.6,8.64,8.64,0,0,0,2.76-6.58A9.05,9.05,0,0,0,438,517a13.06,13.06,0,0,0-2.66-3.62q-.75-.76-4.28-3.72a41.51,41.51,0,0,1-4.51-4.16A2.46,2.46,0,0,1,426,504a1.87,1.87,0,0,1,.77-1.46,3,3,0,0,1,2-.65q2.49,0,4.89,3.35l4.57-4a16.77,16.77,0,0,0-4.75-4.09Zm11.26,8.12h-3.08v5.17h3.08v18.76h6V510.36h3.57v-5.17h-3.57v-8.83h-6v8.83Zm11.37,23.93h6v-9.68l0-1.16c0-3.35.32-5.59,1-6.74a2.75,2.75,0,0,1,2.34-1.71,4,4,0,0,1,1.74.53l1.87-5.17a5.31,5.31,0,0,0-5.48.3,6.5,6.5,0,0,0-2.22,2.71v-3h-5.15v23.93Zm15.47-32.67a3.68,3.68,0,0,0-1.12,2.71,3.82,3.82,0,0,0,1.13,2.8,3.67,3.67,0,0,0,2.73,1.16A3.59,3.59,0,0,0,477,502a3.72,3.72,0,0,0,1.12-2.74,3.79,3.79,0,0,0-1.13-2.77,3.79,3.79,0,0,0-5.4,0Zm-.31,32.67h6V505.19h-6v23.93Zm11.46-23.93v32.69h6V526.59a11.55,11.55,0,0,0,3.54,2.41,10,10,0,0,0,3.85.74,10.68,10.68,0,0,0,8-3.6,12.54,12.54,0,0,0,3.39-8.94,12.88,12.88,0,0,0-3.28-9.09,10.46,10.46,0,0,0-8-3.54,10.16,10.16,0,0,0-4,.81,11.21,11.21,0,0,0-3.52,2.45v-2.64Zm16.94,6.89a7.07,7.07,0,0,1,1.85,5,7.15,7.15,0,0,1-1.88,5.11,6.12,6.12,0,0,1-4.63,2,6.24,6.24,0,0,1-4.71-2,7.2,7.2,0,0,1-1.87-5.16,7,7,0,0,1,1.87-5.06,6.29,6.29,0,0,1,4.71-1.94,6.12,6.12,0,0,1,4.66,2Zm32.41-9.41a3.91,3.91,0,0,1,2.4-.81,3.39,3.39,0,0,1,2.42.87,2.86,2.86,0,0,1,.92,2.19,3.42,3.42,0,0,1-.6,1.92,4.06,4.06,0,0,1-1.69,1.41,9.89,9.89,0,0,1-3.32.7v5.28a8.94,8.94,0,0,1,5.53,1.56,4.66,4.66,0,0,1,.49,7.11,4.91,4.91,0,0,1-3.57,1.38,5,5,0,0,1-3.43-1.22,6.11,6.11,0,0,1-1.74-3.73h-6.1a11.21,11.21,0,0,0,3.26,7.76,10.63,10.63,0,0,0,7.68,2.85,11.44,11.44,0,0,0,8.18-3,9.77,9.77,0,0,0,3.21-7.38,8.28,8.28,0,0,0-1.66-5.16,8.73,8.73,0,0,0-4.61-3.07,8.31,8.31,0,0,0,3.42-2.88,7,7,0,0,0,1.18-3.94,8,8,0,0,0-2.69-6,9.43,9.43,0,0,0-6.68-2.53,9.64,9.64,0,0,0-10,8.81h5.92a3.93,3.93,0,0,1,1.47-2.08Zm19.21-2.33q-2.74,4-2.75,12.92,0,6.38,1.41,9.83a11,11,0,0,0,3.89,5.15,10.65,10.65,0,0,0,6.14,1.7,10.24,10.24,0,0,0,6-1.69,11.28,11.28,0,0,0,3.82-5.27,36.1,36.1,0,0,0,0-20,11,11,0,0,0-4-5.32,10.63,10.63,0,0,0-6.11-1.74,9.8,9.8,0,0,0-8.51,4.4Zm12.38,3.88q1.44,2.41,1.44,8.8t-1.61,9a4,4,0,0,1-3.55,2.23,4.35,4.35,0,0,1-3.79-2.35q-1.45-2.34-1.46-8.48a29.91,29.91,0,0,1,.64-7.15,6.42,6.42,0,0,1,1.84-3.44,4.2,4.2,0,0,1,2.77-1,4.24,4.24,0,0,1,3.72,2.42ZM589,520h11.18V514.4H589V520Zm49.27-11.75a8,8,0,0,0,.65-3.22,9.1,9.1,0,0,0-1.24-4.6,8.65,8.65,0,0,0-3.4-3.31,10.34,10.34,0,0,0-5-1.17,10.78,10.78,0,0,0-5.08,1.16,8.39,8.39,0,0,0-3.42,3.23,8.88,8.88,0,0,0-1.22,4.61,8.51,8.51,0,0,0,.73,3.5,10.85,10.85,0,0,0,2.19,3.13,11.39,11.39,0,0,0-3.33,3.76,9.79,9.79,0,0,0-1.11,4.65,10.16,10.16,0,0,0,1.39,5.3,8.81,8.81,0,0,0,3.69,3.5,14.07,14.07,0,0,0,6.23,1.16,13.18,13.18,0,0,0,6-1.2,9.18,9.18,0,0,0,3.76-3.58,10.06,10.06,0,0,0,1.39-5.18,9.88,9.88,0,0,0-4.6-8.41,12.37,12.37,0,0,0,2.37-3.33Zm-6.52-5.38a3.38,3.38,0,0,1,1,2.53,3.72,3.72,0,0,1-1,2.68,3.67,3.67,0,0,1-5.12,0,3.57,3.57,0,0,1-1-2.61,3.48,3.48,0,0,1,1-2.56,3.35,3.35,0,0,1,2.49-1,3.71,3.71,0,0,1,2.67,1ZM633,516.22a4.42,4.42,0,0,1,1.45,3.35,4.21,4.21,0,0,1-1.4,3.27,5.39,5.39,0,0,1-3.75,1.27,5.26,5.26,0,0,1-3.76-1.36,4.35,4.35,0,0,1-1.43-3.31,4.16,4.16,0,0,1,1.52-3.22,5.41,5.41,0,0,1,3.74-1.35,5.13,5.13,0,0,1,3.63,1.35Zm18,.31-9.09,12.59h6.86l5.66-7.85,5.7,7.85h7l-9.19-12.67,8.13-11.26h-6.86l-4.71,6.52-4.73-6.52h-7L651,516.53Z"/><polygon points="670.98 502.55 677.65 502.55 677.65 529.12 683.77 529.12 683.77 496.76 674.55 496.76 670.98 502.55 670.98 502.55"/></g></svg>