<svg id="VDO_Fatron" data-name="VDO Fatron" xmlns="http://www.w3.org/2000/svg" viewBox="0 0 1024 1024"><defs><style>.cls-1{fill:#bbb;}.cls-1,.cls-2,.cls-3,.cls-4{stroke:#1d1d1b;}.cls-1,.cls-3,.cls-4{stroke-miterlimit:10;stroke-width:1.1px;}.cls-2{fill:none;stroke-linecap:round;stroke-linejoin:round;stroke-width:0.16px;}.cls-3{fill:#fff;fill-rule:evenodd;}</style></defs><g id="_320mm-No_Diff" data-name="320mm-No Diff"><rect class="cls-1" x="12" y="433.88" width="1000" height="156.25"/><rect class="cls-2" x="12" y="433.88" width="1000" height="156.25"/><polyline class="cls-3" points="915.84 481.84 915.84 542.16 108.16 542.16 108.16 481.84 915.84 481.84"/><path class="cls-4" d="M123.15,529.46l-14.68-37.91h5.44l9.85,27.55c.8,2.21,1.46,4.28,2,6.21q.87-3.1,2-6.21L138,491.55h5.13l-14.79,37.91Zm24.46,0V491.55h13a31.79,31.79,0,0,1,6.74.54,12.8,12.8,0,0,1,5.55,2.72,15.4,15.4,0,0,1,4.48,6.48,25.4,25.4,0,0,1,1.49,9,26.5,26.5,0,0,1-1,7.65,18.34,18.34,0,0,1-2.59,5.53,13.64,13.64,0,0,1-3.44,3.43,14,14,0,0,1-4.52,1.9,25.24,25.24,0,0,1-6.08.65Zm5-4.46h8.08a19.78,19.78,0,0,0,5.88-.7,8.46,8.46,0,0,0,3.4-2,12,12,0,0,0,2.77-4.8,23.3,23.3,0,0,0,1-7.31q0-6-2-9.15a9.79,9.79,0,0,0-4.74-4.28,19.51,19.51,0,0,0-6.48-.78h-8v29Zm31.65-14q0-9.44,5.06-14.77a17.24,17.24,0,0,1,13.07-5.33,18.15,18.15,0,0,1,9.46,2.5,16.42,16.42,0,0,1,6.41,7,22.62,22.62,0,0,1,2.21,10.17,22.32,22.32,0,0,1-2.32,10.31,15.84,15.84,0,0,1-6.59,6.88,18.81,18.81,0,0,1-9.2,2.34,17.89,17.89,0,0,1-9.55-2.58,16.54,16.54,0,0,1-6.38-7,21.36,21.36,0,0,1-2.17-9.46Zm5.16.06q0,6.85,3.68,10.79a12.84,12.84,0,0,0,18.55,0q3.66-4,3.65-11.29a19.43,19.43,0,0,0-1.56-8.07,11.94,11.94,0,0,0-4.57-5.35,12.38,12.38,0,0,0-6.76-1.9,12.82,12.82,0,0,0-9.15,3.65q-3.84,3.66-3.84,12.21Z"/><path class="cls-4" d="M240,517.27l4.71-.42a10.57,10.57,0,0,0,1.57,4.68,8.43,8.43,0,0,0,3.81,3,14.37,14.37,0,0,0,5.81,1.13,13.86,13.86,0,0,0,5.06-.86,7.09,7.09,0,0,0,3.27-2.34,5.5,5.5,0,0,0,1.07-3.25,4.89,4.89,0,0,0-1-3.1,7.73,7.73,0,0,0-3.41-2.24A68.17,68.17,0,0,0,254.1,512a34.89,34.89,0,0,1-7.32-2.37,10.18,10.18,0,0,1-4-3.54,8.67,8.67,0,0,1-1.34-4.73A9.72,9.72,0,0,1,243,496a10.12,10.12,0,0,1,4.76-3.8,18,18,0,0,1,7-1.29,18.87,18.87,0,0,1,7.43,1.36,10.62,10.62,0,0,1,4.95,4,11.38,11.38,0,0,1,1.86,6l-4.79.37a7.73,7.73,0,0,0-2.63-5.41q-2.24-1.83-6.6-1.83-4.56,0-6.64,1.67a5,5,0,0,0-2.08,4,4.33,4.33,0,0,0,1.48,3.36q1.44,1.32,7.56,2.7a50.93,50.93,0,0,1,8.39,2.41,11.48,11.48,0,0,1,4.89,3.86,9.4,9.4,0,0,1,1.58,5.38,10.29,10.29,0,0,1-1.73,5.69,11.39,11.39,0,0,1-5,4.16,17.31,17.31,0,0,1-7.3,1.48,21.74,21.74,0,0,1-8.61-1.5,12,12,0,0,1-5.45-4.51,12.73,12.73,0,0,1-2.08-6.8Zm64-1.13,5,1.27a17,17,0,0,1-5.66,9.43,15.61,15.61,0,0,1-10,3.24,18,18,0,0,1-9.95-2.49,15.61,15.61,0,0,1-5.84-7.23,25.86,25.86,0,0,1-2-10.16,22.44,22.44,0,0,1,2.26-10.33,15.44,15.44,0,0,1,6.42-6.69,18.71,18.71,0,0,1,9.17-2.29,15.42,15.42,0,0,1,9.55,2.9,15,15,0,0,1,5.39,8.14l-4.92,1.17a11.67,11.67,0,0,0-3.82-6,10.13,10.13,0,0,0-6.29-1.89,12.24,12.24,0,0,0-7.29,2.09,11.07,11.07,0,0,0-4.11,5.62,22.71,22.71,0,0,0-1.19,7.28,23,23,0,0,0,1.41,8.43,10.42,10.42,0,0,0,4.37,5.39,12.25,12.25,0,0,0,6.43,1.78,10.8,10.8,0,0,0,7.12-2.42,12.5,12.5,0,0,0,4-7.21Zm11.27,13.32V491.55h27.41V496H320.24v11.62h21v4.47h-21V525h23.28v4.46Zm35.19,0V491.55h14.28a34.54,34.54,0,0,1,5.76.36,11.44,11.44,0,0,1,4.68,1.77,9.36,9.36,0,0,1,3,3.66,12.34,12.34,0,0,1-1.92,13.35q-3.08,3.36-11.11,3.35h-9.72v15.42Zm5-19.88h9.79c3.24,0,5.54-.61,6.9-1.81a6.47,6.47,0,0,0,2-5.1,6.88,6.88,0,0,0-1.2-4.08,5.62,5.62,0,0,0-3.16-2.24,21.89,21.89,0,0,0-4.68-.33h-9.69v13.56Zm39.91,19.88V496H382.85v-4.46h30V496H400.34v33.45Zm22.76,0V491.55h16.78a22.4,22.4,0,0,1,7.7,1,8.46,8.46,0,0,1,4.21,3.61,10.77,10.77,0,0,1,1.57,5.72,9.53,9.53,0,0,1-2.61,6.8q-2.61,2.78-8.05,3.52a13.22,13.22,0,0,1,3,1.89,25.61,25.61,0,0,1,4.15,5l6.55,10.31h-6.26l-5-7.88q-2.19-3.42-3.62-5.22a11.34,11.34,0,0,0-2.54-2.54,7.54,7.54,0,0,0-2.29-1,15.15,15.15,0,0,0-2.79-.18H423.1v16.82Zm5-21.17h10.77a16,16,0,0,0,5.37-.71,5.64,5.64,0,0,0,2.95-2.28,6.18,6.18,0,0,0,1-3.41,5.68,5.68,0,0,0-1.95-4.43c-1.3-1.16-3.36-1.74-6.16-1.74h-12v12.57Zm31.57,2.7q0-9.44,5.06-14.77a17.26,17.26,0,0,1,13.08-5.33,18.14,18.14,0,0,1,9.45,2.5,16.38,16.38,0,0,1,6.42,7,22.75,22.75,0,0,1,2.21,10.17,22.33,22.33,0,0,1-2.33,10.31,15.81,15.81,0,0,1-6.58,6.88,18.84,18.84,0,0,1-9.2,2.34,17.93,17.93,0,0,1-9.56-2.58,16.6,16.6,0,0,1-6.38-7,21.36,21.36,0,0,1-2.17-9.46Zm5.17.06q0,6.85,3.68,10.79a12.83,12.83,0,0,0,18.54,0q3.66-4,3.66-11.29a19.43,19.43,0,0,0-1.56-8.07,12,12,0,0,0-4.58-5.35,12.32,12.32,0,0,0-6.75-1.9,12.84,12.84,0,0,0-9.16,3.65q-3.84,3.66-3.83,12.21Zm37.47,18.41V491.55h5.13l19.88,29.76V491.55h4.8v37.91H522L502.1,499.7v29.76Z"/><path class="cls-4" d="M566,529.46h-4.68V499.82A23.9,23.9,0,0,1,557,503a30.67,30.67,0,0,1-4.9,2.4v-4.5a27.93,27.93,0,0,0,6.83-4.44,17.54,17.54,0,0,0,4.14-5.06h3v38Zm11.86-18.69A34.76,34.76,0,0,1,579.28,500a13.38,13.38,0,0,1,4.12-6.31,10.52,10.52,0,0,1,6.86-2.21,11.26,11.26,0,0,1,5.37,1.22,10.14,10.14,0,0,1,3.8,3.54,19.27,19.27,0,0,1,2.34,5.63,37.21,37.21,0,0,1,.86,8.95,34.85,34.85,0,0,1-1.37,10.76,13.39,13.39,0,0,1-4.1,6.33,10.58,10.58,0,0,1-6.9,2.22,10.45,10.45,0,0,1-8.61-3.9q-3.75-4.75-3.75-15.41Zm4.8,0q0,9.35,2.18,12.41a6.24,6.24,0,0,0,10.77,0q2.18-3.09,2.18-12.4t-2.18-12.41a6.46,6.46,0,0,0-5.44-3.07,6,6,0,0,0-5.12,2.71q-2.39,3.47-2.39,12.77Zm38.74,7.34v-4.67h14.31v4.67Z"/><path class="cls-4" d="M656.3,529.46V491.55h5.14l19.93,29.76V491.55h4.81v37.91H681L661.11,499.7v29.76Zm36-13.74q0-7.65,4.24-11.32a12.8,12.8,0,0,1,8.64-3,12.34,12.34,0,0,1,9.26,3.71q3.6,3.72,3.6,10.27a18.23,18.23,0,0,1-1.6,8.35,11.26,11.26,0,0,1-4.63,4.72,13.47,13.47,0,0,1-6.63,1.68,12.34,12.34,0,0,1-9.33-3.7q-3.55-3.71-3.56-10.67Zm4.8,0q0,5.28,2.3,7.91a7.62,7.62,0,0,0,11.53,0c1.53-1.76,2.3-4.45,2.3-8.05q0-5.1-2.31-7.73a7.63,7.63,0,0,0-11.52,0q-2.29,2.61-2.3,7.89Z"/><path class="cls-4" d="M738.55,529.46V491.55h13a31.37,31.37,0,0,1,6.7.54,12.78,12.78,0,0,1,5.53,2.72,15.45,15.45,0,0,1,4.46,6.48,25.64,25.64,0,0,1,1.48,9,26.5,26.5,0,0,1-1,7.65,18.57,18.57,0,0,1-2.57,5.53,13.61,13.61,0,0,1-3.43,3.43,13.83,13.83,0,0,1-4.49,1.9,25.13,25.13,0,0,1-6.06.65Zm5-4.46h8a19.56,19.56,0,0,0,5.85-.7,8.38,8.38,0,0,0,3.38-2,12,12,0,0,0,2.76-4.8,23.62,23.62,0,0,0,1-7.31c0-4-.64-7-1.94-9.15a9.71,9.71,0,0,0-4.72-4.28,19.23,19.23,0,0,0-6.45-.78h-7.91v29ZM776,496.84v-5.29h4.65v5.29Zm0,32.62V502h4.65v27.49Zm12.74,0V505.61h-4.07V502h4.07v-2.91a12.62,12.62,0,0,1,.49-4.09,5.92,5.92,0,0,1,2.35-2.92,8.48,8.48,0,0,1,4.73-1.12,22.57,22.57,0,0,1,4.32.46l-.7,4.06a14.76,14.76,0,0,0-2.72-.26,4.08,4.08,0,0,0-3,.9,4.88,4.88,0,0,0-.87,3.36V502h5.31v3.64h-5.27v23.85Zm14.61,0V505.61h-4.07V502h4.07v-2.91a12.62,12.62,0,0,1,.49-4.09,5.94,5.94,0,0,1,2.36-2.92,8.45,8.45,0,0,1,4.72-1.12,22.57,22.57,0,0,1,4.32.46l-.7,4.06a14.68,14.68,0,0,0-2.72-.26,4,4,0,0,0-3,.9,4.82,4.82,0,0,0-.88,3.36V502h5.31v3.64H808v23.85Zm31.39,0v-4a10,10,0,0,1-8.65,4.65,11,11,0,0,1-4.51-.93,7.42,7.42,0,0,1-3.11-2.34,8.83,8.83,0,0,1-1.43-3.46,23.69,23.69,0,0,1-.28-4.35V502h4.65v15.25a27.38,27.38,0,0,0,.28,4.92,4.87,4.87,0,0,0,1.85,2.88,5.66,5.66,0,0,0,3.48,1.05,7.61,7.61,0,0,0,3.9-1.07,5.94,5.94,0,0,0,2.57-2.93,14.64,14.64,0,0,0,.76-5.37V502h4.65v27.49Zm9.5-8.18,4.57-.75a6.48,6.48,0,0,0,2.15,4.24,7.5,7.5,0,0,0,4.94,1.47,7.23,7.23,0,0,0,4.74-1.31,3.9,3.9,0,0,0,1.54-3.06,2.84,2.84,0,0,0-1.35-2.48,20.31,20.31,0,0,0-4.73-1.57,43,43,0,0,1-7.07-2.24,6.86,6.86,0,0,1-3-2.62,7.31,7.31,0,0,1-.18-7.09,7.51,7.51,0,0,1,2.28-2.6,9.56,9.56,0,0,1,2.95-1.37,14,14,0,0,1,4-.55,15.74,15.74,0,0,1,5.65.93,7.66,7.66,0,0,1,3.59,2.51,9.9,9.9,0,0,1,1.6,4.25l-4.53.62a4.93,4.93,0,0,0-1.79-3.29,6.58,6.58,0,0,0-4.18-1.18,7.61,7.61,0,0,0-4.56,1.06,3.11,3.11,0,0,0-1.36,2.48,2.57,2.57,0,0,0,.57,1.63,4.08,4.08,0,0,0,1.77,1.24c.47.17,1.83.56,4.1,1.18a56.3,56.3,0,0,1,6.85,2.17,6.93,6.93,0,0,1,3.05,2.44,6.85,6.85,0,0,1,1.11,4,7.85,7.85,0,0,1-1.35,4.39,8.84,8.84,0,0,1-3.91,3.19,14.13,14.13,0,0,1-5.76,1.12q-5.34,0-8.13-2.22a10.36,10.36,0,0,1-3.57-6.58Zm46.87-.67,4.79.62a11.68,11.68,0,0,1-4.19,6.53,14.16,14.16,0,0,1-17.32-1.39q-3.51-3.72-3.51-10.42,0-6.95,3.55-10.77a12,12,0,0,1,9.2-3.83,11.66,11.66,0,0,1,9,3.75q3.47,3.75,3.47,10.55c0,.28,0,.69,0,1.24H875.62a10.57,10.57,0,0,0,2.55,6.94,7.57,7.57,0,0,0,5.71,2.41,7.07,7.07,0,0,0,4.34-1.34,8.88,8.88,0,0,0,2.86-4.29Zm-15.21-7.56h15.26a9.24,9.24,0,0,0-1.75-5.18,7.12,7.12,0,0,0-5.74-2.68,7.38,7.38,0,0,0-5.37,2.14,8.45,8.45,0,0,0-2.4,5.72Zm25.71,16.41V502h4.2v4.15a11.31,11.31,0,0,1,2.94-3.84,5.11,5.11,0,0,1,3-.93,8.94,8.94,0,0,1,4.75,1.5l-1.61,4.31a6.45,6.45,0,0,0-3.38-1,4.32,4.32,0,0,0-2.72.92,4.91,4.91,0,0,0-1.72,2.55,18.43,18.43,0,0,0-.77,5.44v14.4Z"/></g></svg>