<svg id="VC_Grid_-_With_Labels" data-name="VC Grid - With Labels" xmlns="http://www.w3.org/2000/svg" viewBox="0 0 1024 1024"><defs><style>.cls-1{fill:#bbb;}.cls-1,.cls-2{stroke:#1d1d1b;stroke-miterlimit:10;}.cls-2{fill:#fff;}</style></defs><g id="_15_-_16x16" data-name="15 - 16x16"><rect class="cls-1" x="4.37" y="4.37" width="1015.26" height="1015.26"/><rect class="cls-2" x="68.96" y="260.2" width="886.08" height="503.61"/><path d="M157,475.42l41-104.73H183.89L155.6,446.77q-3.21,8.58-5.64,17.15-2.22-8-5.5-17.15l-27.22-76.08h-15l40.58,104.73Zm117.24-16.79q-8.08,6.72-19.72,6.72a33.94,33.94,0,0,1-17.79-4.93,29,29,0,0,1-12.11-14.9q-3.9-10-3.89-23.32A62.55,62.55,0,0,1,224,402.09a30.56,30.56,0,0,1,11.4-15.54q8.1-5.79,20.18-5.79,10.5,0,17.43,5.22t10.58,16.64l13.64-3.21q-4.22-14.51-14.93-22.51t-26.43-8a52,52,0,0,0-25.4,6.32,42.9,42.9,0,0,0-17.79,18.51q-6.25,12.18-6.25,28.54A71.13,71.13,0,0,0,212,450.35q5.53,13.06,16.14,20t27.54,6.9q16.37,0,27.69-9t15.68-26l-13.86-3.5q-2.86,13.21-10.93,19.93ZM349,444V431.06H309.49V444Zm95.66-9.65v19.51q-4.44,3.93-13,7.39a46.47,46.47,0,0,1-17.57,3.47,43.47,43.47,0,0,1-19.58-4.58,30.78,30.78,0,0,1-14-14q-4.83-9.44-4.83-23.43a55,55,0,0,1,4-21.08,36.68,36.68,0,0,1,6.61-10.36,30.77,30.77,0,0,1,11.18-7.61,42.67,42.67,0,0,1,16.43-2.89,36.8,36.8,0,0,1,14.44,2.75,24.21,24.21,0,0,1,10,7.32,39,39,0,0,1,5.86,12.58l12.5-3.43q-2.71-10.58-7.93-17.15a34.08,34.08,0,0,0-14.4-10.25,54.81,54.81,0,0,0-20.54-3.68q-15.65,0-27.64,6.43A42.51,42.51,0,0,0,367.75,395a64.89,64.89,0,0,0-6.4,28.55,60.27,60.27,0,0,0,6.43,27.93,43.78,43.78,0,0,0,19,19.11,59.45,59.45,0,0,0,28,6.61,62.48,62.48,0,0,0,22.29-4.11,78.36,78.36,0,0,0,21.08-12.25V422l-44.37.07v12.29Zm48.08,41.08V428.91h16.07a42.08,42.08,0,0,1,7.72.5,21.06,21.06,0,0,1,6.32,2.79,31.49,31.49,0,0,1,7,7q3.93,5,10,14.43l13.86,21.79h17.43L553,446.92A71.58,71.58,0,0,0,541.46,433a35.74,35.74,0,0,0-8.36-5.22q15.07-2.07,22.29-9.72a26.34,26.34,0,0,0,7.22-18.79,29.75,29.75,0,0,0-4.36-15.78,23.27,23.27,0,0,0-11.65-10q-7.27-2.82-21.29-2.82H478.88V475.42Zm0-93.16h33.15q11.64,0,17,4.79a15.59,15.59,0,0,1,5.4,12.21,17,17,0,0,1-2.79,9.4,15.83,15.83,0,0,1-8.14,6.29q-5.35,2-14.86,2H492.74V382.26Zm107.8,93.16V370.69H586.68V475.42Zm62.23,0a71.39,71.39,0,0,0,16.82-1.78,38.77,38.77,0,0,0,12.51-5.26,37.63,37.63,0,0,0,9.53-9.5,51.23,51.23,0,0,0,7.15-15.25,73.4,73.4,0,0,0,2.78-21.15,70.41,70.41,0,0,0-4.1-24.89,42.66,42.66,0,0,0-12.4-17.9,35.47,35.47,0,0,0-15.36-7.5q-6.44-1.5-18.65-1.5H625V475.42Zm-23.93-92.37h22q12.36,0,17.93,2.14,7.72,3,13.11,11.82t5.39,25.26q0,11.87-2.75,20.18a32.89,32.89,0,0,1-7.68,13.25,23.07,23.07,0,0,1-9.39,5.43q-5.9,1.94-16.25,1.93H638.84v-80Zm175.67-12.79h-8.29q-3.36,6.78-11.43,14a77.63,77.63,0,0,1-18.86,12.29V409a85.82,85.82,0,0,0,13.54-6.64,66.54,66.54,0,0,0,12.18-8.86v81.94h12.86V370.26Zm43.26,98.95q9,8,23.33,8,17.43,0,27.5-12.72a38.16,38.16,0,0,0,8.29-24.57q0-14.94-9.43-24.44a31.38,31.38,0,0,0-23.15-9.5,34.09,34.09,0,0,0-19.79,6.57l5.64-28.15H912V372.12H859.88l-10.15,53.79,12.08,1.57a21.73,21.73,0,0,1,7.85-7.32,22.47,22.47,0,0,1,11.22-2.82q10,0,16.18,6.36t6.18,17.36q0,11.56-6.43,18.57a20.5,20.5,0,0,1-15.71,7,18.93,18.93,0,0,1-13.19-5q-5.46-5-7-14.82L847.45,448q1.27,13.22,10.32,21.22Z"/><path d="M367.34,538.52h-8.29q-3.36,6.78-11.43,14a77.63,77.63,0,0,1-18.86,12.29v12.43a85.82,85.82,0,0,0,13.54-6.64,66.54,66.54,0,0,0,12.18-8.86v81.94h12.86V538.52Zm90.2,6.93q-7.91-6.93-20.26-6.93-16.57,0-26.36,12-11.22,13.79-11.22,44.15,0,27.15,10.15,39t26.22,11.83a31.91,31.91,0,0,0,16.86-4.5,31,31,0,0,0,11.68-13,40.29,40.29,0,0,0,4.25-18.32q0-15-9-24.47a29.14,29.14,0,0,0-21.89-9.47,30.52,30.52,0,0,0-14.08,3.43,29.87,29.87,0,0,0-11.36,10.5q.15-15.72,3.65-24.22t9.57-12.93a17.72,17.72,0,0,1,10.79-3.43,17.06,17.06,0,0,1,12.86,5.5q3.13,3.43,4.85,11l12.79-1q-1.58-12.23-9.46-19.15Zm-37,47.9a19.8,19.8,0,0,1,14.78-6.25,19,19,0,0,1,14.58,6.25q5.79,6.25,5.79,17.11,0,11.29-5.86,17.86a18.17,18.17,0,0,1-14,6.57,19.72,19.72,0,0,1-10.64-3.17,21,21,0,0,1-7.89-9.26,29.65,29.65,0,0,1-2.83-12.71q0-10.15,6.08-16.4Zm71.65,50.33,19.93-29.93,4.15,6.36,15.57,23.57h15.79l-28.22-40.15,26.22-35.72H530.3l-12.79,17.93q-2.64,3.64-5.78,8.36-2-3.44-5.29-8.5l-11.65-17.79H478.72l25.65,36.44-27.72,39.43Zm111-105.16H595q-3.36,6.78-11.44,14a77.43,77.43,0,0,1-18.86,12.29v12.43a85.82,85.82,0,0,0,13.54-6.64,66.54,66.54,0,0,0,12.18-8.86v81.94h12.86V538.52Zm90.2,6.93q-7.89-6.93-20.26-6.93-16.57,0-26.36,12-11.22,13.79-11.21,44.15,0,27.15,10.14,39T672,645.47a31.88,31.88,0,0,0,16.86-4.5,31,31,0,0,0,11.68-13,40.29,40.29,0,0,0,4.25-18.32q0-15-9-24.47a29.14,29.14,0,0,0-21.89-9.47,30.52,30.52,0,0,0-14.08,3.43,30,30,0,0,0-11.36,10.5q.15-15.72,3.65-24.22t9.57-12.93a17.72,17.72,0,0,1,10.79-3.43,17.06,17.06,0,0,1,12.86,5.5q3.13,3.43,4.86,11l12.78-1q-1.56-12.23-9.46-19.15Zm-37,47.9a19.8,19.8,0,0,1,14.79-6.25,19,19,0,0,1,14.57,6.25q5.79,6.25,5.79,17.11,0,11.29-5.86,17.86a18.15,18.15,0,0,1-14,6.57,19.73,19.73,0,0,1-10.65-3.17,21,21,0,0,1-7.89-9.26,29.65,29.65,0,0,1-2.83-12.71q0-10.15,6.08-16.4Z"/></g></svg>