<svg id="ERA300" xmlns="http://www.w3.org/2000/svg" viewBox="0 0 1024 1024"><defs><style>.cls-1{fill:#ccc;fill-rule:evenodd;}.cls-2{fill:none;stroke:#000;stroke-linecap:round;stroke-linejoin:round;stroke-width:2.83px;}</style></defs><g id="BASE"><path class="cls-1" d="M782.65,247.82h0a67.12,67.12,0,0,1,40,38.47l0-.56,44.24,26a52.38,52.38,0,0,1,7.84,5.43,52.14,52.14,0,0,1,12.14,14.64,51.4,51.4,0,0,1,3.88,8.71q7.39,20.82,12.94,42.23t9.15,43.2q3.61,21.79,5.29,43.84t1.4,44.14q.29,22.1-1.4,44.15t-5.29,43.83q-3.62,21.81-9.15,43.21T890.74,687.3a52.67,52.67,0,0,1-23.86,28.79l-44.24,26,0-.61a66.69,66.69,0,0,1-15.85,23.6A66.88,66.88,0,0,1,782.62,780q-34.75,5.49-69.72,9.64t-70,7q-35.08,2.8-70.26,4.28t-70.36,1.57h-1.14q-35.21-.1-70.38-1.57t-70.25-4.28q-35.07-2.8-70-7T220.73,780a67.07,67.07,0,0,1-40.06-38.52l0,.61-44.22-26a52.4,52.4,0,0,1-7.86-5.44,51.79,51.79,0,0,1-6.73-6.76,52.31,52.31,0,0,1-9.28-16.59q-7.39-20.82-12.93-42.22t-9.16-43.21Q86.91,580.08,85.23,558t-1.4-44.15q-.28-22.08,1.4-44.14t5.29-43.84q3.63-21.78,9.16-43.2t12.93-42.23a51.4,51.4,0,0,1,3.88-8.71,50.55,50.55,0,0,1,5.4-7.87,51.25,51.25,0,0,1,6.73-6.77,53.08,53.08,0,0,1,7.86-5.43l44.22-26,0,.56a67.16,67.16,0,0,1,6.65-12.64,68.17,68.17,0,0,1,9.18-10.94A67,67,0,0,1,207.82,254a66.2,66.2,0,0,1,12.88-6.15q34.78-5.5,69.74-9.66t70-7q35.1-2.82,70.27-4.28t70.38-1.58h1.1q35.19.12,70.37,1.58t70.27,4.28q35.08,2.81,70,7t69.74,9.66m-597,120.75-1.26-.05-1.22-.24-1.21-.25-1.17-.46-1.17-.43-1.08-.64-1.07-.63-1-.8H173l-3.27-.95-3.4.34-3.4.34-3,1.56-3,1.56-2.23,2.58-2.25,2.57-1.13,3.24q-4.78,16.76-8.48,33.82t-6.23,34.29q-2.56,17.26-4,34.65t-1.68,34.82q.27,17.43,1.68,34.83t4,34.64q2.53,17.25,6.23,34.3t8.48,33.82l1.13,3.23,2.25,2.58,2.23,2.57,3,1.57,3,1.57,3.4.33,3.4.34,3.27-.95h3.51l1-.8,1.07-.64,1.09-.63,1.16-.44,1.17-.45,1.22-.25,1.22-.25,1.25,0,16.14-3.53-6.32-141.8,6.3-141.8-16.13-3.52M817.73,659.22l1.24,0,1.22.25,1.23.25,1.17.45,1.16.44,1.07.63,1.08.64,1,.8h3.51l3.28.95,3.4-.34,3.4-.33,3-1.57,3-1.57,2.25-2.57,2.24-2.58,1.13-3.23q4.79-16.77,8.48-33.82t6.24-34.3q2.56-17.25,4-34.64t1.67-34.83q-.25-17.43-1.67-34.82t-4-34.65q-2.55-17.24-6.24-34.29t-8.48-33.82L851,373.07l-2.24-2.57-2.25-2.58-3-1.56-3-1.56-3.4-.34-3.4-.34-3.28.95h-3.5l-1,.8-1.08.63-1.07.64-1.16.43-1.17.46-1.23.25-1.22.24-1.24.05-16.15,3.52,6.32,141.8-6.33,141.8,16.15,3.53"/><path class="cls-2" d="M782.65,247.82h0a67.12,67.12,0,0,1,40,38.47l0-.56,44.24,26a52.38,52.38,0,0,1,7.84,5.43,52.14,52.14,0,0,1,12.14,14.64,51.4,51.4,0,0,1,3.88,8.71q7.39,20.82,12.94,42.23t9.15,43.2q3.61,21.79,5.29,43.84t1.4,44.14q.29,22.1-1.4,44.15t-5.29,43.83q-3.62,21.81-9.15,43.21T890.74,687.3a52.67,52.67,0,0,1-23.86,28.79l-44.24,26,0-.61a66.69,66.69,0,0,1-15.85,23.6A66.88,66.88,0,0,1,782.62,780q-34.75,5.49-69.72,9.64t-70,7q-35.08,2.8-70.26,4.28t-70.36,1.57h-1.14q-35.21-.1-70.38-1.57t-70.25-4.28q-35.07-2.8-70-7T220.73,780a67.07,67.07,0,0,1-40.06-38.52l0,.61-44.22-26a52.4,52.4,0,0,1-7.86-5.44,51.79,51.79,0,0,1-6.73-6.76,52.31,52.31,0,0,1-9.28-16.59q-7.39-20.82-12.93-42.22t-9.16-43.21Q86.91,580.08,85.23,558t-1.4-44.15q-.28-22.08,1.4-44.14t5.29-43.84q3.63-21.78,9.16-43.2t12.93-42.23a51.4,51.4,0,0,1,3.88-8.71,50.55,50.55,0,0,1,5.4-7.87,51.25,51.25,0,0,1,6.73-6.77,53.08,53.08,0,0,1,7.86-5.43l44.22-26,0,.56a67.16,67.16,0,0,1,6.65-12.64,68.17,68.17,0,0,1,9.18-10.94A67,67,0,0,1,207.82,254a66.2,66.2,0,0,1,12.88-6.15q34.78-5.5,69.74-9.66t70-7q35.1-2.82,70.27-4.28t70.38-1.58h1.1q35.19.12,70.37,1.58t70.27,4.28q35.08,2.81,70,7t69.74,9.66m-597,120.75-1.26-.05-1.22-.24-1.21-.25-1.17-.46-1.17-.43-1.08-.64-1.07-.63-1-.8H173l-3.27-.95-3.4.34-3.4.34-3,1.56-3,1.56-2.23,2.58-2.25,2.57-1.13,3.24q-4.78,16.76-8.48,33.82t-6.23,34.29q-2.56,17.26-4,34.65t-1.68,34.82q.27,17.43,1.68,34.83t4,34.64q2.53,17.25,6.23,34.3t8.48,33.82l1.13,3.23,2.25,2.58,2.23,2.57,3,1.57,3,1.57,3.4.33,3.4.34,3.27-.95h3.51l1-.8,1.07-.64,1.09-.63,1.16-.44,1.17-.45,1.22-.25,1.22-.25,1.25,0,16.14-3.53-6.32-141.8,6.3-141.8-16.13-3.52M817.73,659.22l1.24,0,1.22.25,1.23.25,1.17.45,1.16.44,1.07.63,1.08.64,1,.8h3.51l3.28.95,3.4-.34,3.4-.33,3-1.57,3-1.57,2.25-2.57,2.24-2.58,1.13-3.23q4.79-16.77,8.48-33.82t6.24-34.3q2.56-17.25,4-34.64t1.67-34.83q-.25-17.43-1.67-34.82t-4-34.65q-2.55-17.24-6.24-34.29t-8.48-33.82L851,373.07l-2.24-2.57-2.25-2.58-3-1.56-3-1.56-3.4-.34-3.4-.34-3.28.95h-3.5l-1,.8-1.08.63-1.07.64-1.16.43-1.17.46-1.23.25-1.22.24-1.24.05-16.15,3.52,6.32,141.8-6.33,141.8,16.15,3.53"/></g></svg>