<svg id="ERA300" xmlns="http://www.w3.org/2000/svg" viewBox="0 0 1024 1024"><defs><style>.cls-1{fill:#ccc;fill-rule:evenodd;}.cls-2{fill:none;stroke:#000;stroke-linecap:round;stroke-linejoin:round;stroke-width:2.83px;}</style></defs><g id="YOKE"><polyline class="cls-1" points="153.16 361.06 870.84 361.06 870.84 662.93 153.16 662.93 153.16 361.06"/><polygon class="cls-2" points="153.16 361.06 870.84 361.06 870.84 662.93 153.16 662.93 153.16 361.06 153.16 361.06"/><path class="cls-1" d="M45.75,360.35l107.41.71,7,150.94-7,150.93-107.41.7A332.49,332.49,0,0,1,12.05,512a332.2,332.2,0,0,1,33.7-151.65"/><path class="cls-2" d="M45.75,360.35l107.41.71,7,150.94-7,150.93-107.41.7A332.49,332.49,0,0,1,12.05,512a332.2,332.2,0,0,1,33.7-151.65"/><path class="cls-1" d="M45.75,360.35l1.5.35,1.35.72,1.36.71,1.13,1,1.13,1,.83,1.29.84,1.29.47,1.46q3.44,11.19,6,22.63t4.07,23.05q1.56,11.61,2.17,23.31c.4,7.79.49,15.61.24,23.41V563.36q.36,11.7-.25,23.41t-2.17,23.3q-1.56,11.61-4.06,23t-6,22.63l-.48,1.47-.84,1.29-.82,1.29-1.13,1-1.14,1-1.35.72-1.36.71-1.49.36"/><path class="cls-2" d="M45.75,360.35l1.5.35,1.35.72,1.36.71,1.13,1,1.13,1,.83,1.29.84,1.29.47,1.46q3.44,11.19,6,22.63t4.07,23.05q1.56,11.61,2.17,23.31c.4,7.79.49,15.61.24,23.41V563.36q.36,11.7-.25,23.41t-2.17,23.3q-1.56,11.61-4.06,23t-6,22.63l-.48,1.47-.84,1.29-.82,1.29-1.13,1-1.14,1-1.35.72-1.36.71-1.49.36"/><path class="cls-1" d="M45,363.78l1,.24,1,.5,1,.5.78.73.81.72.58.91.59.9.34,1q3.39,11.06,5.87,22.35t4,22.76q1.55,11.44,2.14,23c.39,7.69.48,15.41.25,23.11V563.47q.34,11.55-.24,23.1t-2.14,23q-1.53,11.45-4,22.75T51,654.69l-.34,1-.59.9-.58.91-.79.72-.8.72-1,.51-1,.5-1.05.24"/><path class="cls-2" d="M45,363.78l1,.24,1,.5,1,.5.78.73.81.72.58.91.59.9.34,1q3.39,11.06,5.87,22.35t4,22.76q1.55,11.44,2.14,23c.39,7.69.48,15.41.25,23.11V563.47q.34,11.55-.24,23.1t-2.14,23q-1.53,11.45-4,22.75T51,654.69l-.34,1-.59.9-.58.91-.79.72-.8.72-1,.51-1,.5-1.05.24"/><path class="cls-1" d="M978.25,360.35l-107.41.71-7,150.94,7,150.93,107.41.7A332.49,332.49,0,0,0,1012,512a332.19,332.19,0,0,0-18.6-115.5,331.84,331.84,0,0,0-15.1-36.15"/><path class="cls-2" d="M978.25,360.35l-107.41.71-7,150.94,7,150.93,107.41.7A332.49,332.49,0,0,0,1012,512a332.19,332.19,0,0,0-18.6-115.5,331.84,331.84,0,0,0-15.1-36.15"/><path class="cls-1" d="M978.25,360.35l-1.5.35-1.35.72-1.36.71-1.13,1-1.13,1-.83,1.29-.84,1.29-.47,1.46q-3.43,11.19-5.95,22.63t-4.09,23.05q-1.56,11.61-2.17,23.31c-.39,7.79-.47,15.61-.24,23.41V563.36q-.36,11.7.25,23.41t2.17,23.3q1.56,11.61,4.06,23t6,22.63l.47,1.47.84,1.29.82,1.29,1.13,1,1.14,1,1.36.72,1.35.71,1.49.36"/><path class="cls-2" d="M978.25,360.35l-1.5.35-1.35.72-1.36.71-1.13,1-1.13,1-.83,1.29-.84,1.29-.47,1.46q-3.43,11.19-5.95,22.63t-4.09,23.05q-1.56,11.61-2.17,23.31c-.39,7.79-.47,15.61-.24,23.41V563.36q-.36,11.7.25,23.41t2.17,23.3q1.56,11.61,4.06,23t6,22.63l.47,1.47.84,1.29.82,1.29,1.13,1,1.14,1,1.36.72,1.35.71,1.49.36"/><path class="cls-1" d="M979,363.78l-1,.24-.94.5-1,.5-.79.73-.81.72-.58.91-.59.9-.34,1q-3.39,11.06-5.87,22.35t-4,22.76q-1.55,11.44-2.14,23c-.39,7.69-.47,15.41-.25,23.11V563.47q-.35,11.55.24,23.1t2.14,23q1.53,11.45,4,22.75T973,654.69l.34,1,.59.9.58.91.79.72.8.72.95.51,1,.5,1,.24"/><path class="cls-2" d="M979,363.78l-1,.24-.94.5-1,.5-.79.73-.81.72-.58.91-.59.9-.34,1q-3.39,11.06-5.87,22.35t-4,22.76q-1.55,11.44-2.14,23c-.39,7.69-.47,15.41-.25,23.11V563.47q-.35,11.55.24,23.1t2.14,23q1.53,11.45,4,22.75T973,654.69l.34,1,.59.9.58.91.79.72.8.72.95.51,1,.5,1,.24"/></g></svg>