<svg id="VC_Grid_-_Without_Labels" data-name="VC Grid - Without Labels" xmlns="http://www.w3.org/2000/svg" viewBox="0 0 1024 1024"><defs><style>.cls-1{fill:#bbb;stroke:#1d1d1b;stroke-miterlimit:10;fill-rule:evenodd;}</style></defs><g id="_60_-_8x8" data-name="60 - 8x8"><path class="cls-1" d="M6.06,6.06V1017.94H1017.94V6.06H6.06M558,144.05H466v-92h92v92m276,0H742v-92h92v92m138,0H880v-92h92v92m-276,0H604v-92h92v92m-276,0H328v-92h92v92m-276,0h-92v-92h92v92M834,285.18H742v-92h92v92m-276,0H466v-92h92v92m-276,0H190v-92h92v92m689.91,138H880v-92h92v92m-276,0H604v-92h92v92m-276,0H328v-92h92v92m-276,0h-92v-92h92v92M834,558H742V466h92v92M282,558H190V466h92v92M971.94,696H880V604h92v92m-276,0H604V604h92v92m-276,0H328V604h92v92m-276,0h-92V604h92v92M834,834H742V742h92v92m-276,0H466V742h92v92m-276,0H190V742h92v92m689.91,138H880V880h92v92m-276,0H604V880h92v92m-276,0H328V880h92v92m-276,0h-92V880h92v92m138,0H190V880h92v92m276,0H466V880h92v92m276,0H742V880h92v92M144.05,834h-92V742h92v92m276,0H328V742h92v92m276,0H604V742h92v92m276,0H880V742h92v92M282,696H190V604h92v92m276,0H466V604h92v92m276,0H742V604h92v92M144.05,558h-92V466h92v92m276,0H328V466h92v92m276,0H604V466h92v92m276,0H880V466h92v92M282,423.17H190v-92h92v92m276,0H466v-92h92v92m276,0H742v-92h92v92m-689.91-138h-92v-92h92v92m276,0H328v-92h92v92m276,0H604v-92h92v92m276,0H880v-92h92v92M282,144.05H190v-92h92v92"/></g></svg>