<svg id="VC_Grid_-_With_Labels" data-name="VC Grid - With Labels" xmlns="http://www.w3.org/2000/svg" viewBox="0 0 1024 1024"><defs><style>.cls-1{fill:#bbb;fill-rule:evenodd;}.cls-1,.cls-2{stroke:#1d1d1b;stroke-miterlimit:10;}.cls-2{fill:#fff;}</style></defs><g id="_60_-_4x4" data-name="60 - 4x4"><path class="cls-1" d="M8.4,8.4V1015.6H1015.6V8.4H8.4M612.72,914.88H411.28V713.44H612.72V914.88m302.16,0H713.44V713.44H914.88V914.88m-604.32,0H109.12V713.44H310.56V914.88M612.72,612.72H411.28V411.28H612.72V612.72M914.88,310.56H713.44V109.12H914.88V310.56m-604.32,0H109.12V109.12H310.56V310.56m302.16,0H411.28V109.12H612.72V310.56M310.56,612.72H109.12V411.28H310.56V612.72m604.32,0H713.44V411.28H914.88V612.72"/><rect class="cls-2" x="83.43" y="310.56" width="857.15" height="402.88"/><path d="M201.67,480l35.85-91.56H225.15L200.42,455q-2.82,7.49-4.94,15-1.93-7-4.81-15l-23.79-66.52H153.76L189.24,480Zm102.49-14.68a26,26,0,0,1-17.24,5.87,29.71,29.71,0,0,1-15.55-4.3,25.4,25.4,0,0,1-10.59-13,55.84,55.84,0,0,1-3.4-20.39,54.8,54.8,0,0,1,2.87-17.58,26.79,26.79,0,0,1,10-13.59q7.1-5.06,17.65-5.06,9.18,0,15.24,4.56t9.24,14.56l11.93-2.81q-3.69-12.69-13-19.68t-23.11-7a45.52,45.52,0,0,0-22.21,5.52,37.48,37.48,0,0,0-15.55,16.18q-5.46,10.65-5.46,24.95a62.23,62.23,0,0,0,4.84,24.55,37.62,37.62,0,0,0,14.11,17.46q9.29,6,24.08,6,14.31,0,24.2-7.84T325.83,451l-12.11-3.06q-2.5,11.55-9.56,17.42Zm65.33-12.8V441.23H335v11.31Zm83.63-8.43v17.05a39.69,39.69,0,0,1-11.36,6.46,40.67,40.67,0,0,1-15.37,3,38,38,0,0,1-17.11-4A27,27,0,0,1,397,454.41q-4.23-8.24-4.22-20.48a47.78,47.78,0,0,1,3.5-18.43,31.62,31.62,0,0,1,5.77-9.05,26.88,26.88,0,0,1,9.78-6.66,37.27,37.27,0,0,1,14.36-2.53,32.12,32.12,0,0,1,12.62,2.41,21.1,21.1,0,0,1,8.75,6.4,34,34,0,0,1,5.12,11l10.93-3a39.94,39.94,0,0,0-6.94-15,29.81,29.81,0,0,0-12.58-9,48,48,0,0,0-18-3.21A50.38,50.38,0,0,0,402,392.52a37.13,37.13,0,0,0-16.08,17.2,56.68,56.68,0,0,0-5.59,25,52.59,52.59,0,0,0,5.62,24.42,38.22,38.22,0,0,0,16.64,16.71,52,52,0,0,0,24.52,5.77A54.55,54.55,0,0,0,446.57,478,68.33,68.33,0,0,0,465,467.28v-34l-38.79.06v10.75Zm42,35.91V439.36h14a36.52,36.52,0,0,1,6.75.44,18.51,18.51,0,0,1,5.53,2.43,27.7,27.7,0,0,1,6.15,6.12q3.43,4.38,8.74,12.62l12.12,19h15.24L547.81,455.1a63.24,63.24,0,0,0-10-12.18,31.62,31.62,0,0,0-7.31-4.56q13.17-1.82,19.49-8.49a23.05,23.05,0,0,0,6.3-16.43,26,26,0,0,0-3.81-13.8,20.35,20.35,0,0,0-10.18-8.72q-6.36-2.46-18.61-2.46H483V480Zm0-81.44h29q10.18,0,14.9,4.18a13.65,13.65,0,0,1,4.71,10.68,14.88,14.88,0,0,1-2.43,8.21,13.84,13.84,0,0,1-7.12,5.5q-4.69,1.73-13,1.72h-26V398.58ZM589.41,480V388.46H577.29V480Zm54.4,0a62.45,62.45,0,0,0,14.71-1.56,33.94,33.94,0,0,0,10.93-4.59,33.17,33.17,0,0,0,8.34-8.31A44.75,44.75,0,0,0,684,452.23a63.77,63.77,0,0,0,2.44-18.49A61.54,61.54,0,0,0,682.88,412,37.29,37.29,0,0,0,672,396.33a30.94,30.94,0,0,0-13.43-6.56q-5.61-1.32-16.3-1.31H610.77V480Zm-20.92-80.76h19.23q10.82,0,15.68,1.88,6.75,2.61,11.46,10.33T674,433.55a56.47,56.47,0,0,1-2.41,17.65,28.84,28.84,0,0,1-6.71,11.58,20.31,20.31,0,0,1-8.21,4.75q-5.16,1.68-14.21,1.69H622.89v-70Zm161.3-5.12q-6.9-6.06-17.71-6.06-14.49,0-23.05,10.5-9.79,12-9.8,38.59,0,23.74,8.87,34.08t22.92,10.33a27.92,27.92,0,0,0,14.74-3.93,27.11,27.11,0,0,0,10.21-11.34,35.14,35.14,0,0,0,3.72-16q0-13.11-7.9-21.39A25.49,25.49,0,0,0,767,420.62a26.66,26.66,0,0,0-12.3,3,26,26,0,0,0-9.93,9.18q.12-13.74,3.18-21.17a25.65,25.65,0,0,1,8.37-11.31,15.5,15.5,0,0,1,9.43-3A14.88,14.88,0,0,1,777,402.14q2.75,3,4.24,9.61l11.18-.87q-1.37-10.68-8.27-16.74ZM751.86,436a17.36,17.36,0,0,1,12.93-5.47A16.66,16.66,0,0,1,777.54,436q5.06,5.46,5.05,15,0,9.87-5.12,15.61a15.85,15.85,0,0,1-12.24,5.75,17.3,17.3,0,0,1-9.31-2.78,18.44,18.44,0,0,1-6.9-8.09,26.13,26.13,0,0,1-2.46-11.12q0-8.87,5.3-14.33Zm62.46,36.07q7.56,9.5,20.8,9.49,10.07,0,16.65-5.4t9.9-15.3q3.3-9.9,3.31-26,0-13.61-2.06-21.64a45.83,45.83,0,0,0-5.69-13.61,24.64,24.64,0,0,0-9.18-8.56,27,27,0,0,0-12.93-3q-10,0-16.58,5.37t-9.93,15.27q-3.35,9.9-3.34,26.14,0,25.8,9.05,37.23ZM822.63,404A14.39,14.39,0,0,1,835,397.39q7.86,0,13.15,7.43t5.27,30q0,22.49-5.27,30t-13,7.5q-7.74,0-13-7.46t-5.28-30q0-22.55,5.81-30.91Z"/><path d="M461.62,627.12V605.2H474V594.9H461.62V535.56h-9.18L410.65,594.9v10.3h39.73v21.92ZM421.71,594.9l28.67-41.29V594.9Zm73,32.22L512.15,601l3.62,5.56,13.62,20.61h13.8L518.52,592l22.92-31.23H528l-11.18,15.68q-2.31,3.18-5.06,7.31-1.74-3-4.62-7.43L497,560.79H482.92l22.42,31.86-24.23,34.47Zm102,0V605.2h12.36V594.9H596.72V535.56h-9.18L545.75,594.9v10.3h39.72v21.92ZM556.81,594.9l28.66-41.29V594.9Z"/></g></svg>