<svg id="VC_Grid_-_With_Labels" data-name="VC Grid - With Labels" xmlns="http://www.w3.org/2000/svg" viewBox="0 0 1024 1024"><defs><style>.cls-1{fill:#bbb;fill-rule:evenodd;}.cls-1,.cls-2{stroke:#1d1d1b;stroke-miterlimit:10;}.cls-2{fill:#fff;}</style></defs><g id="_60_-_8x8" data-name="60 - 8x8"><path class="cls-1" d="M6.06,6.06V1017.94H1017.94V6.06H6.06m827.9,138H742v-92h92v92m138,0H880v-92h92v92m-276,0H604v-92h92v92m-276,0H328v-92h92v92m-276,0h-92v-92h92v92M834,285.18H742v-92h92v92m-276,0H466v-92h92v92m-276,0H190v-92h92v92m689.91,138H880v-92h92v92m-276,0H604v-92h92v92m-276,0H328v-92h92v92m-276,0h-92v-92h92v92M834,558H742V466h92v92m-276,0H466V466h92v92m-276,0H190V466h92v92M971.94,696H880V604h92v92m-276,0H604V604h92v92m-276,0H328V604h92v92m-276,0h-92V604h92v92M834,834H742V742h92v92m-276,0H466V742h92v92m-276,0H190V742h92v92m689.91,138H880V880h92v92m-276,0H604V880h92v92m-276,0H328V880h92v92m-276,0h-92V880h92v92m138,0H190V880h92v92m276,0H466V880h92v92m276,0H742V880h92v92M144.05,834h-92V742h92v92m276,0H328V742h92v92m276,0H604V742h92v92m276,0H880V742h92v92M282,696H190V604h92v92m276,0H466V604h92v92m276,0H742V604h92v92M144.05,558h-92V466h92v92m276,0H328V466h92v92m276,0H604V466h92v92m276,0H880V466h92v92M282,423.17H190v-92h92v92m276,0H466v-92h92v92m276,0H742v-92h92v92m-689.91-138h-92v-92h92v92m276,0H328v-92h92v92m276,0H604v-92h92v92m276,0H880v-92h92v92M282,144.05H190v-92h92v92m276,0H466v-92h92v92"/><rect class="cls-2" x="185.44" y="331.18" width="653.12" height="364.8"/><path d="M281.07,491.16,308,422.44H298.7l-18.57,49.92q-2.1,5.63-3.7,11.25-1.46-5.25-3.61-11.25L255,422.44h-9.84l26.62,68.72Zm76.92-11a19.54,19.54,0,0,1-12.94,4.41,22.37,22.37,0,0,1-11.67-3.23,19.05,19.05,0,0,1-7.94-9.78,41.77,41.77,0,0,1-2.56-15.3A41,41,0,0,1,325,443a20.06,20.06,0,0,1,7.48-10.19q5.31-3.8,13.24-3.8a18.53,18.53,0,0,1,11.44,3.42q4.55,3.42,6.93,10.92l9-2.11a27.29,27.29,0,0,0-9.8-14.76q-7-5.25-17.34-5.25a34.07,34.07,0,0,0-16.67,4.15,28,28,0,0,0-11.67,12.14,40.42,40.42,0,0,0-4.1,18.72,46.8,46.8,0,0,0,3.63,18.43,28.24,28.24,0,0,0,10.59,13.1q7,4.51,18.07,4.52,10.74,0,18.17-5.88t10.29-17.09l-9.1-2.29q-1.87,8.67-7.17,13.07Zm49-9.61v-8.48H381.1v8.48Zm62.77-6.32V477a29.63,29.63,0,0,1-8.53,4.85,30.46,30.46,0,0,1-11.53,2.28,28.54,28.54,0,0,1-12.85-3,20.24,20.24,0,0,1-9.21-9.19q-3.17-6.18-3.16-15.37a36,36,0,0,1,2.62-13.83,23.74,23.74,0,0,1,4.34-6.8,20.07,20.07,0,0,1,7.33-5,27.86,27.86,0,0,1,10.79-1.9,24.1,24.1,0,0,1,9.46,1.8,15.81,15.81,0,0,1,6.57,4.81,25.39,25.39,0,0,1,3.84,8.25l8.2-2.25a29.67,29.67,0,0,0-5.2-11.25,22.32,22.32,0,0,0-9.44-6.73,36,36,0,0,0-13.48-2.41,37.86,37.86,0,0,0-18.14,4.22,27.88,27.88,0,0,0-12.07,12.91,42.51,42.51,0,0,0-4.2,18.73,39.52,39.52,0,0,0,4.22,18.33A28.67,28.67,0,0,0,431.84,488a39,39,0,0,0,18.4,4.33,41.19,41.19,0,0,0,14.63-2.69,51.58,51.58,0,0,0,13.83-8V456.1l-29.11,0v8.07Zm31.55,27V460.64h10.54A27.28,27.28,0,0,1,517,461a14,14,0,0,1,4.14,1.83,20.89,20.89,0,0,1,4.62,4.59q2.58,3.28,6.56,9.47l9.1,14.3H552.8l-11.95-18.7a46.61,46.61,0,0,0-7.55-9.14,23.41,23.41,0,0,0-5.48-3.43q9.88-1.35,14.63-6.37a17.3,17.3,0,0,0,4.73-12.33,19.49,19.49,0,0,0-2.86-10.36,15.33,15.33,0,0,0-7.64-6.54q-4.78-1.85-14-1.85H492.24v68.72Zm0-61.13h21.75q7.63,0,11.18,3.15a10.24,10.24,0,0,1,3.53,8,11.12,11.12,0,0,1-1.82,6.16,10.33,10.33,0,0,1-5.35,4.13,29.26,29.26,0,0,1-9.75,1.29H501.34V430Zm70.73,61.13V422.44H563v68.72Zm40.83,0a47,47,0,0,0,11-1.17,25.44,25.44,0,0,0,8.2-3.45,24.79,24.79,0,0,0,6.26-6.23,33.87,33.87,0,0,0,4.69-10,48.32,48.32,0,0,0,1.82-13.87,46,46,0,0,0-2.69-16.34,28,28,0,0,0-8.13-11.74A23.19,23.19,0,0,0,624,423.43a57.1,57.1,0,0,0-12.24-1H588.1v68.72Zm-15.7-60.61h14.43q8.11,0,11.77,1.41,5.05,2,8.6,7.75t3.54,16.57a42.34,42.34,0,0,1-1.81,13.25,21.64,21.64,0,0,1-5,8.69,15.3,15.3,0,0,1-6.17,3.56,35.37,35.37,0,0,1-10.66,1.27H597.2v-52.5Zm121-3.84q-5.18-4.54-13.29-4.55-10.87,0-17.3,7.87-7.35,9.06-7.36,29,0,17.82,6.66,25.57a21.59,21.59,0,0,0,17.2,7.76,20.93,20.93,0,0,0,11.07-2.95,20.35,20.35,0,0,0,7.66-8.51,26.39,26.39,0,0,0,2.79-12q0-9.86-5.93-16.06a19.12,19.12,0,0,0-14.37-6.21,20,20,0,0,0-9.23,2.25,19.55,19.55,0,0,0-7.45,6.89q.09-10.31,2.39-15.89a19.12,19.12,0,0,1,6.28-8.48,11.59,11.59,0,0,1,7.08-2.25,11.14,11.14,0,0,1,8.43,3.61c1.38,1.5,2.44,3.9,3.19,7.22l8.39-.66q-1-8-6.21-12.56ZM694,458.14A13,13,0,0,1,703.7,454a12.46,12.46,0,0,1,9.56,4.11q3.79,4.1,3.79,11.22,0,7.41-3.84,11.72a11.88,11.88,0,0,1-9.19,4.31,13,13,0,0,1-7-2.08,13.79,13.79,0,0,1-5.18-6.07,19.52,19.52,0,0,1-1.85-8.35,14.79,14.79,0,0,1,4-10.75Zm46.88,27.07q5.67,7.13,15.61,7.12A19.07,19.07,0,0,0,769,488.28a24.43,24.43,0,0,0,7.43-11.49q2.48-7.43,2.48-19.52A68,68,0,0,0,777.34,441a34.63,34.63,0,0,0-4.27-10.22,18.47,18.47,0,0,0-6.89-6.42,20.24,20.24,0,0,0-9.7-2.23,19.06,19.06,0,0,0-12.45,4,24.38,24.38,0,0,0-7.45,11.46q-2.51,7.43-2.51,19.62,0,19.37,6.8,27.94Zm6.23-51.14a10.8,10.8,0,0,1,9.28-4.93q5.91,0,9.87,5.58t4,22.55q0,16.88-4,22.5t-9.77,5.62q-5.82,0-9.78-5.6t-4-22.52q0-16.92,4.36-23.2Z"/><path d="M444,570.46a18.18,18.18,0,0,0-3.39,11.22,20,20,0,0,0,6.23,15q6.24,6,16.41,6t16.4-6a19.74,19.74,0,0,0,6.24-14.81,18.24,18.24,0,0,0-3.31-11,18.5,18.5,0,0,0-9.63-6.66,15.83,15.83,0,0,0,7.62-5.46,14,14,0,0,0,2.5-8.32,16.88,16.88,0,0,0-5.48-12.72q-5.49-5.24-14.48-5.23t-14.35,5.11a16.7,16.7,0,0,0-5.39,12.61,14.41,14.41,0,0,0,2.53,8.53,15.91,15.91,0,0,0,7.78,5.48,17.08,17.08,0,0,0-9.68,6.17Zm11.18-27.87a11.07,11.07,0,0,1,8-3.09,10.92,10.92,0,0,1,8,3.16,10.53,10.53,0,0,1,3.21,7.81,10.19,10.19,0,0,1-3.11,7.52,10.92,10.92,0,0,1-8,3.07,11.12,11.12,0,0,1-8.15-3.09,10.69,10.69,0,0,1-3.14-8,10,10,0,0,1,3.18-7.41Zm-2,29.3A13.32,13.32,0,0,1,463,568a13.94,13.94,0,0,1,10.15,4A13.56,13.56,0,0,1,477.24,582a13.29,13.29,0,0,1-3.94,9.89,13.57,13.57,0,0,1-10,3.89,14.83,14.83,0,0,1-7.27-1.85,12,12,0,0,1-5.08-5.22,15.28,15.28,0,0,1-1.71-7,13.37,13.37,0,0,1,3.91-9.84ZM501,601.56l13.08-19.64,2.71,4.17L527,601.56h10.36l-18.51-26.34,17.2-23.44H526l-8.39,11.76q-1.73,2.4-3.8,5.49c-.87-1.5-2-3.36-3.46-5.58l-7.64-11.67H492.15L509,575.68l-18.19,25.88Zm44.36-31.1A18.18,18.18,0,0,0,542,581.68a20,20,0,0,0,6.23,15q6.24,6,16.41,6t16.4-6a19.74,19.74,0,0,0,6.24-14.81A18.24,18.24,0,0,0,584,571a18.5,18.5,0,0,0-9.63-6.66,15.78,15.78,0,0,0,7.62-5.46,14,14,0,0,0,2.51-8.32A16.89,16.89,0,0,0,579,537.79q-5.49-5.24-14.48-5.23t-14.35,5.11a16.7,16.7,0,0,0-5.39,12.61,14.41,14.41,0,0,0,2.53,8.53,15.91,15.91,0,0,0,7.78,5.48,17.08,17.08,0,0,0-9.68,6.17Zm11.18-27.87a11.07,11.07,0,0,1,8-3.09,10.92,10.92,0,0,1,8,3.16,10.53,10.53,0,0,1,3.21,7.81,10.19,10.19,0,0,1-3.11,7.52,10.92,10.92,0,0,1-8,3.07,11.12,11.12,0,0,1-8.15-3.09,10.69,10.69,0,0,1-3.14-8,10,10,0,0,1,3.18-7.41Zm-2,29.3a13.32,13.32,0,0,1,9.87-3.94,13.94,13.94,0,0,1,10.15,4,13.56,13.56,0,0,1,4,10.08,13.32,13.32,0,0,1-3.93,9.89,13.61,13.61,0,0,1-10,3.89,14.79,14.79,0,0,1-7.26-1.85,12,12,0,0,1-5.09-5.22,15.28,15.28,0,0,1-1.71-7,13.37,13.37,0,0,1,3.91-9.84Z"/></g></svg>