<svg id="VC_Strip" data-name="VC Strip" xmlns="http://www.w3.org/2000/svg" viewBox="0 0 1024 1024"><defs><style>.cls-1{fill:#bbb;}.cls-1,.cls-2{stroke:#1d1d1b;stroke-miterlimit:10;}.cls-2{fill:#fff;fill-rule:evenodd;}</style></defs><g id="_60_-_8x1" data-name="60 - 8x1"><rect class="cls-1" x="2.38" y="491.79" width="1019.25" height="40.43"/><polyline class="cls-2" points="602.07 498.71 602.07 525.29 421.93 525.29 421.93 498.71 602.07 498.71"/><path d="M428.36,520.56h3l5.83-16.18H434l-4.13,11.49-4.07-11.49h-3.17l5.73,16.18Zm22.94-15.74a9.26,9.26,0,0,0-3.86-.84,8.87,8.87,0,0,0-4.39,1.14,8.13,8.13,0,0,0-3.13,3,8.41,8.41,0,0,0-1.1,4.3,8.23,8.23,0,0,0,2.41,6.13A8.35,8.35,0,0,0,447.4,521a9.27,9.27,0,0,0,3.64-.67,11.5,11.5,0,0,0,3.39-2.43l-2.09-2.18a9,9,0,0,1-2.44,1.83,6,6,0,0,1-2.45.5,5.76,5.76,0,0,1-2.86-.72,5,5,0,0,1-2-2,5.76,5.76,0,0,1-.71-2.87,5.41,5.41,0,0,1,5.5-5.49,6.66,6.66,0,0,1,4.94,2.32l2.15-2a9.17,9.17,0,0,0-3.19-2.41Zm6,11.17h5.59V513.2h-5.59V516Zm15.49-11.45a4.92,4.92,0,0,0-2.31-.56,4.45,4.45,0,0,0-3.16,1.2,3.79,3.79,0,0,0-1.28,2.89,4.17,4.17,0,0,0,.77,2.33,18.1,18.1,0,0,0,3.41,3.33,11.15,11.15,0,0,1,1.8,1.68,1.84,1.84,0,0,1,.4,1.1,1.39,1.39,0,0,1-.54,1.07,2,2,0,0,1-1.33.46c-1,0-1.91-.72-2.69-2.14l-2.58,1.56a6.76,6.76,0,0,0,2.19,2.66,5.38,5.38,0,0,0,3,.84,5,5,0,0,0,3.59-1.29,4.33,4.33,0,0,0,1.38-3.29,4.57,4.57,0,0,0-.39-1.89,6.76,6.76,0,0,0-1.33-1.81c-.25-.25-1-.87-2.14-1.85a21.06,21.06,0,0,1-2.25-2.08A1.22,1.22,0,0,1,469,508a.93.93,0,0,1,.39-.73,1.44,1.44,0,0,1,1-.33,3.23,3.23,0,0,1,2.44,1.67l2.28-2a8.28,8.28,0,0,0-2.37-2Zm5.63,4h-1.54v2.59h1.54v9.38h3v-9.38h1.78v-2.59h-1.78v-4.41h-3v4.41Zm5.68,12h3v-5.42a7.85,7.85,0,0,1,.48-3.37,1.38,1.38,0,0,1,1.17-.86,2,2,0,0,1,.87.27l.93-2.59a2.84,2.84,0,0,0-1.22-.3,2.63,2.63,0,0,0-1.51.46,3.12,3.12,0,0,0-1.11,1.35v-1.51h-2.58v12Zm7.73-16.33a1.84,1.84,0,0,0-.56,1.35,1.91,1.91,0,0,0,.57,1.4,1.87,1.87,0,0,0,2.7,0,2,2,0,0,0,0-2.75,1.9,1.9,0,0,0-2.7,0Zm-.15,16.33h3v-12h-3v12Zm5.73-12v16.34h3v-5.64a5.77,5.77,0,0,0,1.77,1.21,5.05,5.05,0,0,0,1.92.37,5.34,5.34,0,0,0,4-1.8,6.31,6.31,0,0,0,1.69-4.47,6.43,6.43,0,0,0-1.64-4.54,5.22,5.22,0,0,0-4-1.77,5.06,5.06,0,0,0-2,.4,5.64,5.64,0,0,0-1.76,1.22v-1.32Zm8.46,3.45a3.53,3.53,0,0,1,.93,2.52,3.62,3.62,0,0,1-.94,2.56,3.24,3.24,0,0,1-4.67,0,3.58,3.58,0,0,1-.93-2.58,3.51,3.51,0,0,1,.93-2.53,3.14,3.14,0,0,1,2.35-1,3.06,3.06,0,0,1,2.33,1Zm13.56.07a15.85,15.85,0,0,0-1,2.33,5.31,5.31,0,0,0-.22,1.51,4.9,4.9,0,0,0,1.45,3.49,5.12,5.12,0,0,0,7.22.06,4.89,4.89,0,0,0,1.48-3.58,5,5,0,0,0-1.44-3.66,4.69,4.69,0,0,0-3.5-1.48l2.83-5.49L523.56,504l-4.16,8.13Zm5.28,2.21a2.35,2.35,0,0,1,0,3.14,2,2,0,0,1-1.47.62,1.93,1.93,0,0,1-1.43-.63,2.19,2.19,0,0,1-.61-1.58,2.16,2.16,0,0,1,.58-1.55,1.88,1.88,0,0,1,1.44-.62,2,2,0,0,1,1.51.62Zm7-8.15c-.92,1.34-1.37,3.49-1.37,6.46a13.45,13.45,0,0,0,.7,4.91,5.53,5.53,0,0,0,1.95,2.58A5.32,5.32,0,0,0,536,521a5.16,5.16,0,0,0,3-.84,5.69,5.69,0,0,0,1.91-2.63,18,18,0,0,0,0-10,5.59,5.59,0,0,0-2-2.66,5.38,5.38,0,0,0-3.05-.86,4.91,4.91,0,0,0-4.26,2.19Zm6.19,1.94a9.38,9.38,0,0,1,.72,4.4,9.24,9.24,0,0,1-.8,4.48,2,2,0,0,1-1.78,1.12,2.15,2.15,0,0,1-1.89-1.18,8.59,8.59,0,0,1-.73-4.23,15.4,15.4,0,0,1,.31-3.58,3.25,3.25,0,0,1,.93-1.72,2.08,2.08,0,0,1,3.24.71ZM550.49,516h5.58V513.2h-5.58V516Zm24.62-5.87a3.9,3.9,0,0,0,.33-1.61,4.56,4.56,0,0,0-.62-2.3,4.35,4.35,0,0,0-1.7-1.65,5.16,5.16,0,0,0-2.5-.58,5.43,5.43,0,0,0-2.54.57,4.31,4.31,0,0,0-1.71,1.62,4.52,4.52,0,0,0-.61,2.3,4.2,4.2,0,0,0,.37,1.75,5.49,5.49,0,0,0,1.09,1.57,5.6,5.6,0,0,0-1.66,1.87A4.92,4.92,0,0,0,565,516a5,5,0,0,0,.7,2.65,4.42,4.42,0,0,0,1.84,1.75,7.13,7.13,0,0,0,3.12.57,6.62,6.62,0,0,0,3-.6,4.45,4.45,0,0,0,1.87-1.78,5,5,0,0,0,.7-2.59,4.92,4.92,0,0,0-2.3-4.2,6.17,6.17,0,0,0,1.18-1.67Zm-3.26-2.69a1.69,1.69,0,0,1,.51,1.27,1.87,1.87,0,0,1-.5,1.34,1.85,1.85,0,0,1-2.56,0,1.83,1.83,0,0,1-.51-1.31,1.75,1.75,0,0,1,.49-1.28,1.67,1.67,0,0,1,1.24-.5,1.85,1.85,0,0,1,1.33.49Zm.61,6.68a2.21,2.21,0,0,1,.72,1.68,2.12,2.12,0,0,1-.69,1.63,2.7,2.7,0,0,1-1.88.63,2.59,2.59,0,0,1-1.88-.68,2.17,2.17,0,0,1-.71-1.65,2.1,2.1,0,0,1,.75-1.61,2.72,2.72,0,0,1,1.87-.68,2.58,2.58,0,0,1,1.82.68Zm9,.15-4.54,6.3h3.43l2.83-3.93,2.85,3.93h3.48l-4.59-6.34,4.06-5.63h-3.42l-2.36,3.26-2.36-3.26h-3.49l4.11,5.67Z"/><polygon points="591.46 507.27 594.79 507.27 594.79 520.56 597.85 520.56 597.85 504.38 593.24 504.38 591.46 507.27 591.46 507.27"/></g></svg>