<svg id="VC_Strip" data-name="VC Strip" xmlns="http://www.w3.org/2000/svg" viewBox="0 0 1024 1024"><defs><style>.cls-1{fill:#bbb;}.cls-1,.cls-2{stroke:#1d1d1b;stroke-miterlimit:10;}.cls-2{fill:#fff;fill-rule:evenodd;}</style></defs><g id="_60_-_4x1" data-name="60 - 4x1"><rect class="cls-1" x="4.81" y="471.68" width="1014.39" height="80.64"/><polyline class="cls-2" points="691.65 485.5 691.65 538.5 332.35 538.5 332.35 485.5 691.65 485.5"/><path d="M345.17,529.07h5.92l11.63-32.26h-6.31l-8.23,22.92-8.12-22.92h-6.32l11.43,32.26Zm45.75-31.39a18.34,18.34,0,0,0-7.68-1.69,17.59,17.59,0,0,0-8.77,2.29,16.27,16.27,0,0,0-6.25,6,16.78,16.78,0,0,0-2.18,8.57,16.54,16.54,0,0,0,4.79,12.23,16.72,16.72,0,0,0,12.32,4.77,18.43,18.43,0,0,0,7.26-1.35,22.74,22.74,0,0,0,6.75-4.84L393,519.35a17.48,17.48,0,0,1-4.87,3.63,11.64,11.64,0,0,1-4.88,1,11.43,11.43,0,0,1-5.7-1.43,10.07,10.07,0,0,1-4-3.93,11.53,11.53,0,0,1-1.4-5.73,10.81,10.81,0,0,1,11-10.95q5.48,0,9.86,4.63l4.3-4.09a18.29,18.29,0,0,0-6.38-4.8ZM402.84,520H414V514.4H402.84V520Zm30.89-22.86a10,10,0,0,0-4.6-1.12,8.83,8.83,0,0,0-6.31,2.41,7.6,7.6,0,0,0-2.56,5.75,8.37,8.37,0,0,0,1.54,4.66q1.53,2.34,6.81,6.64a23.92,23.92,0,0,1,3.58,3.35A3.72,3.72,0,0,1,433,521a2.78,2.78,0,0,1-1.07,2.13,4,4,0,0,1-2.66.92q-3,0-5.36-4.28l-5.16,3.11a13.18,13.18,0,0,0,4.38,5.31,10.58,10.58,0,0,0,6,1.69,10,10,0,0,0,7.16-2.59,8.61,8.61,0,0,0,2.74-6.56,9,9,0,0,0-.78-3.76,12.89,12.89,0,0,0-2.64-3.6c-.5-.52-1.92-1.75-4.27-3.71a41.3,41.3,0,0,1-4.5-4.15,2.46,2.46,0,0,1-.55-1.53,1.9,1.9,0,0,1,.77-1.46,3,3,0,0,1,2-.65q2.47,0,4.88,3.34l4.54-4a16.73,16.73,0,0,0-4.73-4.08Zm11.23,8.1h-3.07v5.15H445v18.71h6V510.36h3.56v-5.15h-3.56v-8.8h-6v8.8Zm11.34,23.86h5.94v-9.65l0-1.16c0-3.34.32-5.57.95-6.72a2.75,2.75,0,0,1,2.34-1.71,4.14,4.14,0,0,1,1.73.53l1.86-5.15a5.57,5.57,0,0,0-2.43-.62,5.37,5.37,0,0,0-3,.92,6.44,6.44,0,0,0-2.21,2.7v-3H456.3v23.86Zm15.41-32.57a3.68,3.68,0,0,0-1.11,2.7,3.83,3.83,0,0,0,1.12,2.79,3.66,3.66,0,0,0,2.72,1.15,3.58,3.58,0,0,0,2.67-1.13,3.71,3.71,0,0,0,1.12-2.73,3.79,3.79,0,0,0-1.13-2.76,3.78,3.78,0,0,0-5.39,0Zm-.3,32.57h6V505.21h-6v23.86Zm11.42-23.86V537.8h5.95V526.55a11.65,11.65,0,0,0,3.53,2.4,9.91,9.91,0,0,0,3.84.73,10.63,10.63,0,0,0,8-3.58,12.53,12.53,0,0,0,3.38-8.92,12.83,12.83,0,0,0-3.27-9.06,10.42,10.42,0,0,0-7.94-3.53,10.08,10.08,0,0,0-4,.81,11.25,11.25,0,0,0-3.51,2.44v-2.63Zm16.89,6.87a7.83,7.83,0,0,1,0,10.12,6.09,6.09,0,0,1-4.62,2,6.19,6.19,0,0,1-4.69-2,7.2,7.2,0,0,1-1.87-5.15,7,7,0,0,1,1.87-5,6.24,6.24,0,0,1,4.69-1.93,6.1,6.1,0,0,1,4.65,2Zm27,.14a30.64,30.64,0,0,0-2.08,4.65,10.56,10.56,0,0,0-.45,3,9.76,9.76,0,0,0,2.91,7,9.63,9.63,0,0,0,7.27,3,10,10,0,0,0,10.07-10.07,10,10,0,0,0-2.88-7.3,9.38,9.38,0,0,0-7-2.94l5.65-11L535.06,496l-8.29,16.23Zm10.51,4.4a4.64,4.64,0,0,1,0,6.26,4,4,0,0,1-2.94,1.25,3.8,3.8,0,0,1-2.84-1.27,4.67,4.67,0,0,1-.05-6.24,3.79,3.79,0,0,1,2.87-1.24,4,4,0,0,1,3,1.24Zm13.9-16.24q-2.74,4-2.74,12.88c0,4.24.46,7.5,1.4,9.8a11,11,0,0,0,3.88,5.13,10.58,10.58,0,0,0,6.12,1.69,10.22,10.22,0,0,0,6-1.68,11.26,11.26,0,0,0,3.81-5.25,36.17,36.17,0,0,0,0-19.93,10.94,10.94,0,0,0-4-5.29,10.53,10.53,0,0,0-6.08-1.74,9.77,9.77,0,0,0-8.49,4.39Zm12.34,3.86q1.43,2.42,1.43,8.77t-1.6,9a4,4,0,0,1-3.54,2.22,4.33,4.33,0,0,1-3.78-2.34q-1.46-2.33-1.45-8.45a30.36,30.36,0,0,1,.63-7.13,6.45,6.45,0,0,1,1.84-3.43,4.17,4.17,0,0,1,2.76-1,4.24,4.24,0,0,1,3.71,2.41ZM588.77,520h11.14V514.4H588.77V520Zm28.49-3.21v5.69h14.08v6.62h6v-6.62h2.88v-5.69h-2.88V496h-6.12l-14,20.77Zm6.71,0L631.34,506v10.81Zm26.61-.24-9.06,12.55h6.84l5.64-7.83,5.68,7.83h7l-9.16-12.63,8.1-11.23h-6.83l-4.7,6.5-4.71-6.5h-7l8.2,11.31Z"/><polygon points="670.49 502.57 677.14 502.57 677.14 529.07 683.24 529.07 683.24 496.81 674.05 496.81 670.49 502.57 670.49 502.57"/></g></svg>