<svg id="VDO_Dotron" data-name="VDO Dotron" xmlns="http://www.w3.org/2000/svg" viewBox="0 0 1024 1024"><defs><style>.cls-1{fill:#bbb;fill-rule:evenodd;}.cls-1,.cls-2,.cls-3,.cls-4{stroke:#000;stroke-width:2.83px;}.cls-1,.cls-3,.cls-4{stroke-miterlimit:10;}.cls-2{fill:none;stroke-linecap:round;stroke-linejoin:round;}.cls-3{fill:#fff;}</style></defs><path class="cls-1" d="M1018,512C1018,234.44,789.56,6,512,6S6,234.44,6,512s228.4,506,506,506,506-228.4,506-506"/><path class="cls-2" d="M1018,512C1018,234.44,789.56,6,512,6S6,234.44,6,512s228.4,506,506,506,506-228.4,506-506"/><path class="cls-1" d="M959.81,512C959.81,266.34,757.66,64.19,512,64.19S64.19,266.34,64.19,512,266.34,959.81,512,959.81,959.81,757.66,959.81,512"/><path class="cls-2" d="M959.81,512C959.81,266.34,757.66,64.19,512,64.19S64.19,266.34,64.19,512,266.34,959.81,512,959.81,959.81,757.66,959.81,512"/><rect class="cls-3" x="160.64" y="212.45" width="702.72" height="599.1"/><rect class="cls-2" x="160.64" y="212.45" width="702.72" height="599.1"/><path class="cls-4" d="M333.79,459.64l-60.46-156h22.4L336.33,417q4.91,13.63,8.21,25.55,3.6-12.78,8.39-25.54L395,303.66h21.12l-60.94,156Zm100.77,0v-156h53.72q18.2,0,27.77,2.23a52.82,52.82,0,0,1,22.87,11.17,63.37,63.37,0,0,1,18.46,26.66q6.12,16.21,6.12,37.08,0,17.76-4.15,31.49T548.71,435a56.66,56.66,0,0,1-14.2,14.15A58,58,0,0,1,515.89,457a106.4,106.4,0,0,1-25.05,2.66Zm20.61-18.37h33.3q15.43,0,24.21-2.88a34.65,34.65,0,0,0,14-8.09q7.34-7.35,11.43-19.75t4.1-30.08q0-24.48-8-37.63t-19.52-17.62q-8.29-3.2-26.71-3.2H455.17V441.27Zm130.37-57.63q0-38.81,20.86-60.75t53.86-22a74.74,74.74,0,0,1,39,10.32A67.34,67.34,0,0,1,725.65,340q9.11,18.45,9.1,41.83,0,23.71-9.58,42.42A65.36,65.36,0,0,1,698,452.58a77.61,77.61,0,0,1-37.89,9.61q-22,0-39.38-10.62a68.49,68.49,0,0,1-26.29-29,87.9,87.9,0,0,1-8.94-38.91Zm21.29.26q0,28.19,15.16,44.39t38,16.21q23.31,0,38.37-16.37t15.06-46.46q0-19-6.44-33.23a49.52,49.52,0,0,0-18.84-22,51.11,51.11,0,0,0-27.83-7.82,52.86,52.86,0,0,0-37.73,15q-15.79,15-15.8,50.24Z"/><path class="cls-4" d="M198.23,708.34v-156H252q18.2,0,27.78,2.24a52.91,52.91,0,0,1,22.88,11.17,63.39,63.39,0,0,1,18.46,26.65q6.13,16.23,6.13,37.08,0,17.78-4.16,31.5t-10.64,22.72a56.48,56.48,0,0,1-14.21,14.14,57.81,57.81,0,0,1-18.62,7.82,105.94,105.94,0,0,1-25.06,2.67ZM218.85,690h33.32q15.43,0,24.22-2.87a34.83,34.83,0,0,0,14-8.09q7.33-7.35,11.44-19.75t4.09-30.08q0-24.49-8-37.64t-19.53-17.62q-8.31-3.2-26.72-3.19H218.85V690ZM346,651.78q0-31.42,17.44-46.54Q378,592.67,399,592.67q23.29,0,38.07,15.28t14.78,42.23q0,21.84-6.54,34.35a46.4,46.4,0,0,1-19,19.44A55.39,55.39,0,0,1,399,710.89q-23.72,0-38.34-15.23T346,651.78Zm19.76,0q0,21.72,9.44,32.53a31.35,31.35,0,0,0,47.41,0q9.44-10.86,9.44-33.12,0-21-9.49-31.79a31.4,31.4,0,0,0-47.36-.06Q365.8,630,365.8,651.73Zm150.28,39.54,2.56,16.9a71.33,71.33,0,0,1-14.47,1.7q-10.43,0-16.17-3.3a18.51,18.51,0,0,1-8.09-8.68q-2.34-5.39-2.34-22.63V610.19H463.43v-15h14.14v-28l19.26-11.48v39.44h19.25v15H496.83v66.16c0,5.47.33,9,1,10.55a8.09,8.09,0,0,0,3.3,3.73,12.78,12.78,0,0,0,6.54,1.38,63.21,63.21,0,0,0,8.41-.74Zm18.43,17.07V595.22h17.38V612.3q6.6-12,12.18-15.81a21.34,21.34,0,0,1,12.28-3.82q9.67,0,19.68,6.16l-6.67,17.76a27.18,27.18,0,0,0-14-4.18,18.18,18.18,0,0,0-11.26,3.78,20.54,20.54,0,0,0-7.12,10.5,75.16,75.16,0,0,0-3.18,22.39v59.26Zm65.7-56.56q0-31.42,17.44-46.54,14.57-12.57,35.52-12.57,23.3,0,38.07,15.28T706,650.18q0,21.84-6.54,34.35a46.4,46.4,0,0,1-19,19.44,55.39,55.39,0,0,1-27.27,6.92q-23.73,0-38.34-15.23T600.2,651.78Zm19.76,0q0,21.72,9.44,32.53a31.35,31.35,0,0,0,47.41,0q9.43-10.86,9.44-33.12,0-21-9.49-31.79a31.4,31.4,0,0,0-47.36-.06Q620,630,620,651.73Zm108.37,56.61V595.22h17.38v16q12.45-18.6,36-18.6a47.39,47.39,0,0,1,18.79,3.67q8.57,3.67,12.83,9.64a37.09,37.09,0,0,1,6,14.17q1.07,5.33,1.07,18.64v69.55H801.1V639.57q0-11.72-2.23-17.51a18.42,18.42,0,0,0-7.93-9.27,25.22,25.22,0,0,0-13.34-3.46,31,31,0,0,0-21.12,7.78q-8.88,7.77-8.88,29.48v61.75Z"/></svg>